<svg width="851" height="637" viewBox="0 0 851 637" fill="none" xmlns="http://www.w3.org/2000/svg">
<path d="M851 0V607.333C791.805 627.419 731.892 635.752 678.378 636.868C606.459 638.369 546.095 626.835 514.561 613.287C456.928 588.516 441.23 557.827 376.07 547.629C367.62 546.307 359.459 545.504 351.585 545.106C308.721 542.93 274.27 552.703 246.73 555.651C226.209 557.851 209.524 556.262 196.059 543.119C175.912 523.455 173.144 487.861 179.607 463.967C192.385 416.734 244.356 403.885 263.028 350.435C265.473 343.442 270.821 327.583 268.753 307.059C267.322 292.873 262.876 281.697 259.35 274.528C259.35 274.528 258.811 273.597 258.215 272.723C240.442 246.558 191.789 232.447 191.789 232.447C147.207 219.517 104.558 207.153 91.1068 177.257C87.2774 168.745 76.8434 143.424 89.5844 97.9763C112.311 16.881 0 0 0 0H851Z" fill="url(#paint0_radial)"/>
<path d="M851 0.0033717V607.348C814.187 623.875 744.286 636.768 669.821 636.998C621.076 637.146 579.961 630.328 526.412 601.177C480.597 576.237 458.812 543.638 401.153 534.529C374.51 530.323 351.478 532.067 351.478 532.067C306.924 534.175 272.684 546.367 246.6 542.359C237.04 540.892 228.574 537.245 221.102 530.127C200.951 510.935 198.182 476.194 204.646 452.869C217.427 406.77 269.41 394.227 288.086 342.051C290.532 335.223 295.881 319.745 293.813 299.713C292.381 285.868 287.934 274.958 284.407 267.958C284.407 267.958 283.868 267.05 283.272 266.197C265.495 240.659 216.831 226.885 216.831 226.885C172.239 214.264 129.581 202.194 116.127 173.016C112.297 164.707 101.864 139.992 114.604 95.6335C137.336 16.4764 25 0 25 0H851V0.0033717Z" fill="url(#paint1_radial)"/>
<defs>
<radialGradient id="paint0_radial" cx="0" cy="0" r="1" gradientUnits="userSpaceOnUse" gradientTransform="translate(876.727 -12.8598) scale(971.768 973.364)">
<stop stop-color="#7464C9"/>
<stop offset="1" stop-color="#5039C5"/>
</radialGradient>
<radialGradient id="paint1_radial" cx="0" cy="0" r="1" gradientUnits="userSpaceOnUse" gradientTransform="translate(875.972 -12.8564) scale(995.681 973.283)">
<stop stop-color="#8D79F3"/>
<stop offset="1" stop-color="#6145EF"/>
</radialGradient>
</defs>
</svg>
