<svg width="618" height="638" viewBox="0 0 618 638" fill="none" xmlns="http://www.w3.org/2000/svg">
<g clip-path="url(#clip0)">
<g opacity="0.5">
<g opacity="0.5">
<path opacity="0.5" d="M524.332 221.838L438.475 172.04L439.219 419.864L525.023 469.662L524.332 221.838Z" fill="url(#paint0_linear)"/>
</g>
<g opacity="0.5">
<path opacity="0.5" d="M524.332 221.838L525.022 469.662L617.945 416.099L617.254 168.274L524.332 221.838Z" fill="url(#paint1_linear)"/>
</g>
<g opacity="0.5">
<path opacity="0.5" d="M378.227 256.415L292.37 206.617L293.22 503.975L379.077 553.773L378.227 256.415Z" fill="url(#paint2_linear)"/>
</g>
<g opacity="0.5">
<path opacity="0.5" d="M378.226 256.416L379.076 553.773L471.946 500.263L471.149 202.852L378.226 256.416Z" fill="url(#paint3_linear)"/>
</g>
<g opacity="0.5">
<path opacity="0.5" d="M232.015 266.227L233.078 637.937L147.221 588.139L146.158 216.429L232.015 266.227Z" fill="url(#paint4_linear)"/>
<g opacity="0.5">
<path opacity="0.5" d="M232.015 266.227L233.077 637.937L325.947 584.374L324.938 212.664L232.015 266.227Z" fill="url(#paint5_linear)"/>
</g>
</g>
<g opacity="0.5">
<path opacity="0.5" d="M85.8567 448.396L0 398.598L1.22197 672.249L87.0787 722.048L85.8567 448.396Z" fill="url(#paint6_linear)"/>
</g>
<g opacity="0.5">
<path opacity="0.5" d="M85.8564 448.396L87.0784 722.048L180.001 668.537L178.779 394.885L85.8564 448.396Z" fill="url(#paint7_linear)"/>
</g>
</g>
<path d="M524.332 103.362L438.475 53.564L439.219 301.335L525.023 351.134L524.332 103.362Z" fill="#D7CBF5"/>
<path d="M617.255 49.7982L531.398 0L438.475 53.5636L524.332 103.362L617.255 49.7982Z" fill="#D7CBF5"/>
<path d="M524.332 103.361L525.022 351.133L617.945 297.622L617.254 49.7979L524.332 103.361Z" fill="#D7CBF5"/>
<path d="M438.475 53.1923L522.844 103.786L525.023 351.133L525.554 103.786L617.255 49.48L524.332 102.301L438.475 53.1923Z" fill="white"/>
<path d="M378.227 137.94L292.37 88.1421L293.22 385.5L379.077 435.298L378.227 137.94Z" fill="#C6B4F3"/>
<path d="M471.15 84.3764L385.293 34.5781L292.37 88.1417L378.227 137.94L471.15 84.3764Z" fill="#C6B4F3"/>
<path d="M378.226 137.94L379.076 435.297L471.946 381.734L471.149 84.376L378.226 137.94Z" fill="#C6B4F3"/>
<path d="M292.37 88.1413L376.686 138.682L379.077 435.297L379.449 138.682L471.15 84.376L378.227 137.197L292.37 88.1413Z" fill="white"/>
<path d="M232.015 147.698L146.158 97.8999L147.221 469.61L233.078 519.408L232.015 147.698Z" fill="#AC90F1"/>
<path d="M324.938 94.1874L239.081 44.3892L146.158 97.8997L232.015 147.698L324.938 94.1874Z" fill="#AC90F1"/>
<path d="M232.015 147.698L233.077 519.408L325.947 465.897L324.938 94.187L232.015 147.698Z" fill="#AC90F1"/>
<path d="M146.158 97.8993L230.474 148.493L233.078 519.408L233.237 148.493L324.938 94.187L232.015 147.008L146.158 97.8993Z" fill="white"/>
<path d="M85.8567 169.601L0 119.803L1.22197 553.774L87.0787 603.572L85.8567 169.601Z" fill="#8457ED"/>
<path d="M178.78 116.037L92.9229 66.2388L0 119.802L85.8567 169.601L178.78 116.037Z" fill="#8457ED"/>
<path d="M85.8564 169.6L87.0784 603.572L180.001 550.008L178.779 116.037L85.8564 169.6Z" fill="#8457ED"/>
<path d="M0 119.802L84.316 170.343L87.0787 603.572V170.343L178.78 116.037L85.8567 168.858L0 119.802Z" fill="white"/>
<path d="M535.856 377.389L534.778 378.062L530.306 370.917L528.64 373.061L528.03 372.087L530.383 369.016L530.551 368.911L535.856 377.389ZM539.374 370.819L536.543 372.585L535.996 371.71L538.826 369.944L539.374 370.819ZM545.809 371.18L544.73 371.853L540.258 364.708L538.592 366.851L537.983 365.878L540.335 362.807L540.503 362.702L545.809 371.18ZM551.995 362.316C552.781 363.572 553.15 364.639 553.103 365.517C553.056 366.395 552.576 367.119 551.664 367.688C550.763 368.25 549.909 368.369 549.104 368.044C548.296 367.715 547.514 366.963 546.756 365.786L545.86 364.355C545.084 363.115 544.722 362.06 544.774 361.189C544.826 360.319 545.31 359.598 546.227 359.026C547.135 358.459 547.987 358.334 548.781 358.649C549.573 358.961 550.354 359.72 551.125 360.925L551.995 362.316ZM550.005 361.52C549.437 360.612 548.896 360.031 548.382 359.777C547.865 359.519 547.331 359.562 546.778 359.907C546.229 360.25 545.958 360.706 545.965 361.276C545.973 361.846 546.241 362.563 546.77 363.425L547.843 365.14C548.414 366.052 548.967 366.644 549.503 366.916C550.041 367.183 550.578 367.148 551.116 366.813C551.646 366.482 551.91 366.033 551.909 365.464C551.912 364.893 551.643 364.163 551.104 363.275L550.005 361.52ZM563.417 360.194L562.338 360.867L560.916 358.595C560.522 359.013 560.077 359.377 559.582 359.685C558.797 360.175 558.072 360.348 557.407 360.205C556.746 360.058 556.179 359.617 555.707 358.88L554.536 357.008L555.609 356.339L556.802 358.245C557.407 359.168 558.15 359.355 559.031 358.805C559.526 358.496 559.971 358.133 560.365 357.715L558.414 354.597L559.493 353.924L563.417 360.194ZM567.816 357.61C566.965 358.141 566.099 358.295 565.217 358.071C564.333 357.844 563.598 357.263 563.013 356.328L562.89 356.131C562.501 355.509 562.272 354.881 562.203 354.247C562.136 353.607 562.229 353.017 562.483 352.478C562.738 351.932 563.115 351.503 563.613 351.192C564.429 350.683 565.231 350.556 566.02 350.811C566.808 351.065 567.516 351.693 568.142 352.694L568.421 353.14L564.17 355.792C564.572 356.401 565.065 356.789 565.648 356.956C566.233 357.118 566.793 357.032 567.326 356.699C567.705 356.463 567.978 356.185 568.144 355.867C568.31 355.548 568.412 355.2 568.45 354.822L569.424 354.923C569.404 356.058 568.867 356.954 567.816 357.61ZM564.165 352.073C563.732 352.343 563.467 352.728 563.372 353.228C563.274 353.725 563.368 354.278 563.653 354.89L566.797 352.928L566.746 352.847C566.374 352.322 565.964 351.992 565.515 351.859C565.063 351.722 564.613 351.793 564.165 352.073ZM572.658 345.71L576.582 351.98L575.503 352.653L572.134 347.27L570 348.601L571.341 351.028C571.946 352.149 572.247 353.033 572.243 353.68C572.243 354.325 571.932 354.854 571.31 355.269L570.881 355.537L570.29 354.592L570.583 354.377C570.906 354.122 571.03 353.765 570.954 353.308C570.877 352.851 570.553 352.118 569.982 351.111L568.418 348.355L572.658 345.71ZM577.976 350.329C577.86 350.143 577.817 349.955 577.848 349.764C577.883 349.57 578.011 349.405 578.231 349.267C578.451 349.13 578.656 349.088 578.846 349.142C579.039 349.193 579.194 349.311 579.31 349.497C579.421 349.674 579.456 349.859 579.415 350.051C579.378 350.241 579.249 350.405 579.029 350.542C578.808 350.68 578.605 350.723 578.418 350.674C578.234 350.621 578.087 350.506 577.976 350.329Z" fill="black"/>
<path d="M386.631 463.804L385.552 464.477L381.081 457.332L379.414 459.476L378.805 458.502L381.157 455.431L381.326 455.326L386.631 463.804ZM393.301 459.643L392.222 460.316L387.751 453.171L386.084 455.314L385.475 454.341L387.827 451.27L387.995 451.165L393.301 459.643ZM396.818 453.073L393.988 454.839L393.44 453.964L396.271 452.198L396.818 453.073ZM405.26 452.181L399.727 455.633L399.245 454.863L400.137 449.794C400.263 449.033 400.312 448.45 400.283 448.043C400.256 447.63 400.139 447.26 399.934 446.931C399.658 446.491 399.299 446.213 398.856 446.097C398.412 445.982 397.968 446.063 397.524 446.34C396.99 446.673 396.67 447.085 396.563 447.576C396.458 448.061 396.575 448.573 396.913 449.114L395.84 449.784C395.354 449.007 395.211 448.224 395.41 447.434C395.613 446.641 396.133 445.983 396.973 445.459C397.757 444.97 398.507 444.789 399.222 444.918C399.935 445.043 400.505 445.447 400.933 446.131C401.453 446.961 401.542 448.281 401.201 450.089L400.473 453.951L404.712 451.306L405.26 452.181ZM409.44 444.57C410.226 445.826 410.595 446.892 410.548 447.771C410.5 448.649 410.021 449.372 409.108 449.942C408.207 450.504 407.354 450.622 406.549 450.298C405.741 449.969 404.958 449.217 404.2 448.04L403.305 446.609C402.529 445.369 402.167 444.314 402.219 443.443C402.271 442.573 402.755 441.852 403.671 441.28C404.58 440.713 405.431 440.588 406.226 440.903C407.017 441.215 407.799 441.974 408.569 443.179L409.44 444.57ZM407.449 443.773C406.881 442.866 406.34 442.285 405.826 442.03C405.31 441.772 404.775 441.816 404.222 442.161C403.673 442.503 403.403 442.96 403.41 443.53C403.417 444.1 403.685 444.816 404.214 445.679L405.288 447.394C405.859 448.306 406.412 448.898 406.948 449.17C407.486 449.437 408.023 449.402 408.56 449.067C409.09 448.736 409.355 448.287 409.353 447.718C409.356 447.147 409.088 446.417 408.548 445.529L407.449 443.773ZM420.861 442.448L419.782 443.121L418.361 440.849C417.967 441.267 417.522 441.631 417.027 441.939C416.242 442.429 415.517 442.602 414.852 442.458C414.191 442.312 413.624 441.871 413.152 441.134L411.981 439.262L413.054 438.593L414.247 440.499C414.851 441.422 415.594 441.609 416.476 441.059C416.971 440.75 417.415 440.386 417.81 439.968L415.859 436.851L416.937 436.178L420.861 442.448ZM425.26 439.864C424.41 440.395 423.544 440.549 422.662 440.325C421.778 440.098 421.043 439.517 420.458 438.582L420.335 438.385C419.945 437.763 419.716 437.135 419.648 436.501C419.58 435.861 419.673 435.271 419.927 434.732C420.182 434.186 420.559 433.757 421.058 433.446C421.874 432.937 422.676 432.81 423.464 433.064C424.253 433.319 424.96 433.947 425.586 434.947L425.866 435.394L421.614 438.046C422.017 438.654 422.51 439.042 423.093 439.21C423.678 439.372 424.237 439.286 424.771 438.953C425.15 438.717 425.422 438.439 425.588 438.121C425.755 437.802 425.857 437.454 425.894 437.076L426.869 437.177C426.848 438.312 426.312 439.208 425.26 439.864ZM421.609 434.327C421.176 434.597 420.912 434.982 420.816 435.482C420.718 435.978 420.812 436.532 421.098 437.143L424.241 435.182L424.191 435.101C423.819 434.576 423.408 434.246 422.959 434.113C422.508 433.976 422.058 434.047 421.609 434.327ZM430.103 427.964L434.027 434.234L432.948 434.907L429.579 429.524L427.444 430.855L428.786 433.282C429.391 434.403 429.691 435.287 429.687 435.934C429.688 436.578 429.377 437.108 428.755 437.523L428.325 437.791L427.734 436.846L428.027 436.631C428.351 436.376 428.475 436.019 428.398 435.562C428.322 435.105 427.998 434.372 427.426 433.364L425.863 430.609L430.103 427.964ZM435.421 432.583C435.304 432.397 435.262 432.209 435.293 432.018C435.328 431.824 435.455 431.659 435.676 431.521C435.896 431.384 436.101 431.342 436.29 431.395C436.484 431.447 436.638 431.565 436.754 431.75C436.866 431.928 436.901 432.113 436.86 432.305C436.823 432.495 436.694 432.658 436.473 432.796C436.253 432.933 436.049 432.977 435.862 432.927C435.679 432.875 435.532 432.76 435.421 432.583Z" fill="black"/>
<path d="M248.979 546.6L243.446 550.052L242.963 549.281L243.855 544.212C243.981 543.452 244.03 542.868 244.002 542.461C243.974 542.049 243.858 541.678 243.653 541.35C243.377 540.909 243.017 540.631 242.574 540.516C242.131 540.4 241.687 540.481 241.242 540.759C240.709 541.091 240.389 541.503 240.282 541.994C240.177 542.479 240.293 542.992 240.632 543.533L239.559 544.202C239.073 543.425 238.929 542.642 239.128 541.852C239.331 541.059 239.852 540.401 240.691 539.878C241.476 539.388 242.226 539.208 242.941 539.336C243.653 539.461 244.224 539.865 244.652 540.549C245.171 541.38 245.261 542.699 244.919 544.507L244.191 548.37L248.431 545.725L248.979 546.6ZM253.641 543.69L252.563 544.364L248.091 537.219L246.425 539.362L245.815 538.389L248.168 535.318L248.336 535.213L253.641 543.69ZM257.159 537.121L254.329 538.887L253.781 538.012L256.611 536.246L257.159 537.121ZM257.913 535.144L255.709 530.669L260.036 527.969L260.656 528.96L257.24 531.092L258.425 533.551C258.686 533.05 259.08 532.635 259.606 532.307C260.375 531.827 261.146 531.701 261.917 531.928C262.686 532.152 263.341 532.697 263.883 533.562C264.427 534.431 264.62 535.264 264.463 536.061C264.307 536.851 263.807 537.509 262.965 538.035C262.218 538.501 261.48 538.674 260.75 538.555C260.019 538.436 259.393 538.032 258.87 537.342L259.885 536.709C260.253 537.151 260.653 537.409 261.087 537.482C261.517 537.552 261.961 537.445 262.417 537.16C262.916 536.849 263.2 536.435 263.269 535.919C263.343 535.401 263.192 534.842 262.817 534.243C262.464 533.679 262.027 533.324 261.505 533.177C260.984 533.024 260.469 533.106 259.958 533.425C259.49 533.716 259.187 534.048 259.048 534.419L258.909 534.828L257.913 535.144ZM269.78 528.618C270.566 529.873 270.935 530.94 270.888 531.818C270.841 532.696 270.361 533.42 269.449 533.99C268.548 534.552 267.695 534.67 266.889 534.346C266.081 534.017 265.299 533.264 264.541 532.088L263.645 530.657C262.869 529.417 262.507 528.362 262.559 527.491C262.611 526.621 263.095 525.9 264.012 525.328C264.92 524.761 265.772 524.635 266.566 524.951C267.358 525.263 268.139 526.021 268.91 527.227L269.78 528.618ZM267.79 527.821C267.222 526.913 266.681 526.332 266.167 526.078C265.651 525.82 265.116 525.864 264.563 526.209C264.014 526.551 263.743 527.008 263.751 527.578C263.758 528.148 264.026 528.864 264.555 529.727L265.629 531.442C266.199 532.354 266.752 532.946 267.289 533.218C267.826 533.484 268.364 533.45 268.901 533.115C269.431 532.784 269.695 532.334 269.694 531.766C269.697 531.195 269.428 530.465 268.889 529.577L267.79 527.821ZM281.202 526.496L280.123 527.169L278.701 524.897C278.307 525.315 277.862 525.678 277.368 525.987C276.583 526.477 275.858 526.65 275.192 526.506C274.531 526.36 273.965 525.919 273.493 525.182L272.321 523.31L273.394 522.641L274.587 524.547C275.192 525.47 275.935 525.656 276.816 525.106C277.311 524.798 277.756 524.434 278.15 524.016L276.199 520.899L277.278 520.226L281.202 526.496ZM285.601 523.912C284.75 524.443 283.884 524.596 283.002 524.373C282.118 524.146 281.384 523.565 280.799 522.63L280.675 522.433C280.286 521.811 280.057 521.183 279.988 520.549C279.921 519.909 280.014 519.319 280.268 518.779C280.523 518.233 280.9 517.805 281.399 517.494C282.214 516.985 283.017 516.858 283.805 517.112C284.593 517.367 285.301 517.995 285.927 518.995L286.206 519.441L281.955 522.094C282.357 522.702 282.85 523.09 283.434 523.258C284.018 523.42 284.578 523.334 285.111 523.001C285.49 522.765 285.763 522.487 285.929 522.168C286.095 521.85 286.197 521.502 286.235 521.124L287.209 521.225C287.189 522.36 286.653 523.256 285.601 523.912ZM281.95 518.375C281.517 518.645 281.252 519.03 281.157 519.53C281.059 520.026 281.153 520.58 281.438 521.191L284.582 519.23L284.531 519.149C284.159 518.624 283.749 518.294 283.3 518.161C282.848 518.023 282.398 518.095 281.95 518.375ZM290.443 512.012L294.367 518.282L293.288 518.955L289.919 513.571L287.785 514.903L289.126 517.33C289.731 518.451 290.032 519.335 290.028 519.982C290.028 520.626 289.717 521.156 289.095 521.571L288.666 521.839L288.075 520.894L288.368 520.679C288.692 520.423 288.815 520.067 288.739 519.61C288.662 519.153 288.338 518.42 287.767 517.412L286.204 514.657L290.443 512.012ZM295.761 516.63C295.645 516.445 295.602 516.257 295.633 516.066C295.668 515.872 295.796 515.706 296.016 515.569C296.236 515.431 296.441 515.39 296.631 515.443C296.824 515.494 296.979 515.613 297.095 515.798C297.206 515.976 297.241 516.161 297.2 516.353C297.163 516.543 297.034 516.706 296.814 516.844C296.594 516.981 296.39 517.025 296.203 516.975C296.02 516.923 295.872 516.808 295.761 516.63Z" fill="black"/>
<path d="M99.5984 622.604L94.8255 623.495L94.1365 622.394L100.46 621.495L100.99 622.341L97.4112 627.627L96.7149 626.514L99.5984 622.604ZM105.044 618.562L102.841 614.087L107.167 611.388L107.787 612.379L104.371 614.51L105.556 616.97C105.817 616.468 106.211 616.054 106.737 615.726C107.506 615.246 108.277 615.119 109.048 615.347C109.817 615.571 110.472 616.116 111.014 616.981C111.558 617.85 111.751 618.683 111.594 619.479C111.438 620.27 110.939 620.928 110.096 621.454C109.349 621.919 108.611 622.092 107.881 621.973C107.15 621.854 106.524 621.45 106.001 620.761L107.016 620.128C107.384 620.57 107.784 620.827 108.218 620.901C108.648 620.971 109.092 620.863 109.548 620.579C110.047 620.267 110.331 619.854 110.4 619.338C110.474 618.819 110.323 618.261 109.948 617.662C109.595 617.098 109.158 616.742 108.636 616.595C108.115 616.442 107.6 616.525 107.089 616.843C106.621 617.135 106.318 617.467 106.18 617.838L106.04 618.247L105.044 618.562ZM117.395 616.739L116.316 617.412L111.844 610.267L110.178 612.41L109.569 611.437L111.921 608.366L112.089 608.261L117.395 616.739ZM128.333 609.914L127.254 610.587L125.832 608.316C125.438 608.734 124.993 609.097 124.499 609.406C123.714 609.895 122.989 610.069 122.324 609.925C121.662 609.779 121.096 609.337 120.624 608.6L119.452 606.729L120.525 606.059L121.718 607.966C122.323 608.889 123.066 609.075 123.947 608.525C124.442 608.216 124.887 607.853 125.281 607.435L123.33 604.317L124.409 603.644L128.333 609.914ZM132.732 607.331C131.881 607.861 131.015 608.015 130.133 607.792C129.249 607.564 128.515 606.983 127.93 606.049L127.806 605.852C127.417 605.23 127.188 604.602 127.119 603.968C127.052 603.328 127.145 602.738 127.399 602.198C127.654 601.652 128.031 601.224 128.53 600.912C129.345 600.403 130.148 600.276 130.936 600.531C131.724 600.786 132.432 601.413 133.058 602.414L133.337 602.86L129.086 605.512C129.488 606.121 129.981 606.509 130.565 606.677C131.15 606.838 131.709 606.752 132.242 606.42C132.621 606.183 132.894 605.906 133.06 605.587C133.226 605.269 133.328 604.92 133.366 604.542L134.34 604.643C134.32 605.779 133.784 606.675 132.732 607.331ZM129.081 601.793C128.648 602.063 128.383 602.448 128.288 602.949C128.19 603.445 128.284 603.999 128.57 604.61L131.713 602.649L131.662 602.568C131.29 602.042 130.88 601.713 130.431 601.579C129.979 601.442 129.529 601.513 129.081 601.793ZM137.574 595.43L141.498 601.7L140.419 602.373L137.05 596.99L134.916 598.322L136.257 600.748C136.862 601.869 137.163 602.753 137.159 603.4C137.159 604.045 136.848 604.575 136.226 604.99L135.797 605.257L135.206 604.313L135.499 604.098C135.823 603.842 135.946 603.486 135.87 603.028C135.793 602.571 135.469 601.839 134.898 600.831L133.335 598.076L137.574 595.43ZM142.892 600.049C142.776 599.864 142.734 599.675 142.764 599.484C142.799 599.291 142.927 599.125 143.147 598.988C143.368 598.85 143.572 598.808 143.762 598.862C143.955 598.913 144.11 599.031 144.226 599.217C144.337 599.395 144.372 599.579 144.331 599.772C144.294 599.961 144.165 600.125 143.945 600.262C143.725 600.4 143.521 600.444 143.334 600.394C143.151 600.342 143.003 600.227 142.892 600.049Z" fill="black"/>
</g>
<defs>
<linearGradient id="paint0_linear" x1="428.178" y1="411.835" x2="540.656" y2="220.173" gradientUnits="userSpaceOnUse">
<stop stop-color="white"/>
<stop offset="1" stop-color="#67C7ED"/>
</linearGradient>
<linearGradient id="paint1_linear" x1="628.349" y1="408.194" x2="544.243" y2="276.537" gradientUnits="userSpaceOnUse">
<stop stop-color="white"/>
<stop offset="1" stop-color="#67C7ED"/>
</linearGradient>
<linearGradient id="paint2_linear" x1="280.489" y1="497.433" x2="363.511" y2="320.562" gradientUnits="userSpaceOnUse">
<stop stop-color="white"/>
<stop offset="0.3168" stop-color="#ADDBF2"/>
<stop offset="1" stop-color="#008FD5"/>
</linearGradient>
<linearGradient id="paint3_linear" x1="487.841" y1="477.488" x2="399.533" y2="337.413" gradientUnits="userSpaceOnUse">
<stop stop-color="white"/>
<stop offset="0.3168" stop-color="#ADDBF2"/>
<stop offset="1" stop-color="#008FD5"/>
</linearGradient>
<linearGradient id="paint4_linear" x1="116.12" y1="548.794" x2="235.962" y2="349.754" gradientUnits="userSpaceOnUse">
<stop stop-color="white"/>
<stop offset="0.3168" stop-color="#ADD2E9"/>
<stop offset="1" stop-color="#0072BB"/>
</linearGradient>
<linearGradient id="paint5_linear" x1="342.867" y1="557.588" x2="230.415" y2="323.859" gradientUnits="userSpaceOnUse">
<stop stop-color="white"/>
<stop offset="0.3168" stop-color="#ADD2E9"/>
<stop offset="1" stop-color="#0072BB"/>
</linearGradient>
<linearGradient id="paint6_linear" x1="5.59291" y1="652.096" x2="71.0358" y2="493.26" gradientUnits="userSpaceOnUse">
<stop stop-color="white"/>
<stop offset="1" stop-color="#FF4C1B"/>
</linearGradient>
<linearGradient id="paint7_linear" x1="171.805" y1="640.367" x2="98.6012" y2="485.622" gradientUnits="userSpaceOnUse">
<stop stop-color="white"/>
<stop offset="1" stop-color="#FF4C1B"/>
</linearGradient>
<clipPath id="clip0">
<rect width="618" height="638" fill="white"/>
</clipPath>
</defs>
</svg>
