<svg width="459" height="384" viewBox="0 0 459 384" fill="none" xmlns="http://www.w3.org/2000/svg">
<g opacity="0.4">
<g opacity="0.4">
<path opacity="0.4" d="M271.933 218.892C248.341 205.258 210.208 205.258 186.769 218.892C186.658 218.956 186.552 219.018 186.445 219.087C171.353 227.994 166.214 240.448 170.992 251.795C173.532 257.834 178.884 263.563 187.039 268.275C210.636 281.911 248.774 281.911 272.218 268.275C295.657 254.639 295.529 232.529 271.933 218.892Z" fill="white"/>
<path opacity="0.4" d="M282.92 212.502C253.263 195.365 205.177 195.365 175.712 212.502C174.922 212.963 174.149 213.428 173.406 213.901L174.911 214.501C175.584 214.075 176.278 213.655 176.993 213.24C205.749 196.514 252.704 196.512 281.648 213.24C310.6 229.97 310.753 257.195 281.997 273.921C253.232 290.654 206.279 290.654 177.327 273.921C166.708 267.785 159.958 260.233 157.1 252.305L155.279 252.37C158.18 260.548 165.112 268.337 176.053 274.659C205.712 291.799 253.808 291.799 283.275 274.659C312.739 257.526 312.578 229.642 282.92 212.502Z" fill="white"/>
<path opacity="0.4" d="M293.625 206.273C258.033 185.705 200.295 185.705 164.934 206.273C163.483 207.118 162.089 207.987 160.757 208.873L164.767 210.465C165.917 209.712 167.112 208.972 168.353 208.249C201.842 188.77 256.523 188.768 290.231 208.249C323.947 227.734 324.124 259.436 290.636 278.917C257.139 298.402 202.459 298.402 168.744 278.917C155.936 271.516 147.974 262.352 144.854 252.762L140.01 252.94C143.229 263.185 151.674 272.992 165.347 280.893C200.946 301.465 258.685 301.465 294.053 280.893C329.414 260.323 329.226 226.848 293.625 206.273Z" fill="white"/>
<path opacity="0.4" d="M315.532 193.531C267.778 165.934 190.326 165.934 142.884 193.531C95.4331 221.133 95.685 266.039 143.439 293.636C163.536 305.251 188.891 311.978 215.054 313.813L214.802 307.816C191.352 305.989 168.696 299.863 150.656 289.438C106.909 264.158 106.678 223.015 150.148 197.729C193.609 172.446 264.569 172.446 308.318 197.729C336.663 214.11 346.743 237.139 338.515 258.204L348.216 260.235C357.695 237.055 346.781 211.588 315.532 193.531Z" fill="white"/>
<path opacity="0.4" d="M135.59 298.205C83.4733 268.087 83.1946 219.082 134.973 188.964C186.751 158.845 271.277 158.845 323.394 188.964C375.511 219.082 375.784 268.087 324.005 298.208C272.227 328.324 187.709 328.324 135.59 298.205ZM325.091 187.976C299.389 173.122 265.281 164.942 229.048 164.942C192.816 164.942 158.801 173.124 133.265 187.978C107.73 202.832 93.7291 222.581 93.8509 243.586C93.9686 264.592 108.187 284.344 133.889 299.197C159.591 314.051 193.704 322.229 229.934 322.229C266.159 322.229 300.178 314.049 325.713 299.195C351.248 284.342 365.245 264.59 365.13 243.586C365.016 222.577 350.794 202.83 325.091 187.976Z" fill="white"/>
<path opacity="0.4" d="M402.225 208.255L398.074 208.97C416.548 239.113 410.358 273.212 379.45 300.599L382.919 302.031C402.444 284.834 412.867 264.677 412.743 243.58C412.674 231.361 409.069 219.454 402.225 208.255ZM352.148 164.872C318.277 147.073 274.842 137.335 228.893 137.335C179.945 137.335 133.985 148.386 99.487 168.452C64.9825 188.524 46.0733 215.205 46.2364 243.584C46.3913 271.964 65.604 298.646 100.327 318.712C135.059 338.782 181.139 349.835 230.086 349.831C259.396 349.835 287.625 345.871 312.973 338.381L310.86 336.209C243.805 355.886 159.522 349.477 103.299 316.986C33.2634 276.513 32.8938 210.658 102.477 170.183C169.943 130.938 278.78 129.746 349.17 166.606L352.148 164.872Z" fill="white"/>
<path opacity="0.4" d="M377.718 157.359C357.582 145.724 334.116 136.71 307.995 130.576C282.767 124.653 256.123 121.648 228.806 121.648C201.489 121.648 174.883 124.651 149.717 130.576C123.664 136.71 100.299 145.724 80.2952 157.359C60.2834 169.001 44.8223 182.571 34.3229 197.7C24.1849 212.31 19.089 227.748 19.1819 243.584C19.2707 259.421 24.5359 274.862 34.8391 289.467C35.5081 290.416 36.1957 291.358 36.9018 292.295L40.9674 291.517C7.78641 247.767 21.8413 194.833 83.2871 159.091C163.378 112.503 294.132 112.503 374.747 159.089C455.366 205.68 455.792 281.488 375.701 328.076C325.863 357.066 256.408 368.022 191.626 360.931L190.598 363.366C203.571 364.798 216.796 365.523 230.179 365.519C257.492 365.521 284.103 362.516 309.271 356.593C335.326 350.457 358.681 341.446 378.693 329.804C398.696 318.168 414.17 304.594 424.665 289.467C434.801 274.855 439.891 259.419 439.802 243.582C439.717 227.746 434.448 212.308 424.145 197.698C413.482 182.576 397.86 168.999 377.718 157.359Z" fill="white"/>
<path opacity="0.4" d="M391.232 149.497C369.259 136.799 343.66 126.962 315.153 120.272C299.254 116.537 282.833 113.869 266.051 112.28L266.354 113.079C311.75 117.436 355.348 129.742 390.385 149.989C479.687 201.596 480.158 285.569 391.447 337.172C302.725 388.78 157.894 388.78 68.592 337.174C-20.7013 285.572 -21.1742 201.6 67.5472 149.991C78.1891 143.802 89.6486 138.354 101.717 133.652L101.432 132.889C89.023 137.713 77.4148 143.262 66.6924 149.497C44.8533 162.2 27.9716 177.01 16.5245 193.517C5.46145 209.458 -0.0928054 226.304 0.00217431 243.584C0.0992188 260.862 5.84962 277.708 17.0882 293.65C28.7232 310.155 45.77 324.966 67.7434 337.666C89.725 350.368 115.322 360.201 143.83 366.896C171.364 373.358 200.436 376.636 230.239 376.638C260.044 376.636 289.079 373.358 316.539 366.894C344.969 360.201 370.458 350.366 392.297 337.664C414.128 324.966 431.008 310.153 442.457 293.648C453.516 277.706 459.079 260.86 458.981 243.582C458.88 226.302 453.136 209.454 441.895 193.515C430.258 177.008 413.214 162.2 391.232 149.497Z" fill="white"/>
</g>
</g>
<path opacity="0.1" d="M274.93 226.312C294.962 226.312 311.202 220.51 311.202 213.353C311.202 206.196 294.962 200.395 274.93 200.395C254.897 200.395 238.658 206.196 238.658 213.353C238.658 220.51 254.897 226.312 274.93 226.312Z" fill="black"/>
<path d="M273.844 190.508L274.93 197.181C274.93 197.181 275.008 200.17 266.712 200.829C266.712 200.829 263.689 201.373 262.525 202.111C261.362 202.848 255.081 204.595 253.26 202.538C251.439 200.482 256.167 198.076 257.485 197.649C258.802 197.221 266.361 193.381 266.361 190.896L273.844 190.508Z" fill="#3D3D3D"/>
<path d="M256.931 101.766C254.331 104.368 252.475 118.616 258.291 153.683C264.11 188.747 265.966 191.845 265.966 191.845C265.966 191.845 271.165 193.207 274.508 190.605C274.508 190.605 275.251 166.443 272.404 155.789C272.404 155.789 274.931 117.998 274.595 108.332L256.931 101.766Z" fill="#223066"/>
<path d="M295.319 204.807C295.816 207.302 296.869 210.518 295.651 213.68C294.433 216.84 292.992 220.002 292.55 222.939C292.106 225.878 289.835 230.036 283.963 229.205C278.09 228.374 280.915 222.496 283.021 217.95C285.127 213.403 286.234 206.527 286.122 204.254L295.319 204.807Z" fill="#3D3D3D"/>
<path d="M288.64 105.495C290.116 105.009 294.551 120.96 293.541 154.501C293.541 154.501 297.365 168.993 296.68 174.189C295.994 179.385 295.637 200.742 296.68 205.649C296.68 205.649 292.1 209.979 285.757 205.649C285.757 205.649 278.26 169.28 275.954 162.21C273.647 155.138 262.27 119.203 265.074 106.648C265.074 106.65 282.063 107.659 288.64 105.495Z" fill="#223066"/>
<path d="M283.389 45.7597L289.013 48.5085C289.013 48.5085 291.906 52.396 302.164 56.6514C302.164 56.6514 306.326 60.4232 301.098 69.5293C295.872 78.6353 291.334 90.455 289.876 97.6245C288.419 104.794 291.817 106.15 289.876 108.086C287.935 110.023 260.544 116.709 254.158 100.628C254.158 100.628 254.255 98.011 255.706 95.3966C257.158 92.7801 255.997 49.8271 262.869 43.354C262.871 43.3561 272.258 41.3637 283.389 45.7597Z" fill="white"/>
<path d="M302.166 56.6533C305.918 58.5547 317.443 73.7184 318.083 76.9962C318.083 76.9962 318.296 67.6794 320.536 61.382C320.536 61.382 323.6 63.8373 326.493 63.3041C326.493 63.3041 328.961 87.4291 320.429 89.2437C311.897 91.0583 296.888 74.0925 295.243 68.1402C293.88 63.2007 298.453 54.7726 302.166 56.6533Z" fill="white"/>
<path d="M262.871 43.3557C258.998 43.9096 237.607 57.0024 237.607 57.0024C237.607 57.0024 232.55 48.4689 225.247 40.9459C225.247 40.9459 223.682 44.7343 219.422 44.9947C219.422 44.9947 227.072 68.2269 235.156 68.138C243.24 68.0512 261.321 62.9898 263.668 56.3411C266.014 49.6924 265.203 43.023 262.871 43.3557Z" fill="white"/>
<path d="M225.245 40.9463C225.245 40.9463 225.579 35.0231 224.543 32.9501C223.508 30.8772 221.107 27.8102 220.194 28.3909C219.284 28.9717 221.063 33.1981 221.063 33.1981C221.063 33.1981 218.456 30.5052 218.041 29.385C217.626 28.2669 216.302 24.7845 215.018 25.1999C213.733 25.6153 210.009 31.4166 211.25 34.7317C212.493 38.0467 216.696 44.3151 219.418 44.9951C219.422 44.9951 223.71 45.1294 225.245 40.9463Z" fill="#FAC2B0"/>
<path d="M321.638 53.5612C321.638 53.5612 323.505 68.1399 329.181 76.5516C329.181 76.5516 346.302 72.1267 354.664 73.5052C354.664 73.5052 346.3 57.1573 346.944 51.666C347.586 46.1726 351.6 30.9345 351.6 30.9345C351.6 30.9345 334.826 24.4057 323.505 27.7166C323.505 27.7145 318.824 40.5263 321.638 53.5612Z" fill="#F2F2F2"/>
<path d="M284.603 21.957C275.082 20.5227 271.207 24.3193 270.364 26.0905C269.522 27.8617 269.691 43.5482 272.892 45.1499C272.892 45.1499 287.13 47.9338 288.733 35.7876C290.333 23.6435 284.603 21.957 284.603 21.957Z" fill="#FAC2B0"/>
<path d="M287.406 37.2487C287.406 37.2487 284.032 35.1779 283.896 29.9966C283.896 29.9966 273.231 30.7179 268.282 24.4577C268.282 24.4577 277.371 14.2336 288.486 20.4503C299.601 26.665 290.801 42.7401 288.036 41.6178L287.406 37.2487Z" fill="#52260F"/>
<path d="M288.288 45.7597L288.036 41.618L287.85 35.6968L272.254 38.2471C272.254 38.2471 276.277 47.6405 275.517 50.5918C275.517 50.5918 281.887 53.14 288.288 45.7597Z" fill="#FAC2B0"/>
<path d="M288.288 45.7599C288.288 45.7599 290.016 46.8491 289.87 49.0439C289.87 49.0439 284.9 55.6286 279.734 56.6537C279.734 56.6537 279.632 52.6917 278.123 51.0156C278.123 51.0135 283.05 50.3294 288.288 45.7599Z" fill="#F4F5F5"/>
<path d="M275.518 50.5918C275.518 50.5918 273.042 51.9001 272.582 53.5617C272.582 53.5617 271.479 48.6367 275.142 46.5989C275.142 46.5989 275.78 48.8661 275.518 50.5918Z" fill="#F4F5F5"/>
<path d="M278.123 51.0135L275.515 50.5898C275.515 50.5898 273.49 51.4393 272.903 52.8488L273.32 55.3351L276.769 56.3416L279.604 55.1863C279.606 55.1884 279.475 52.5532 278.123 51.0135Z" fill="#BA202A"/>
<path d="M276.772 56.3435C276.772 56.3435 270.296 73.4603 271.589 95.2726L268.283 98.66L265.32 93.7805C265.32 93.7805 268.985 67.9938 273.323 55.3391L276.772 56.3435Z" fill="#C9202C"/>
<path d="M285.962 36.914C285.962 36.914 288.789 32.7516 291.052 35.8661C292.58 37.9701 288.388 41.5311 285.202 40.8656L285.962 36.914Z" fill="#FAC2B0"/>
<path d="M320.536 61.3822C320.536 61.3822 318.82 54.7583 319.758 53.1174C320.695 51.4764 325.789 47.4917 327.253 48.7793C328.717 50.0689 323.974 53.293 323.856 54.1135C323.738 54.934 323.573 63.0273 323.573 63.0273C323.573 63.0273 322.192 63.0232 320.536 61.3822Z" fill="#FAC2B0"/>
<path opacity="0.1" d="M425.178 264.884L412.234 257.404C411.185 256.799 409.653 256.565 408.23 256.795L403.82 257.508L401.435 257.894L401.01 257.962C399.672 258.177 398.237 257.96 397.25 257.39L362.406 237.111L361.737 236.725C361 236.299 359.809 236.299 359.078 236.725L323.151 257.623C322.368 258.078 322.373 258.824 323.161 259.281L379.047 291.721C379.835 292.175 381.122 292.175 381.904 291.721L425.19 266.541C425.969 266.087 425.964 265.341 425.178 264.884Z" fill="black"/>
<path d="M379.897 240.48L367.072 233.068C366.323 232.634 365.096 232.634 364.351 233.068L323.121 257.051C322.376 257.485 322.38 258.196 323.13 258.628L377.369 289.974C378.119 290.408 379.345 290.408 380.091 289.974C379.345 290.408 378.119 290.408 377.369 289.974L323.13 258.628C322.38 258.194 322.376 257.483 323.121 257.051L357.343 237.144C358.041 236.739 359.175 236.739 359.877 237.144L360.512 237.512L362.086 236.596L398.696 257.753L400.968 257.385L380.925 245.801C380.051 245.297 379.684 244.565 379.954 243.869L380.671 242.019C380.89 241.467 380.597 240.885 379.897 240.48Z" fill="#D7A851"/>
<path d="M398.699 257.755L362.088 236.598L360.515 237.513L394.712 257.276C395.651 257.819 397.02 258.026 398.294 257.821L398.699 257.755Z" fill="white"/>
<path d="M421.314 265.161L408.986 258.037C407.986 257.458 406.529 257.237 405.172 257.456L400.97 258.136L398.699 258.504L398.294 258.57C397.02 258.774 395.651 258.568 394.712 258.024L360.515 238.262L359.879 237.894C359.177 237.489 358.041 237.489 357.346 237.894L323.124 257.801C322.378 258.235 322.383 258.946 323.132 259.378L377.372 290.724C378.121 291.158 379.348 291.158 380.093 290.724L421.323 266.742C422.068 266.304 422.064 265.595 421.314 265.161Z" fill="#D7A851"/>
<path d="M421.314 264.415L408.986 257.291C407.986 256.712 406.529 256.491 405.172 256.71L400.97 257.39L398.699 257.758L398.294 257.824C397.02 258.029 395.651 257.822 394.712 257.278L360.515 237.516L359.879 237.148C359.177 236.743 358.041 236.743 357.346 237.148L323.124 257.055C322.378 257.489 322.383 258.2 323.132 258.632L377.372 289.978C378.121 290.412 379.348 290.412 380.093 289.978L421.323 265.996C422.068 265.56 422.064 264.849 421.314 264.415Z" fill="#FDC561"/>
<path d="M379.897 238.803L367.072 231.392C366.323 230.958 365.096 230.958 364.351 231.392L323.121 255.374C322.376 255.808 322.38 256.519 323.13 256.951L377.369 288.297C378.119 288.731 379.345 288.731 380.091 288.297C379.345 288.731 378.119 288.731 377.369 288.297L323.13 256.951C322.38 256.517 322.376 255.806 323.121 255.374L357.343 235.467C358.041 235.062 359.175 235.062 359.877 235.467L360.512 235.835L362.086 234.92L398.696 256.077L400.968 255.709L380.925 244.125C380.051 243.621 379.684 242.889 379.954 242.193L380.671 240.343C380.89 239.791 380.597 239.208 379.897 238.803Z" fill="#D7A851"/>
<path d="M398.699 256.079L362.088 234.922L360.515 235.838L394.712 255.6C395.651 256.143 397.02 256.35 398.294 256.145L398.699 256.079Z" fill="white"/>
<path d="M421.314 263.484L408.986 256.36C407.986 255.781 406.529 255.56 405.172 255.779L400.97 256.459L398.699 256.827L398.294 256.893C397.02 257.098 395.651 256.891 394.712 256.347L360.515 236.585L359.879 236.217C359.177 235.812 358.041 235.812 357.346 236.217L323.124 256.124C322.378 256.558 322.383 257.269 323.132 257.701L377.372 289.048C378.121 289.482 379.348 289.482 380.093 289.048L421.323 265.065C422.068 264.627 422.064 263.918 421.314 263.484Z" fill="#D7A851"/>
<path d="M421.314 262.738L408.986 255.614C407.986 255.035 406.529 254.814 405.172 255.033L400.97 255.713L398.699 256.081L398.294 256.147C397.02 256.352 395.651 256.145 394.712 255.601L360.515 235.839L359.879 235.471C359.177 235.066 358.041 235.066 357.346 235.471L323.124 255.378C322.378 255.812 322.383 256.523 323.132 256.955L377.372 288.301C378.121 288.735 379.348 288.735 380.093 288.301L421.323 264.319C422.068 263.883 422.064 263.172 421.314 262.738Z" fill="#FDC561"/>
<path d="M379.897 237.127L367.072 229.716C366.323 229.282 365.096 229.282 364.351 229.716L323.121 253.698C322.376 254.132 322.38 254.843 323.13 255.275L377.369 286.621C378.119 287.055 379.345 287.055 380.091 286.621C379.345 287.055 378.119 287.055 377.369 286.621L323.13 255.275C322.38 254.841 322.376 254.13 323.121 253.698L357.343 233.791C358.041 233.386 359.175 233.386 359.877 233.791L360.512 234.159L362.086 233.243L398.696 254.401L400.968 254.033L380.925 242.449C380.051 241.944 379.684 241.213 379.954 240.516L380.671 238.667C380.89 238.115 380.597 237.532 379.897 237.127Z" fill="#D7A851"/>
<path d="M398.699 254.403L362.088 233.246L360.515 234.161L394.712 253.923C395.651 254.467 397.02 254.674 398.294 254.469L398.699 254.403Z" fill="white"/>
<path d="M421.314 261.808L408.986 254.684C407.986 254.105 406.529 253.884 405.172 254.103L400.97 254.783L398.699 255.151L398.294 255.217C397.02 255.421 395.651 255.215 394.712 254.671L360.515 234.909L359.879 234.541C359.177 234.136 358.041 234.136 357.346 234.541L323.124 254.448C322.378 254.882 322.383 255.593 323.132 256.025L377.372 287.371C378.121 287.805 379.348 287.805 380.093 287.371L421.323 263.389C422.068 262.953 422.064 262.242 421.314 261.808Z" fill="#D7A851"/>
<path d="M421.314 261.062L408.985 253.938C407.986 253.359 406.528 253.138 405.171 253.357L400.97 254.037L398.698 254.405L398.294 254.471C397.02 254.675 395.651 254.469 394.711 253.925L360.512 234.161L359.876 233.793C359.174 233.388 358.039 233.388 357.343 233.793L323.121 253.7C322.376 254.134 322.38 254.845 323.13 255.277L377.369 286.623C378.119 287.057 379.345 287.057 380.091 286.623L421.32 262.641C422.068 262.207 422.063 261.496 421.314 261.062Z" fill="#FDC561"/>
<path d="M379.897 235.451L367.072 228.039C366.323 227.605 365.096 227.605 364.351 228.039L323.121 252.022C322.376 252.456 322.38 253.167 323.13 253.599L377.369 284.945C378.119 285.379 379.345 285.379 380.091 284.945C379.345 285.379 378.119 285.379 377.369 284.945L323.13 253.599C322.38 253.165 322.376 252.454 323.121 252.022L357.343 232.115C358.041 231.71 359.175 231.71 359.877 232.115L360.512 232.483L362.086 231.567L398.696 252.724L400.968 252.357L380.925 240.773C380.051 240.268 379.684 239.537 379.954 238.84L380.671 236.99C380.89 236.439 380.597 235.856 379.897 235.451Z" fill="#D7A851"/>
<path d="M398.699 252.727L362.088 231.57L360.515 232.485L394.712 252.247C395.651 252.791 397.02 252.998 398.294 252.793L398.699 252.727Z" fill="white"/>
<path d="M421.314 260.131L408.986 253.007C407.986 252.429 406.529 252.208 405.172 252.427L400.97 253.107L398.699 253.474L398.294 253.541C397.02 253.745 395.651 253.539 394.712 252.995L360.515 233.233L359.879 232.865C359.177 232.46 358.041 232.46 357.346 232.865L323.124 252.772C322.378 253.206 322.383 253.917 323.132 254.349L377.372 285.695C378.121 286.129 379.348 286.129 380.093 285.695L421.323 261.712C422.068 261.276 422.064 260.565 421.314 260.131Z" fill="#D7A851"/>
<path d="M421.314 259.385L408.986 252.261C407.986 251.683 406.529 251.461 405.172 251.681L400.97 252.361L398.699 252.728L398.294 252.795C397.02 252.999 395.651 252.792 394.712 252.249L360.515 232.487L359.879 232.119C359.177 231.714 358.041 231.714 357.346 232.119L323.124 252.026C322.378 252.46 322.383 253.171 323.132 253.603L377.372 284.949C378.121 285.383 379.348 285.383 380.093 284.949L421.323 260.966C422.068 260.53 422.064 259.819 421.314 259.385Z" fill="#FDC561"/>
<path d="M379.897 233.774L367.072 226.363C366.323 225.929 365.096 225.929 364.351 226.363L323.121 250.345C322.376 250.779 322.38 251.49 323.13 251.922L377.369 283.268C378.119 283.702 379.345 283.702 380.091 283.268C379.345 283.702 378.119 283.702 377.369 283.268L323.13 251.922C322.38 251.488 322.376 250.777 323.121 250.345L357.343 230.438C358.041 230.033 359.175 230.033 359.877 230.438L360.512 230.806L362.086 229.891L398.696 251.048L400.968 250.68L380.925 239.096C380.051 238.592 379.684 237.86 379.954 237.164L380.671 235.314C380.89 234.762 380.597 234.179 379.897 233.774Z" fill="#D7A851"/>
<path d="M398.699 251.05L362.088 229.893L360.515 230.809L394.712 250.571C395.651 251.114 397.02 251.321 398.294 251.116L398.699 251.05Z" fill="white"/>
<path d="M421.314 258.455L408.986 251.331C407.986 250.752 406.529 250.531 405.172 250.75L400.97 251.43L398.699 251.798L398.294 251.864C397.02 252.069 395.651 251.862 394.712 251.318L360.515 231.556L359.879 231.188C359.177 230.783 358.041 230.783 357.346 231.188L323.124 251.095C322.378 251.529 322.383 252.24 323.132 252.672L377.372 284.018C378.121 284.452 379.348 284.452 380.093 284.018L421.323 260.036C422.068 259.6 422.064 258.889 421.314 258.455Z" fill="#D7A851"/>
<path d="M421.314 257.71L408.986 250.585C407.986 250.007 406.529 249.786 405.172 250.005L400.97 250.685L398.699 251.053L398.294 251.119C397.02 251.323 395.651 251.117 394.712 250.573L360.515 230.811L359.879 230.443C359.177 230.038 358.041 230.038 357.346 230.443L323.124 250.35C322.378 250.784 322.383 251.495 323.132 251.927L377.372 283.273C378.121 283.707 379.348 283.707 380.093 283.273L421.323 259.291C422.068 258.854 422.064 258.144 421.314 257.71Z" fill="#FDC561"/>
<path d="M379.897 232.099L367.072 224.687C366.323 224.253 365.096 224.253 364.351 224.687L323.121 248.67C322.376 249.104 322.38 249.815 323.13 250.247L377.369 281.593C378.119 282.027 379.345 282.027 380.091 281.593C379.345 282.027 378.119 282.027 377.369 281.593L323.13 250.247C322.38 249.813 322.376 249.102 323.121 248.67L357.343 228.763C358.041 228.358 359.175 228.358 359.877 228.763L360.512 229.131L362.086 228.215L398.696 249.372L400.968 249.005L380.925 237.42C380.051 236.916 379.684 236.185 379.954 235.488L380.671 233.638C380.89 233.087 380.597 232.504 379.897 232.099Z" fill="#D7A851"/>
<path d="M398.699 249.375L362.088 228.218L360.515 229.133L394.712 248.895C395.651 249.439 397.02 249.645 398.294 249.441L398.699 249.375Z" fill="white"/>
<path d="M421.314 256.779L408.986 249.655C407.986 249.077 406.529 248.856 405.172 249.075L400.97 249.755L398.699 250.122L398.294 250.189C397.02 250.393 395.651 250.186 394.712 249.643L360.515 229.881L359.879 229.513C359.177 229.108 358.041 229.108 357.346 229.513L323.124 249.42C322.378 249.854 322.383 250.565 323.132 250.997L377.372 282.343C378.121 282.777 379.348 282.777 380.093 282.343L421.323 258.36C422.068 257.924 422.064 257.213 421.314 256.779Z" fill="#D7A851"/>
<path d="M421.314 256.034L408.986 248.91C407.986 248.331 406.529 248.11 405.172 248.329L400.97 249.009L398.699 249.377L398.294 249.443C397.02 249.648 395.651 249.441 394.712 248.898L360.515 229.135L359.879 228.767C359.177 228.362 358.041 228.362 357.346 228.767L323.124 248.674C322.378 249.108 322.383 249.819 323.132 250.251L377.372 281.598C378.121 282.032 379.348 282.032 380.093 281.598L421.323 257.615C422.068 257.179 422.064 256.468 421.314 256.034Z" fill="#FDC561"/>
<path d="M379.897 230.422L367.072 223.011C366.323 222.577 365.096 222.577 364.351 223.011L323.121 246.994C322.376 247.428 322.38 248.139 323.13 248.57L377.369 279.917C378.119 280.351 379.345 280.351 380.091 279.917C379.345 280.351 378.119 280.351 377.369 279.917L323.13 248.57C322.38 248.136 322.376 247.426 323.121 246.994L357.343 227.087C358.041 226.682 359.175 226.682 359.877 227.087L360.512 227.455L362.086 226.539L398.696 247.696L400.968 247.328L380.925 235.744C380.051 235.24 379.684 234.508 379.954 233.812L380.671 231.962C380.89 231.41 380.597 230.828 379.897 230.422Z" fill="#D7A851"/>
<path d="M398.699 247.699L362.088 226.541L360.515 227.457L394.712 247.219C395.651 247.763 397.02 247.969 398.294 247.765L398.699 247.699Z" fill="white"/>
<path d="M421.314 255.103L408.986 247.979C407.986 247.401 406.529 247.179 405.172 247.398L400.97 248.078L398.699 248.446L398.294 248.512C397.02 248.717 395.651 248.51 394.712 247.967L360.515 228.205L359.879 227.837C359.177 227.432 358.041 227.432 357.346 227.837L323.124 247.744C322.378 248.178 322.383 248.889 323.132 249.32L377.372 280.667C378.121 281.101 379.348 281.101 380.093 280.667L421.323 256.684C422.068 256.248 422.064 255.537 421.314 255.103Z" fill="#D7A851"/>
<path d="M421.314 254.357L408.986 247.233C407.986 246.654 406.529 246.433 405.172 246.652L400.97 247.332L398.699 247.7L398.294 247.766C397.02 247.971 395.651 247.764 394.712 247.221L360.515 227.459L359.879 227.091C359.177 226.686 358.041 226.686 357.346 227.091L323.124 246.997C322.378 247.431 322.383 248.142 323.132 248.574L377.372 279.921C378.121 280.355 379.348 280.355 380.093 279.921L421.323 255.938C422.068 255.502 422.064 254.791 421.314 254.357Z" fill="#FDC561"/>
<path d="M379.897 228.746L367.072 221.335C366.323 220.901 365.096 220.901 364.351 221.335L323.121 245.317C322.376 245.751 322.38 246.462 323.13 246.894L377.369 278.24C378.119 278.674 379.345 278.674 380.091 278.24C379.345 278.674 378.119 278.674 377.369 278.24L323.13 246.894C322.38 246.46 322.376 245.749 323.121 245.317L357.343 225.41C358.041 225.005 359.175 225.005 359.877 225.41L360.512 225.778L362.086 224.862L398.696 246.02L400.968 245.652L380.925 234.068C380.051 233.563 379.684 232.832 379.954 232.135L380.671 230.286C380.89 229.734 380.597 229.151 379.897 228.746Z" fill="#D7A851"/>
<path d="M398.699 246.021L362.088 224.864L360.515 225.78L394.712 245.542C395.651 246.086 397.02 246.292 398.294 246.088L398.699 246.021Z" fill="white"/>
<path d="M421.314 253.427L408.986 246.303C407.986 245.724 406.529 245.503 405.172 245.722L400.97 246.402L398.699 246.77L398.294 246.836C397.02 247.041 395.651 246.834 394.712 246.291L360.515 226.528L359.879 226.161C359.177 225.755 358.041 225.755 357.346 226.161L323.124 246.067C322.378 246.501 322.383 247.212 323.132 247.644L377.372 278.991C378.121 279.425 379.348 279.425 380.093 278.991L421.323 255.008C422.068 254.572 422.064 253.861 421.314 253.427Z" fill="#D7A851"/>
<path d="M421.314 252.681L408.986 245.557C407.986 244.978 406.529 244.757 405.172 244.976L400.97 245.656L398.699 246.024L398.294 246.09C397.02 246.294 395.651 246.088 394.712 245.544L360.515 225.782L359.879 225.414C359.177 225.009 358.041 225.009 357.346 225.414L323.124 245.321C322.378 245.755 322.383 246.466 323.132 246.898L377.372 278.244C378.121 278.678 379.348 278.678 380.093 278.244L421.323 254.262C422.068 253.826 422.064 253.115 421.314 252.681Z" fill="#FDC561"/>
<path d="M379.897 227.07L367.072 219.659C366.323 219.225 365.096 219.225 364.351 219.659L323.121 243.641C322.376 244.075 322.38 244.786 323.13 245.218L377.369 276.565C378.119 276.999 379.345 276.999 380.091 276.565C379.345 276.999 378.119 276.999 377.369 276.565L323.13 245.218C322.38 244.784 322.376 244.073 323.121 243.641L357.343 223.735C358.041 223.33 359.175 223.33 359.877 223.735L360.512 224.102L362.086 223.187L398.696 244.344L400.968 243.976L380.925 232.392C380.051 231.888 379.684 231.156 379.954 230.46L380.671 228.61C380.89 228.058 380.597 227.475 379.897 227.07Z" fill="#D7A851"/>
<path d="M398.699 244.348L362.088 223.191L360.515 224.107L394.712 243.869C395.651 244.412 397.02 244.619 398.294 244.414L398.699 244.348Z" fill="white"/>
<path d="M421.314 251.751L408.986 244.627C407.986 244.049 406.529 243.828 405.172 244.047L400.97 244.727L398.699 245.094L398.294 245.161C397.02 245.365 395.651 245.159 394.712 244.615L360.515 224.853L359.879 224.485C359.177 224.08 358.041 224.08 357.346 224.485L323.124 244.392C322.378 244.826 322.383 245.537 323.132 245.969L377.372 277.315C378.121 277.749 379.348 277.749 380.093 277.315L421.323 253.332C422.068 252.896 422.064 252.185 421.314 251.751Z" fill="#D7A851"/>
<path d="M421.314 251.006L408.986 243.882C407.986 243.303 406.529 243.082 405.172 243.301L400.97 243.981L398.699 244.349L398.294 244.415C397.02 244.619 395.651 244.413 394.712 243.869L360.515 224.107L359.879 223.739C359.177 223.334 358.041 223.334 357.346 223.739L323.124 243.646C322.378 244.08 322.383 244.791 323.132 245.223L377.372 276.569C378.121 277.003 379.348 277.003 380.093 276.569L421.323 252.587C422.068 252.151 422.064 251.44 421.314 251.006Z" fill="#FDC561"/>
<path d="M379.897 225.396L367.072 217.984C366.323 217.55 365.096 217.55 364.351 217.984L323.121 241.967C322.376 242.401 322.38 243.112 323.13 243.544L377.369 274.89C378.119 275.324 379.345 275.324 380.091 274.89C379.345 275.324 378.119 275.324 377.369 274.89L323.13 243.544C322.38 243.11 322.376 242.399 323.121 241.967L357.343 222.06C358.041 221.655 359.175 221.655 359.877 222.06L360.512 222.428L362.086 221.512L398.696 242.67L400.968 242.302L380.925 230.718C380.051 230.213 379.684 229.482 379.954 228.785L380.671 226.935C380.89 226.382 380.597 225.799 379.897 225.396Z" fill="#D7A851"/>
<path d="M398.699 242.671L362.088 221.514L360.515 222.43L394.712 242.192C395.651 242.735 397.02 242.942 398.294 242.737L398.699 242.671Z" fill="white"/>
<path d="M421.314 250.075L408.986 242.951C407.986 242.372 406.529 242.151 405.172 242.37L400.97 243.05L398.699 243.418L398.294 243.484C397.02 243.689 395.651 243.482 394.712 242.938L360.515 223.176L359.879 222.808C359.177 222.403 358.041 222.403 357.346 222.808L323.124 242.715C322.378 243.149 322.383 243.86 323.132 244.292L377.372 275.638C378.121 276.072 379.348 276.072 380.093 275.638L421.323 251.656C422.068 251.22 422.064 250.509 421.314 250.075Z" fill="#D7A851"/>
<path d="M421.314 249.329L408.986 242.205C407.986 241.626 406.529 241.405 405.172 241.624L400.97 242.304L398.699 242.672L398.294 242.738C397.02 242.942 395.651 242.736 394.712 242.192L360.515 222.43L359.879 222.062C359.177 221.657 358.041 221.657 357.346 222.062L323.124 241.969C322.378 242.403 322.383 243.114 323.132 243.546L377.372 274.892C378.121 275.326 379.348 275.326 380.093 274.892L421.323 250.91C422.068 250.474 422.064 249.763 421.314 249.329Z" fill="#FDC561"/>
<path d="M379.897 223.72L367.072 216.309C366.323 215.875 365.096 215.875 364.351 216.309L323.121 240.291C322.376 240.725 322.38 241.436 323.13 241.868L377.369 273.214C378.119 273.648 379.345 273.648 380.091 273.214C379.345 273.648 378.119 273.648 377.369 273.214L323.13 241.868C322.38 241.434 322.376 240.723 323.121 240.291L357.343 220.384C358.041 219.979 359.175 219.979 359.877 220.384L360.512 220.752L362.086 219.837L398.696 240.994L400.968 240.626L380.925 229.042C380.051 228.538 379.684 227.806 379.954 227.11L380.671 225.26C380.89 224.706 380.597 224.123 379.897 223.72Z" fill="#D7A851"/>
<path d="M398.699 240.996L362.088 219.839L360.515 220.755L394.712 240.517C395.651 241.06 397.02 241.267 398.294 241.062L398.699 240.996Z" fill="white"/>
<path d="M421.314 248.399L408.986 241.275C407.986 240.696 406.529 240.475 405.172 240.694L400.97 241.374L398.699 241.742L398.294 241.808C397.02 242.013 395.651 241.806 394.712 241.263L360.515 221.501L359.879 221.133C359.177 220.728 358.041 220.728 357.346 221.133L323.124 241.039C322.378 241.473 322.383 242.184 323.132 242.616L377.372 273.963C378.121 274.397 379.348 274.397 380.093 273.963L421.323 249.98C422.068 249.544 422.064 248.833 421.314 248.399Z" fill="#D7A851"/>
<path d="M421.314 247.653L408.986 240.529C407.986 239.95 406.529 239.729 405.172 239.948L400.97 240.628L398.699 240.996L398.294 241.062C397.02 241.267 395.651 241.06 394.712 240.516L360.515 220.754L359.879 220.386C359.177 219.981 358.041 219.981 357.346 220.386L323.124 240.293C322.378 240.727 322.383 241.438 323.132 241.87L377.372 273.216C378.121 273.65 379.348 273.65 380.093 273.216L421.323 249.234C422.068 248.798 422.064 248.087 421.314 247.653Z" fill="#FDC561"/>
<path d="M379.897 222.044L367.072 214.633C366.323 214.199 365.096 214.199 364.351 214.633L323.121 238.615C322.376 239.049 322.38 239.76 323.13 240.192L377.369 271.538C378.119 271.972 379.345 271.972 380.091 271.538C379.345 271.972 378.119 271.972 377.369 271.538L323.13 240.192C322.38 239.758 322.376 239.047 323.121 238.615L357.343 218.708C358.041 218.303 359.175 218.303 359.877 218.708L360.512 219.076L362.086 218.16L398.696 239.318L400.968 238.95L380.925 227.366C380.051 226.861 379.684 226.13 379.954 225.433L380.671 223.584C380.89 223.03 380.597 222.447 379.897 222.044Z" fill="#D7A851"/>
<path d="M398.699 239.32L362.088 218.163L360.515 219.078L394.712 238.84C395.651 239.384 397.02 239.591 398.294 239.386L398.699 239.32Z" fill="white"/>
<path d="M421.314 246.723L408.986 239.599C407.986 239.02 406.529 238.799 405.172 239.018L400.97 239.698L398.699 240.066L398.294 240.132C397.02 240.337 395.651 240.13 394.712 239.587L360.515 219.824L359.879 219.456C359.177 219.051 358.041 219.051 357.346 219.456L323.124 239.363C322.378 239.797 322.383 240.508 323.132 240.94L377.372 272.287C378.121 272.721 379.348 272.721 380.093 272.287L421.323 248.304C422.068 247.868 422.064 247.157 421.314 246.723Z" fill="#D7A851"/>
<path d="M421.314 245.978L408.986 238.854C407.986 238.276 406.529 238.055 405.172 238.274L400.97 238.954L398.699 239.321L398.294 239.388C397.02 239.592 395.651 239.386 394.712 238.842L360.515 219.08L359.879 218.712C359.177 218.307 358.041 218.307 357.346 218.712L323.124 238.619C322.378 239.053 322.383 239.764 323.132 240.196L377.372 271.542C378.121 271.976 379.348 271.976 380.093 271.542L421.323 247.56C422.068 247.121 422.064 246.41 421.314 245.978Z" fill="#FDC561"/>
<g opacity="0.1">
<g opacity="0.1">
<path opacity="0.1" d="M322.488 288.452C317.987 285.852 312.744 283.835 306.901 282.465C301.26 281.142 295.305 280.47 289.202 280.47C283.096 280.47 277.152 281.142 271.525 282.467C265.701 283.839 260.481 285.852 256.008 288.452C251.536 291.054 248.078 294.088 245.732 297.469C243.465 300.734 242.325 304.184 242.346 307.724C242.367 311.264 243.543 314.714 245.846 317.979C247.687 320.592 250.192 322.995 253.308 325.153L247.064 328.786L246.498 328.46C245.674 327.984 244.33 327.984 243.512 328.46L198.374 354.714C197.555 355.191 197.561 355.97 198.385 356.445L205.622 360.626C206.446 361.102 207.788 361.104 208.607 360.626L253.746 334.371C254.563 333.895 254.559 333.114 253.735 332.639L253.169 332.312L259.413 328.679C263.144 330.479 267.297 331.922 271.806 332.982C277.447 334.307 283.404 334.978 289.505 334.978C295.609 334.978 301.555 334.307 307.184 332.982C313.009 331.609 318.231 329.594 322.703 326.994C327.173 324.394 330.63 321.361 332.977 317.979C335.242 314.712 336.382 311.26 336.361 307.722C336.341 304.184 335.164 300.732 332.862 297.465C330.481 294.086 326.989 291.054 322.488 288.452Z" fill="black"/>
</g>
</g>
<path d="M257.608 294.125C250.536 298.238 246.997 303.632 246.981 309.037L247.008 299.774C247.024 294.371 250.565 288.977 257.635 284.862C264.205 281.041 272.694 278.982 281.341 278.689C281.333 281.776 281.324 284.864 281.314 287.952C272.667 288.245 264.178 290.304 257.608 294.125Z" fill="#B7B7B7"/>
<path d="M281.314 287.952C281.322 284.864 281.33 281.776 281.341 278.688C291.425 278.345 301.722 280.404 309.438 284.864C316.649 289.03 320.25 294.514 320.233 299.988L320.206 309.251C320.223 303.777 316.622 298.296 309.411 294.127C301.695 289.667 291.398 287.611 281.314 287.952Z" fill="#B7B7B7"/>
<path d="M326.332 300.005L326.305 309.268C326.297 312.439 325.26 315.532 323.229 318.463L323.255 309.2C325.287 306.269 326.324 303.178 326.332 300.005Z" fill="#B7B7B7"/>
<path opacity="0.302" d="M320.231 299.986L320.204 309.25C320.189 314.652 316.648 320.048 309.578 324.161C295.342 332.442 272.103 332.442 257.777 324.163C250.567 319.997 246.964 314.514 246.981 309.041L247.007 299.778C246.991 305.25 250.594 310.733 257.804 314.9C272.132 323.179 295.369 323.179 309.605 314.898C316.677 310.783 320.216 305.389 320.231 299.986Z" fill="#39C3F2"/>
<g opacity="0.5">
<path opacity="0.5" d="M309.436 288.961C323.764 297.24 323.838 310.713 309.606 318.992C295.369 327.274 272.13 327.274 257.804 318.995C243.475 310.713 243.399 297.24 257.635 288.959C271.868 280.679 295.107 280.679 309.436 288.961Z" fill="#66ACDF"/>
</g>
<path d="M240.877 309.024L240.904 299.761C240.904 299.8 240.904 299.84 240.904 299.879C240.922 303.095 241.992 306.23 244.086 309.198C245.76 311.571 248.031 313.755 250.864 315.716C251.701 316.295 252.584 316.853 253.515 317.393C254.447 317.93 255.413 318.442 256.414 318.924C259.805 320.559 263.577 321.869 267.676 322.832C272.8 324.035 278.212 324.647 283.758 324.647C289.304 324.647 294.708 324.035 299.822 322.832C305.116 321.586 309.859 319.755 313.923 317.391C317.984 315.028 321.127 312.273 323.257 309.198L323.231 318.461C321.1 321.534 317.957 324.289 313.896 326.654C309.832 329.018 305.089 330.849 299.795 332.095C294.681 333.298 289.279 333.908 283.731 333.91C278.185 333.91 272.776 333.3 267.649 332.095C263.55 331.132 259.778 329.822 256.388 328.187C255.388 327.706 254.422 327.195 253.489 326.656C252.557 326.118 251.674 325.558 250.837 324.98C248.005 323.018 245.731 320.834 244.059 318.461C241.965 315.493 240.896 312.358 240.877 309.142C240.877 309.103 240.877 309.064 240.877 309.024Z" fill="#B7B7B7"/>
<path d="M246.43 324.818L246.409 332.035L242.088 329.536L242.109 322.319L246.43 324.818Z" fill="#4D4C4D"/>
<path d="M255.173 319.749L255.152 326.966L246.41 332.036L246.431 324.819L255.173 319.749Z" fill="#3A3A3B"/>
<path d="M255.172 319.749L246.43 324.818L242.106 322.32L250.849 317.25C251.499 317.701 252.189 318.137 252.913 318.556C253.64 318.976 254.394 319.375 255.172 319.749Z" fill="#4D4C4D"/>
<path d="M323.258 309.2C321.127 312.273 317.984 315.028 313.923 317.393C309.859 319.757 305.116 321.588 299.822 322.835C294.708 324.037 289.307 324.647 283.758 324.649C278.212 324.649 272.803 324.039 267.676 322.835C263.577 321.871 259.805 320.561 256.415 318.926C255.415 318.445 254.449 317.934 253.516 317.395C252.584 316.857 251.701 316.297 250.864 315.719C248.032 313.757 245.758 311.573 244.086 309.2C241.992 306.232 240.923 303.097 240.904 299.881C240.887 296.665 241.922 293.53 243.981 290.562C246.113 287.489 249.254 284.732 253.32 282.37C257.381 280.008 262.126 278.176 267.418 276.93C272.53 275.727 277.934 275.116 283.48 275.116C289.026 275.116 294.435 275.725 299.564 276.928C304.873 278.174 309.636 280.005 313.727 282.37C317.815 284.732 320.988 287.487 323.154 290.562C325.246 293.53 326.318 296.665 326.334 299.881C326.351 303.095 325.314 306.23 323.258 309.2ZM257.804 314.898C272.132 323.178 295.369 323.178 309.605 314.896C323.84 306.617 323.764 293.144 309.436 284.864C295.106 276.583 271.867 276.583 257.635 284.862C243.398 293.144 243.473 306.617 257.804 314.898Z" fill="#EAEAE9"/>
<path d="M247.838 325.525L247.811 334.788C247.811 335.071 247.625 335.355 247.255 335.57L247.282 326.306C247.652 326.092 247.836 325.808 247.838 325.525Z" fill="#E7AF2A"/>
<path d="M196.392 354.833L196.418 345.57C196.418 345.857 196.606 346.145 196.982 346.362L196.955 355.625C196.579 355.408 196.392 355.12 196.392 354.833Z" fill="#F6BA2D"/>
<path d="M247.282 326.306L247.255 335.567L206.243 359.424L206.27 350.162L247.282 326.306Z" fill="#E7AF2A"/>
<path d="M203.556 350.162L203.529 359.423L196.957 355.625L196.982 346.364L203.556 350.162Z" fill="#F6BA2D"/>
<path d="M206.269 350.163L206.242 359.426C205.497 359.86 204.277 359.858 203.529 359.426L203.556 350.163C204.304 350.595 205.526 350.595 206.269 350.163Z" fill="#F6BA2D"/>
<path d="M247.273 324.734C248.021 325.166 248.025 325.874 247.282 326.306L206.269 350.163C205.524 350.597 204.303 350.595 203.556 350.163L196.982 346.364C196.232 345.93 196.228 345.223 196.973 344.791L237.986 320.935C238.729 320.503 239.95 320.501 240.699 320.935L241.213 321.23L246.761 324.438L247.273 324.734Z" fill="#FFC43B"/>
<g opacity="0.1">
<path opacity="0.1" d="M136.492 318.265L73.7476 281.767L147.32 239.299L210.066 275.796L136.492 318.265Z" fill="black"/>
</g>
<path d="M131.584 315.411L68.8397 278.913L68.3545 107.334L131.099 143.831L131.584 315.411Z" fill="#6B6F91"/>
<path d="M131.099 143.831L68.3545 107.334L136.187 68.1322L198.931 104.631L131.099 143.831Z" fill="#75789D"/>
<path d="M198.931 104.631L199.416 276.209L131.584 315.411L131.099 143.831L198.931 104.631Z" fill="#626486"/>
<path d="M155.216 151.447C154.59 151.808 154.074 151.515 154.072 150.796L154.049 142.531C154.047 141.809 154.559 140.925 155.185 140.563L176.231 128.4C176.859 128.039 177.371 128.33 177.373 129.051L177.395 137.316C177.397 138.035 176.887 138.92 176.262 139.284L155.216 151.447ZM196.183 111.538L135.202 146.78L135.307 184.2L196.288 148.958L196.183 111.538Z" fill="#EFEEEE"/>
<path d="M155.744 149.977C155.333 150.215 154.997 150.025 154.997 149.549L154.99 147.218L176.592 134.735L176.598 137.066C176.6 137.539 176.264 138.118 175.853 138.356L155.744 149.977ZM154.984 145.99L154.974 142.57C154.972 142.097 155.306 141.516 155.717 141.278L175.826 129.657C176.237 129.419 176.576 129.611 176.576 130.085L176.586 133.505L154.984 145.99ZM176.231 128.4L155.184 140.563C154.559 140.925 154.047 141.809 154.049 142.531L154.072 150.795C154.074 151.515 154.588 151.808 155.215 151.447L176.262 139.284C176.889 138.922 177.397 138.035 177.395 137.316L177.373 129.051C177.371 128.332 176.856 128.039 176.231 128.4Z" fill="#8E91BF"/>
<path d="M175.829 129.659L155.72 141.28C155.309 141.518 154.975 142.097 154.977 142.572L154.987 145.992L176.589 133.509L176.578 130.089C176.576 129.613 176.238 129.421 175.829 129.659Z" fill="#F8F8FB"/>
<path d="M176.596 137.066C176.596 137.289 176.522 137.533 176.402 137.756C176.266 138.009 176.068 138.23 175.853 138.356L155.744 149.975C155.333 150.213 154.997 150.022 154.994 149.549L154.988 147.216L173.681 136.415L176.59 134.733L176.596 137.066Z" fill="#6A6C8C"/>
<path d="M176.596 137.066C176.596 137.289 176.521 137.533 176.402 137.756C175.726 137.564 174.312 137.097 173.68 136.417L176.589 134.735L176.596 137.066Z" fill="#5D5E7B"/>
<path d="M155.216 192.845C154.59 193.207 154.074 192.914 154.072 192.194L154.049 183.929C154.047 183.208 154.559 182.324 155.185 181.962L176.231 169.799C176.859 169.437 177.371 169.729 177.373 170.45L177.395 178.715C177.397 179.434 176.887 180.319 176.262 180.683L155.216 192.845ZM196.183 152.937L135.202 188.179L135.307 225.599L196.288 190.357L196.183 152.937Z" fill="#EFEEEE"/>
<path d="M155.744 191.376C155.333 191.613 154.997 191.423 154.997 190.948L154.99 188.617L176.592 176.134L176.598 178.465C176.6 178.938 176.264 179.517 175.853 179.754L155.744 191.376ZM154.984 187.389L154.974 183.969C154.972 183.495 155.306 182.915 155.717 182.677L175.826 171.056C176.237 170.818 176.576 171.01 176.576 171.483L176.586 174.904L154.984 187.389ZM176.231 169.799L155.184 181.962C154.559 182.323 154.047 183.208 154.049 183.929L154.072 192.194C154.074 192.913 154.588 193.207 155.215 192.845L176.262 180.682C176.889 180.321 177.397 179.434 177.395 178.715L177.373 170.45C177.371 169.729 176.856 169.437 176.231 169.799Z" fill="#8E91BF"/>
<path d="M175.829 171.058L155.72 182.679C155.309 182.917 154.975 183.496 154.977 183.971L154.987 187.391L176.589 174.908L176.578 171.488C176.576 171.011 176.238 170.82 175.829 171.058Z" fill="#F8F8FB"/>
<path d="M176.596 178.465C176.596 178.688 176.522 178.932 176.402 179.155C176.266 179.407 176.068 179.629 175.853 179.755L155.744 191.374C155.333 191.611 154.997 191.421 154.994 190.948L154.988 188.615L173.681 177.814L176.59 176.132L176.596 178.465Z" fill="#6A6C8C"/>
<path d="M176.596 178.465C176.596 178.688 176.521 178.932 176.402 179.155C175.726 178.963 174.312 178.496 173.68 177.816L176.589 176.134L176.596 178.465Z" fill="#5D5E7B"/>
<path d="M155.216 275.641C154.59 276.003 154.074 275.709 154.072 274.99L154.049 266.725C154.047 266.004 154.559 265.119 155.185 264.758L176.231 252.595C176.859 252.233 177.371 252.525 177.373 253.246L177.395 261.511C177.397 262.23 176.887 263.115 176.262 263.478L155.216 275.641ZM196.183 235.732L135.202 270.974L135.307 308.395L196.288 273.153L196.183 235.732Z" fill="#EFEEEE"/>
<path d="M155.744 274.171C155.333 274.409 154.997 274.219 154.997 273.744L154.99 271.412L176.592 258.929L176.598 261.26C176.6 261.734 176.264 262.312 175.853 262.55L155.744 274.171ZM154.984 270.185L154.974 266.764C154.972 266.291 155.306 265.71 155.717 265.472L175.826 253.851C176.237 253.614 176.576 253.806 176.576 254.279L176.586 257.7L154.984 270.185ZM176.231 252.595L155.184 264.757C154.559 265.119 154.047 266.004 154.049 266.725L154.072 274.99C154.074 275.709 154.588 276.002 155.215 275.641L176.262 263.478C176.889 263.116 177.397 262.23 177.395 261.511L177.373 253.246C177.371 252.526 176.856 252.233 176.231 252.595Z" fill="#8E91BF"/>
<path d="M175.829 253.853L155.72 265.475C155.309 265.712 154.975 266.291 154.977 266.766L154.987 270.187L176.589 257.704L176.578 254.283C176.576 253.808 176.238 253.616 175.829 253.853Z" fill="#F8F8FB"/>
<path d="M176.596 261.263C176.596 261.486 176.522 261.73 176.402 261.953C176.266 262.205 176.068 262.426 175.853 262.552L155.744 274.171C155.333 274.409 154.997 274.219 154.994 273.746L154.988 271.412L173.681 260.612L176.59 258.929L176.596 261.263Z" fill="#6A6C8C"/>
<path d="M176.596 261.263C176.596 261.486 176.521 261.73 176.402 261.953C175.726 261.761 174.312 261.294 173.68 260.614L176.589 258.932L176.596 261.263Z" fill="#5D5E7B"/>
<path d="M196.29 231.594V231.981L195.968 232.167L195.877 232.219L195.646 232.351L195.609 232.371L194.824 232.826L194.502 233.012L194.186 233.194L192.09 234.407L191.768 234.593L190.046 235.589L189.72 235.775L189.404 235.959L170.718 246.758L170.392 246.946L170.078 247.128L168.981 247.762L165.934 249.523L165.785 249.61L165.61 249.709L165.298 249.893L164.204 250.524L161.152 252.287L160.828 252.475L160.743 252.524L160.514 252.654L159.721 253.113L159.684 253.136L159.421 253.287L158.802 253.646L158.765 253.667L156.37 255.05L156.044 255.24L155.73 255.42L155.703 255.438L154.642 256.05L151.588 257.815L151.262 258.003L150.948 258.185L150.661 258.348L149.86 258.813L146.804 260.578L146.477 260.766L146.166 260.946L145.623 261.262L145.08 261.577L142.022 263.344L141.7 263.53L141.384 263.712L140.585 264.174H140.58L140.298 264.338L135.344 267.202L135.307 267.223V267.182L135.231 240.068V240.025L135.229 239.004V238.96L135.218 235.085L135.202 229.8L135.497 229.631L136.591 228.996L136.907 228.815L137.229 228.629L140.279 226.866L155.465 218.092L163.217 213.614L163.229 213.605L167.553 211.107L184.612 201.246L184.928 201.067L185.254 200.876L186.637 200.079H186.639L186.677 200.058L186.974 199.884L187.56 199.543L187.593 199.523L196.183 194.562L196.205 202.247L196.212 204.501V204.545L196.214 205.57V205.611L196.22 206.977V207.356L196.222 208.629L196.224 209.081V209.594L196.234 212.471V212.857L196.236 214.13L196.241 214.583V215.096L196.251 217.966V218.357L196.253 219.628V219.63L196.255 220.085V220.595L196.265 223.46V223.859L196.27 225.132L196.272 225.586L196.274 226.095L196.282 228.955V229.36L196.286 230.629V231.086L196.29 231.594Z" fill="#484A64"/>
<path d="M233.929 253.69L222.129 259.685L204.679 268.547L186.319 280.342L173.867 288.341L173.863 288.343L172.948 288.93V288.932H172.946L172.19 288.494H172.188L135.344 267.202L135.307 267.181L135.231 240.068V240.024L135.229 239.003V238.96L135.218 235.085L135.202 229.8L135.497 229.631L136.591 228.996L136.907 228.814L137.229 228.628L140.279 226.865L155.465 218.092L163.217 213.613L163.229 213.605L164.441 214.293L164.798 214.494L165.909 215.126L166.31 215.35L166.753 215.604H166.758L169.254 217.019L169.613 217.222L170.724 217.854L171.123 218.078L171.566 218.332L174.067 219.75L174.424 219.95L175.537 220.583L175.936 220.806L176.379 221.062L178.88 222.478L179.237 222.68L180.35 223.311L180.749 223.536L181.195 223.79L183.693 225.208L184.05 225.408L184.618 225.731L184.934 225.909L185.163 226.039L185.258 226.095L185.562 226.266L186.008 226.518L186.982 227.07L187.542 227.388L188.506 227.936L188.863 228.136L189.402 228.444L189.718 228.622L189.976 228.767L190.042 228.806L190.09 228.833L190.372 228.994H190.375L190.821 229.248L191.766 229.782L192.328 230.1L193.319 230.664L193.676 230.867L194.186 231.156L194.502 231.334L194.789 231.495L194.824 231.518L195.185 231.722L195.633 231.976L195.968 232.167L196.55 232.495L197.11 232.813L198.13 233.392L198.97 233.87L199.284 234.047L199.61 234.231L200.48 234.725L201.192 235.128L201.334 235.211L201.898 235.529L203.752 236.581L204.068 236.759L204.394 236.945L205.14 237.367L205.85 237.77L206.116 237.92L206.684 238.243L206.74 238.278H206.744L208.536 239.295L208.852 239.473L209.178 239.656L210.485 240.398L210.49 240.4L210.9 240.636L211.468 240.956L211.565 241.01L213.322 242.008L213.636 242.188L213.963 242.372L214.07 242.432H214.072L214.111 242.453L214.85 242.874L215.685 243.346L216.252 243.668L218.107 244.72L218.42 244.898L218.745 245.08L220.469 246.059L221.041 246.382L232.839 253.072L232.843 253.074L233.171 253.26L233.51 253.452H233.512L233.929 253.69Z" fill="#E5E4E3"/>
<path d="M232.916 226.777L233.835 226.243L233.756 253.312L232.839 253.845L232.916 226.777Z" fill="#5D6080"/>
<path d="M233.833 226.244V226.246L233.095 226.673L232.916 226.777L224.279 221.788L223.577 221.381H223.573L222.443 220.73L221.271 220.052L220.463 219.585L218.415 218.4L218.326 218.347L218.101 218.216L217.932 218.121L217.659 217.962L216.831 217.485L216.507 217.297L215.677 216.819L213.633 215.635L213.563 215.596L213.317 215.451L213.166 215.366L212.877 215.199L212.066 214.73L211.739 214.542L210.893 214.054L208.849 212.87L208.793 212.839L208.533 212.688L208.399 212.611L208.089 212.432L207.298 211.975L206.974 211.787L206.109 211.289L204.063 210.104L204.028 210.084L203.749 209.923L203.633 209.856L203.303 209.666L202.531 209.22L202.208 209.034L201.327 208.523L199.279 207.339L199.258 207.329L198.967 207.159L198.866 207.099L198.515 206.899L197.763 206.463L197.445 206.279L196.543 205.76L196.214 205.57L194.497 204.578L194.494 204.576L194.183 204.396L194.098 204.346L193.731 204.134L192.995 203.71L192.677 203.526L191.759 202.995L190.427 202.226L189.397 201.631L189.33 201.592L188.944 201.37L188.228 200.955L187.914 200.775L186.975 200.23L186.677 200.058L186.975 199.884L187.561 199.543L187.594 199.523L189.151 200.422L190.425 201.158L191.759 201.93L193.918 203.177L196.212 204.501L196.543 204.692L198.684 205.932L201.327 207.457L203.454 208.687L206.109 210.222L208.219 211.44L210.893 212.988L212.989 214.197L215.677 215.753L217.754 216.952L220.463 218.514L224.496 220.845L225.202 221.252L233.093 225.812L233.833 226.244Z" fill="#E5E4E3"/>
<path d="M232.916 226.777L232.844 253.074L232.84 253.506V253.845L232.837 253.843L232.546 253.675L221.006 247.006L220.469 246.694L218.745 245.698L218.421 245.51L218.107 245.33L216.222 244.241L215.685 243.931L214.614 243.313L213.963 242.937L213.885 242.891L213.796 242.84H213.794L213.637 242.749L213.323 242.567L211.44 241.478L211.099 241.279H211.097L210.901 241.168L210.032 240.665L209.179 240.171L208.853 239.983L208.537 239.801L206.658 238.714L206.324 238.52L206.117 238.402L205.436 238.01L204.73 237.602L204.395 237.41L204.069 237.218L203.753 237.038L201.874 235.951L201.335 235.641L200.821 235.343L200.119 234.936L199.611 234.641L199.285 234.455L198.971 234.275L197.788 233.591L197.09 233.186L196.551 232.874L195.647 232.351L195.316 232.159H195.312L194.872 231.902L194.825 231.878L194.503 231.692L194.476 231.675L194.187 231.51L193.377 231.041L193.022 230.836L192.31 230.425L191.767 230.111L190.547 229.404L190.105 229.149L190.043 229.114L189.822 228.986L189.719 228.926L189.71 228.922L189.403 228.744L188.608 228.286L188.253 228.079L187.526 227.661L186.983 227.345L185.777 226.651L185.337 226.395L185.259 226.349L184.941 226.167L184.935 226.161L184.619 225.979L183.838 225.531L183.487 225.328H183.485L181.012 223.896L180.57 223.64L180.175 223.412L179.073 222.776L178.72 222.571L176.244 221.141L175.8 220.885L175.406 220.659L174.307 220.023H174.305L173.952 219.816L171.476 218.386L171.035 218.132L170.64 217.902L169.542 217.268L169.184 217.061L166.709 215.633L166.267 215.377L165.875 215.147H165.873L164.77 214.511L164.417 214.306L163.217 213.614L163.23 213.606L167.553 211.107L184.613 201.246L184.928 201.067L185.255 200.877L186.638 200.079H186.64L186.677 200.058L186.975 200.23L187.914 200.775L188.228 200.955L188.944 201.37L189.331 201.592L189.397 201.631L190.427 202.226L191.759 202.995L192.678 203.526L192.996 203.71H193L193.731 204.134L194.098 204.347L194.183 204.396L194.495 204.576L194.497 204.578L196.214 205.57L196.543 205.76L197.445 206.279L197.763 206.463L198.515 206.899L198.866 207.099L198.967 207.159L199.258 207.329L199.279 207.339L201.327 208.523L202.209 209.034L202.531 209.22L203.303 209.666L203.631 209.857H203.633L203.749 209.923L204.028 210.084L204.063 210.105L206.109 211.289L206.974 211.787L207.298 211.975L208.089 212.432L208.399 212.611L208.533 212.688L208.793 212.839L208.849 212.87L210.893 214.054L211.74 214.542L212.066 214.73L212.877 215.199L213.166 215.366L213.317 215.451L213.563 215.596L213.633 215.635L215.677 216.819L216.507 217.297L216.831 217.485L217.659 217.962L217.932 218.121L218.101 218.216L218.326 218.347H218.328L218.415 218.4L220.463 219.585L221.271 220.052L222.443 220.73L223.573 221.381H223.577L224.279 221.788L232.916 226.777Z" fill="#D8D8D7"/>
<path d="M137.24 263.978V264.945L135.741 265.811C135.714 265.828 135.685 265.832 135.66 265.832C135.584 265.83 135.518 265.766 135.518 265.681L135.505 240.184V240.182L135.503 239.119L135.497 229.631L136.591 228.996L136.907 228.815L137.229 228.629V230.921C137.229 230.921 137.229 230.921 137.229 230.923L137.231 240.118V241.182L137.24 263.978Z" fill="#D7A851"/>
<path d="M186.984 231.464V236.199L185.262 237.195V231.493L185.258 230.218V218.801L185.255 215.933V207.796L185.253 204.915V200.877L186.637 200.079H186.639L186.676 200.058L186.973 199.885V201.681L186.975 202.954V209.429L186.978 212.306V220.447L186.982 223.311V230.954L186.984 231.464Z" fill="#D7A851"/>
<path d="M184.62 230.588V236.598L168.981 245.636L165.934 247.397L165.608 247.585L165.296 247.765L164.204 248.399L161.152 250.162L160.842 250.34L160.828 250.346L160.514 250.53L159.422 251.16L157.881 252.049L156.958 252.582L156.37 252.923L156.044 253.111L155.802 253.252L155.73 253.293L154.64 253.924L151.588 255.686L151.262 255.877L150.948 256.056L150.76 256.166L149.858 256.685L146.804 258.452L146.477 258.638L146.166 258.822L145.722 259.076L145.08 259.45L142.02 261.215L141.695 261.403L141.384 261.583L140.68 261.99L140.298 262.211L137.24 263.978L136.915 264.166L136.6 264.348L136.593 243.865V239.752L136.591 228.997L136.907 228.815L137.229 228.629L140.279 226.866L155.465 218.093L163.217 213.614L163.229 213.606L167.553 211.107L184.612 201.247V204.775L184.616 205.283V216.303L184.618 219.169V230.177L184.62 230.588Z" fill="#D6D6D5"/>
<path d="M184.936 231.681V236.868L168.982 246.09L165.934 247.851L165.862 247.892L165.608 248.037L165.296 248.219L164.204 248.851L161.152 250.614L160.828 250.8L160.821 250.804L160.514 250.982L159.422 251.615L158.276 252.276H158.271L157.353 252.809L156.37 253.378L156.044 253.566L155.781 253.719L155.73 253.747L154.64 254.376L151.588 256.143L151.262 256.331L150.948 256.513L150.739 256.633L149.858 257.141L146.804 258.906L146.477 259.094L146.166 259.274L145.699 259.543L145.08 259.904L142.022 261.671L141.695 261.857L141.384 262.039L140.659 262.457L140.298 262.668L137.24 264.435L136.915 264.623V264.166L136.909 240.996V236.91L136.907 228.814L137.229 228.628L140.279 226.865L155.465 218.092L163.217 213.613L163.229 213.605L167.553 211.106L184.612 201.246L184.928 201.066V205.103L184.93 207.984V216.12L184.934 218.987V230.408L184.936 231.681Z" fill="#EAEAEA"/>
<path d="M185.263 231.493V237.195L170.078 245.971L168.984 246.605L165.934 248.366L165.837 248.422L165.608 248.554L165.296 248.734L164.204 249.364L161.152 251.129L160.828 251.315L160.797 251.334L160.512 251.499L159.42 252.13L158.716 252.537L157.795 253.068L156.366 253.893L156.04 254.081L155.751 254.248L155.724 254.265L154.634 254.893L151.582 256.656L151.256 256.846L150.94 257.026L150.708 257.162L149.854 257.656L146.798 259.421L146.472 259.609L146.16 259.791L145.67 260.072L145.074 260.419L142.018 262.184L141.692 262.37L141.38 262.552L140.632 262.984L140.294 263.18L137.238 264.945V263.978L137.23 241.184V240.12L137.228 230.925C137.228 230.923 137.228 230.923 137.228 230.923V228.631L140.277 226.868L155.464 218.093L163.213 213.614L163.225 213.606L167.549 211.107L184.61 201.247L184.926 201.067L185.252 200.877V204.915L185.254 207.798V215.933L185.256 218.799V230.222L185.263 231.493Z" fill="white"/>
<path d="M138.385 229.317L139.122 228.891L140.844 227.895L185.26 202.29L186.984 201.294L187.721 200.868C188.398 200.475 188.956 200.794 188.958 201.575L187.081 235.738C187.083 236.517 186.53 237.478 185.852 237.869L136.851 266.187C136.172 266.58 135.616 266.262 135.614 265.483L137.157 231.45C137.155 230.668 137.706 229.709 138.385 229.317Z" fill="#FDC561"/>
<path d="M191.768 234.209V238.944L190.046 239.94V234.238L190.044 232.965V221.546L190.042 218.679V210.541L190.04 207.658V202.15L189.714 202.338L189.398 202.52L188.892 202.811L188.791 202.871L186.978 203.919L185.256 204.913L184.93 205.101L184.818 205.167L184.618 205.285L166.76 215.604H166.758L166.71 215.633L159.442 219.833L145.117 228.112L142.015 229.904V233.667C142.015 233.667 142.015 233.667 142.015 233.67L142.017 242.885V243.949L142.02 261.217L142.022 261.674V267.694L140.523 268.56C140.496 268.577 140.471 268.581 140.444 268.581C140.368 268.579 140.297 268.513 140.297 268.43L140.295 264.34V262.213L140.285 242.947V241.885L140.277 228.222V226.866L155.463 218.09L155.951 218.698C156.056 218.828 156.182 218.917 156.331 218.967C156.626 219.064 156.989 219.004 157.375 218.781L164.765 214.509L164.794 214.492L184.61 203.042L184.926 202.861L185.252 202.673L186.972 201.678L188.225 200.953L188.553 200.763L189.148 200.422L190.604 199.579C191.238 199.213 191.754 199.508 191.756 200.236V204.425L191.758 205.696V212.173L191.76 215.05V223.191L191.762 226.056V233.698L191.768 234.209Z" fill="#D4D851"/>
<path d="M141.375 229.304L189.396 201.552L189.404 239.343L141.383 267.095L141.375 229.304Z" fill="#D6D7D5"/>
<path d="M141.689 229.578L189.712 201.828L189.72 239.616L141.697 267.368L141.689 229.578Z" fill="#EAEAE9"/>
<path d="M142.016 229.902L190.036 202.15L190.044 239.94L142.024 267.692L142.016 229.902Z" fill="white"/>
<path d="M143.17 232.061L143.907 231.636L145.629 230.639L190.044 205.035L191.769 204.039L192.506 203.613C193.183 203.22 193.74 203.538 193.742 204.32L191.866 238.483C191.868 239.262 191.314 240.223 190.637 240.614L141.636 268.932C140.956 269.325 140.401 269.006 140.399 268.227L141.941 234.194C141.939 233.413 142.491 232.454 143.17 232.061Z" fill="#F5ED67"/>
<path d="M146.291 226.428L157.994 219.663C158.552 219.341 159.072 219.372 159.37 219.742L160.736 221.445C161.046 221.831 161.585 221.862 162.163 221.528L195.39 202.325C196.024 201.96 196.54 202.253 196.542 202.983L196.552 241.689L194.828 242.685L194.82 204.896L146.797 232.649L146.805 270.437L145.306 271.303C145.207 271.361 145.081 271.288 145.081 271.173L145.059 228.559C145.059 227.777 145.612 226.818 146.291 226.428Z" fill="#D77D51"/>
<path d="M146.159 232.051L194.179 204.299L194.187 242.088L146.167 269.84L146.159 232.051Z" fill="#D6D6D5"/>
<path d="M146.474 232.324L194.496 204.572L194.505 242.36L146.482 270.113L146.474 232.324Z" fill="#EAEAE9"/>
<path d="M146.8 232.646L194.82 204.896L194.829 242.685L146.806 270.437L146.8 232.646Z" fill="white"/>
<path d="M147.954 234.808L148.691 234.383L150.413 233.386L194.829 207.782L196.553 206.785L197.29 206.36C197.967 205.967 198.525 206.285 198.527 207.067L196.65 241.23C196.652 242.009 196.099 242.97 195.421 243.361L146.42 271.679C145.741 272.072 145.185 271.753 145.183 270.972L146.725 236.939C146.721 236.158 147.275 235.199 147.954 234.808Z" fill="#F59163"/>
<path d="M151.075 229.172L162.779 222.407C163.336 222.085 163.856 222.116 164.154 222.486L165.521 224.189C165.83 224.575 166.369 224.606 166.947 224.272L200.174 205.07C200.808 204.704 201.324 204.997 201.326 205.727L201.336 244.433L199.612 245.429L199.604 207.641L151.581 235.393L151.59 273.181L150.091 274.047C149.991 274.105 149.865 274.032 149.865 273.917L149.843 231.303C149.843 230.524 150.396 229.565 151.075 229.172Z" fill="#D7A851"/>
<path d="M150.941 234.795L198.964 207.043L198.972 244.832L150.949 272.584L150.941 234.795Z" fill="#D6D6D5"/>
<path d="M151.258 235.068L199.28 207.316L199.289 245.106L151.266 272.859L151.258 235.068Z" fill="#EAEAEA"/>
<path d="M151.582 235.393L199.604 207.64L199.612 245.429L151.59 273.181L151.582 235.393Z" fill="white"/>
<path d="M152.738 237.552L153.475 237.127L155.197 236.131L199.613 210.526L201.337 209.53L202.074 209.104C202.751 208.711 203.309 209.029 203.311 209.811L201.434 243.974C201.436 244.753 200.883 245.714 200.205 246.105L151.204 274.421C150.525 274.814 149.969 274.495 149.967 273.714L151.51 239.681C151.506 238.904 152.059 237.945 152.738 237.552Z" fill="#FDC561"/>
<path d="M155.858 231.917L167.561 225.152C168.118 224.83 168.639 224.861 168.936 225.231L170.303 226.934C170.612 227.32 171.151 227.351 171.73 227.017L204.956 207.815C205.59 207.449 206.106 207.742 206.108 208.472L206.118 247.178L204.394 248.174L204.386 210.386L156.365 238.138L156.374 275.926L154.875 276.792C154.776 276.85 154.65 276.778 154.65 276.662L154.627 234.048C154.627 233.269 155.18 232.31 155.858 231.917Z" fill="#51AED7"/>
<path d="M155.725 237.541L203.748 209.788L203.756 247.579L155.733 275.331L155.725 237.541Z" fill="#D6D6D6"/>
<path d="M156.042 237.813L204.065 210.063L204.071 247.851L156.05 275.604L156.042 237.813Z" fill="#EAEAE9"/>
<path d="M156.366 238.138L204.388 210.385L204.397 248.176L156.374 275.928L156.366 238.138Z" fill="white"/>
<path d="M157.522 240.297L158.26 239.872L159.982 238.875L204.397 213.271L206.121 212.274L206.858 211.849C207.535 211.456 208.093 211.774 208.095 212.556L206.218 246.719C206.22 247.498 205.667 248.459 204.99 248.85L155.988 277.168C155.309 277.561 154.754 277.242 154.751 276.461L156.294 242.428C156.29 241.649 156.843 240.69 157.522 240.297Z" fill="#6ACEF5"/>
<path d="M160.641 234.662L172.345 227.898C172.902 227.575 173.422 227.606 173.72 227.976L175.087 229.679C175.396 230.066 175.935 230.097 176.513 229.762L209.74 210.56C210.374 210.194 210.89 210.487 210.892 211.217L210.902 249.923L209.178 250.919L209.17 213.131L161.147 240.883L161.155 278.671L159.656 279.537C159.557 279.595 159.431 279.523 159.431 279.407L159.409 236.793C159.411 236.014 159.962 235.055 160.641 234.662Z" fill="#D7A851"/>
<path d="M160.509 240.286L208.531 212.536L208.54 250.324L160.517 278.076L160.509 240.286Z" fill="#D6D6D5"/>
<path d="M160.825 240.56L208.845 212.808L208.854 250.596L160.833 278.349L160.825 240.56Z" fill="#EAEAEA"/>
<path d="M161.15 240.883L209.173 213.133L209.181 250.921L161.158 278.673L161.15 240.883Z" fill="white"/>
<path d="M162.305 243.043L163.042 242.617L164.764 241.621L209.18 216.016L210.904 215.02L211.641 214.594C212.318 214.201 212.876 214.52 212.878 215.299L211.001 249.462C211.003 250.241 210.45 251.202 209.772 251.593L160.771 279.911C160.092 280.304 159.536 279.986 159.534 279.204L161.077 245.171C161.072 244.394 161.626 243.435 162.305 243.043Z" fill="#FDC561"/>
<path d="M165.426 237.408L177.129 230.644C177.686 230.322 178.206 230.353 178.504 230.722L179.871 232.425C180.18 232.812 180.719 232.843 181.297 232.508L214.524 213.306C215.158 212.94 215.674 213.234 215.676 213.963L215.686 252.669L213.962 253.665L213.954 215.877L165.931 243.629L165.94 281.417L164.441 282.283C164.342 282.341 164.216 282.269 164.216 282.153L164.193 239.539C164.195 238.76 164.746 237.801 165.426 237.408Z" fill="#67C5BC"/>
<path d="M165.293 243.032L213.315 215.28L213.324 253.068L165.301 280.82L165.293 243.032Z" fill="#D5D5D6"/>
<path d="M165.608 243.305L213.631 215.553L213.639 253.343L165.616 281.093L165.608 243.305Z" fill="#EAEAE9"/>
<path d="M165.934 243.629L213.957 215.877L213.965 253.665L165.942 281.417L165.934 243.629Z" fill="white"/>
<path d="M167.088 245.789L167.825 245.363L169.547 244.367L213.963 218.762L215.687 217.766L216.424 217.34C217.101 216.948 217.659 217.266 217.661 218.045L215.784 252.208C215.786 252.988 215.233 253.949 214.555 254.339L165.554 282.658C164.875 283.05 164.319 282.732 164.317 281.953L165.86 247.92C165.858 247.141 166.411 246.182 167.088 245.789Z" fill="#86CFCD"/>
<path d="M170.21 240.153L181.913 233.388C182.47 233.066 182.991 233.097 183.288 233.467L184.655 235.17C184.965 235.556 185.504 235.587 186.082 235.252L219.308 216.05C219.942 215.685 220.458 215.978 220.46 216.708L220.471 255.413L218.746 256.41L218.738 218.621L170.716 246.374L170.724 284.162L169.225 285.028C169.126 285.086 169 285.013 169 284.898L168.977 242.284C168.979 241.504 169.53 240.545 170.21 240.153Z" fill="#D7A851"/>
<path d="M170.077 245.776L218.1 218.024L218.108 255.814L170.085 283.567L170.077 245.776Z" fill="#D6D6D5"/>
<path d="M170.392 246.049L218.415 218.297L218.423 256.087L170.4 283.84L170.392 246.049Z" fill="#EAEAEA"/>
<path d="M170.718 246.373L218.741 218.621L218.749 256.412L170.727 284.162L170.718 246.373Z" fill="white"/>
<path d="M171.873 248.533L172.61 248.107L174.332 247.111L218.747 221.506L220.471 220.51L221.208 220.085C221.886 219.692 222.443 220.01 222.445 220.791L220.568 254.955C220.57 255.734 220.017 256.695 219.34 257.085L170.338 285.404C169.659 285.797 169.104 285.478 169.102 284.699L170.644 250.666C170.642 249.885 171.193 248.926 171.873 248.533Z" fill="#FDC561"/>
<path d="M173.022 261.866L173.941 261.33L173.865 288.399L172.946 288.934L173.022 261.866Z" fill="#5D6080"/>
<path d="M173.941 261.331L173.024 261.866H173.022L172.869 261.777L172.112 261.339L158.802 253.647L152.977 250.282L135.231 240.025L135.229 239.004V238.96L153.896 249.749L159.721 253.113L172.11 260.271L172.867 260.711L173.941 261.331Z" fill="#E5E4E3"/>
<path d="M173.025 261.866L172.948 288.056V288.477L172.946 288.924V288.932L172.19 288.494H172.188L135.345 267.202L135.307 267.182L135.231 240.068V240.025L152.978 250.282L158.802 253.647L172.112 261.339L172.87 261.777L173.023 261.866H173.025Z" fill="#D8D8D7"/>
<path d="M201.335 235.641V235.211L201.192 235.131L200.48 234.725L200.118 234.936L199.61 235.228L199.284 235.418L198.972 235.598L196.893 236.8L196.85 237.64L196.652 241.225V241.248C196.652 241.258 196.652 241.271 196.65 241.281C196.65 241.318 196.65 241.351 196.643 241.391C196.643 241.399 196.641 241.409 196.641 241.418C196.639 241.455 196.633 241.49 196.625 241.529C196.623 241.548 196.619 241.568 196.614 241.589C196.608 241.618 196.604 241.647 196.596 241.676C196.594 241.686 196.59 241.699 196.588 241.709V241.711C196.579 241.744 196.569 241.779 196.559 241.816C196.557 241.825 196.553 241.833 196.55 241.839C196.54 241.878 196.528 241.918 196.511 241.959C196.509 241.969 196.503 241.978 196.501 241.988C196.484 242.027 196.47 242.064 196.453 242.104C196.451 242.11 196.447 242.116 196.445 242.122C196.437 242.135 196.433 242.149 196.427 242.162C196.416 242.184 196.406 242.209 196.396 242.23C196.394 242.234 196.389 242.24 196.387 242.246C196.385 242.253 196.381 242.257 196.379 242.263C196.363 242.296 196.348 242.329 196.33 242.362C196.303 242.405 196.278 242.453 196.251 242.498H196.253L198.97 240.932L199.282 240.75L199.608 240.562L201.33 239.566L201.681 239.363L201.869 235.955L201.335 235.641ZM201.335 235.641V235.211L201.192 235.131L200.48 234.725L200.118 234.936L199.61 235.228L199.284 235.418L198.972 235.598L196.893 236.8L196.85 237.64L196.652 241.225V241.248C196.652 241.258 196.652 241.271 196.65 241.281C196.65 241.318 196.65 241.351 196.643 241.391C196.643 241.399 196.641 241.409 196.641 241.418C196.639 241.455 196.633 241.49 196.625 241.529C196.623 241.548 196.619 241.568 196.614 241.589C196.608 241.618 196.604 241.647 196.596 241.676C196.594 241.686 196.59 241.699 196.588 241.709V241.711C196.579 241.744 196.569 241.779 196.559 241.816C196.557 241.825 196.553 241.833 196.55 241.839C196.54 241.878 196.528 241.918 196.511 241.959C196.509 241.969 196.503 241.978 196.501 241.988C196.484 242.027 196.47 242.064 196.453 242.104C196.451 242.11 196.447 242.116 196.445 242.122C196.437 242.135 196.433 242.149 196.427 242.162C196.416 242.184 196.406 242.209 196.396 242.23C196.394 242.234 196.389 242.24 196.387 242.246C196.387 242.253 196.385 242.257 196.381 242.263C196.379 242.269 196.375 242.273 196.373 242.279C196.361 242.308 196.344 242.333 196.33 242.362C196.307 242.41 196.28 242.453 196.253 242.498L198.97 240.932L199.282 240.75L199.608 240.562L201.33 239.566L201.681 239.363L201.869 235.955L201.335 235.641ZM201.335 235.641V235.211L201.192 235.131L200.48 234.725L200.118 234.936L199.61 235.228L199.284 235.418L198.972 235.598L196.893 236.8L196.85 237.64L196.652 241.225V241.248C196.652 241.258 196.652 241.271 196.65 241.281C196.65 241.318 196.648 241.353 196.643 241.391C196.643 241.399 196.641 241.409 196.641 241.418C196.639 241.455 196.633 241.49 196.625 241.529C196.623 241.548 196.619 241.568 196.614 241.589C196.608 241.618 196.604 241.647 196.596 241.676C196.594 241.686 196.59 241.699 196.588 241.709V241.711C196.579 241.744 196.569 241.779 196.559 241.816C196.557 241.825 196.553 241.833 196.55 241.839C196.54 241.878 196.528 241.918 196.511 241.959C196.509 241.969 196.503 241.978 196.501 241.988C196.484 242.027 196.47 242.064 196.453 242.104C196.451 242.11 196.447 242.116 196.445 242.122C196.437 242.135 196.433 242.149 196.427 242.162C196.416 242.184 196.406 242.209 196.396 242.23C196.394 242.234 196.389 242.24 196.387 242.246C196.387 242.253 196.385 242.257 196.381 242.263C196.379 242.269 196.375 242.273 196.373 242.279C196.361 242.308 196.344 242.333 196.33 242.362C196.307 242.41 196.28 242.453 196.253 242.498L198.97 240.932L199.282 240.75L199.608 240.562L201.33 239.566L201.681 239.363L201.869 235.955L201.335 235.641ZM233.095 226.673L233.093 225.814L233.066 216.71V216.708L233.064 215.897L224.495 220.847L223.574 221.383H223.572L222.373 222.077L220.463 223.181L218.739 224.177L218.416 224.365L218.105 224.545L217.279 225.022L215.681 225.942L213.959 226.938L213.636 227.126L213.321 227.308L212.185 227.963L210.901 228.707L209.179 229.701L208.852 229.891L208.536 230.071L207.087 230.908L206.115 231.472L204.395 232.467L204.068 232.655L203.752 232.836L201.989 233.855L201.335 234.234L200.48 234.728L200.118 234.938L199.61 235.23L199.284 235.42L198.972 235.6L196.893 236.803L196.555 236.999L194.831 237.995L194.506 238.183L194.19 238.365L191.265 240.056L172.085 251.137V251.338L172.095 254.858L172.097 255.312V255.823L172.099 256.837L172.11 260.272V260.359L172.112 260.81V261.339L172.114 262.337L172.124 265.859V266.313L172.126 266.824L172.128 267.839L172.139 271.36V271.815L172.141 272.326L172.143 273.34L172.153 276.862V277.317L172.155 277.825V277.827L172.157 278.842V278.844L172.165 282.364L172.168 282.814V283.331L172.174 284.34V284.342L172.184 288.494H172.186L172.942 288.056H172.944L173.861 287.526L173.863 287.524L186.313 280.345L222.123 259.685L232.537 253.675L232.829 253.506H232.831L233.161 253.316V253.262L233.095 226.673ZM192.066 244.921L196.251 242.501L196.253 242.498H196.255L198.972 240.932L199.284 240.75L199.61 240.562L201.333 239.566L201.684 239.363L203.75 238.169L204.066 237.989L204.392 237.799L204.729 237.606L205.138 237.371L206.115 236.805L206.781 236.422L208.534 235.407L208.85 235.226L209.177 235.038L210.897 234.043L211.879 233.475L213.112 232.762C213.182 232.721 213.25 232.69 213.319 232.663C213.43 232.624 213.537 232.605 213.634 232.605C213.76 232.607 213.87 232.642 213.961 232.706C214.058 232.774 214.136 232.876 214.186 233.006C214.229 233.122 214.256 233.254 214.256 233.411L214.279 241.676C214.279 241.926 214.219 242.195 214.111 242.455C214.07 242.56 214.021 242.664 213.963 242.763C213.936 242.806 213.911 242.852 213.884 242.893C213.808 243.011 213.727 243.123 213.636 243.224C213.539 243.335 213.434 243.435 213.321 243.519C213.263 243.567 213.203 243.606 213.141 243.641L211.262 244.726L210.901 244.935L209.181 245.931L208.854 246.119L208.539 246.301L205.92 247.814L192.097 255.804C191.987 255.866 191.884 255.912 191.781 255.934C191.543 255.994 191.335 255.947 191.19 255.808C191.089 255.717 191.015 255.583 190.982 255.413C190.963 255.335 190.953 255.246 190.953 255.153V254.975L190.943 251.456L190.94 250.441L190.938 249.93V249.476L190.93 246.886C190.928 246.52 191.06 246.113 191.269 245.758C191.477 245.406 191.758 245.1 192.066 244.921ZM201.335 235.641V235.211L201.192 235.131L200.48 234.725L200.118 234.936L199.61 235.228L199.284 235.418L198.972 235.598L196.893 236.8L196.85 237.64L196.652 241.225V241.248C196.652 241.258 196.652 241.271 196.65 241.281C196.65 241.318 196.65 241.351 196.643 241.391C196.643 241.399 196.641 241.409 196.641 241.418C196.639 241.455 196.633 241.49 196.625 241.529C196.623 241.548 196.619 241.568 196.614 241.589C196.608 241.618 196.604 241.647 196.596 241.676C196.594 241.686 196.59 241.699 196.588 241.709V241.711C196.579 241.744 196.569 241.779 196.559 241.816C196.557 241.825 196.553 241.833 196.55 241.839C196.54 241.878 196.528 241.918 196.511 241.959C196.509 241.969 196.503 241.978 196.501 241.988C196.484 242.027 196.47 242.064 196.453 242.104C196.451 242.11 196.447 242.116 196.445 242.122C196.437 242.135 196.433 242.149 196.427 242.162C196.416 242.184 196.406 242.209 196.396 242.23C196.394 242.234 196.389 242.24 196.387 242.246C196.387 242.253 196.385 242.257 196.381 242.263C196.379 242.269 196.375 242.273 196.373 242.279C196.361 242.308 196.344 242.333 196.33 242.362C196.307 242.41 196.28 242.453 196.253 242.498L198.97 240.932L199.282 240.75L199.608 240.562L201.33 239.566L201.681 239.363L201.869 235.955L201.335 235.641ZM201.335 235.641V235.211L201.192 235.131L200.48 234.725L200.118 234.936L199.61 235.228L199.284 235.418L198.972 235.598L196.893 236.8L196.85 237.64L196.652 241.225V241.248C196.652 241.258 196.652 241.271 196.65 241.281C196.65 241.318 196.65 241.351 196.643 241.391C196.643 241.399 196.641 241.409 196.641 241.418C196.639 241.455 196.633 241.49 196.625 241.529C196.623 241.548 196.619 241.568 196.614 241.589C196.608 241.618 196.604 241.647 196.596 241.676C196.594 241.686 196.59 241.699 196.588 241.709V241.711C196.579 241.744 196.569 241.779 196.559 241.816C196.557 241.825 196.553 241.833 196.55 241.839C196.54 241.878 196.528 241.918 196.511 241.959C196.509 241.969 196.503 241.978 196.501 241.988C196.484 242.027 196.47 242.064 196.453 242.104C196.451 242.11 196.447 242.116 196.445 242.122C196.437 242.135 196.433 242.149 196.427 242.162C196.416 242.184 196.406 242.209 196.396 242.23C196.394 242.234 196.389 242.24 196.387 242.246C196.387 242.253 196.385 242.257 196.381 242.263C196.379 242.269 196.375 242.273 196.373 242.279C196.361 242.308 196.344 242.333 196.33 242.362C196.307 242.41 196.28 242.453 196.253 242.498L198.97 240.932L199.282 240.75L199.608 240.562L201.33 239.566L201.681 239.363L201.869 235.955L201.335 235.641ZM201.873 235.951L201.335 235.641V235.211L201.192 235.131L200.48 234.725L200.118 234.936L199.61 235.228L199.284 235.418L198.972 235.598L196.893 236.8L196.85 237.64L196.652 241.225V241.248C196.652 241.258 196.652 241.271 196.65 241.281C196.65 241.318 196.65 241.351 196.643 241.391C196.643 241.399 196.641 241.409 196.641 241.418C196.639 241.455 196.633 241.49 196.625 241.529C196.623 241.548 196.619 241.568 196.614 241.589C196.608 241.618 196.604 241.647 196.596 241.676C196.594 241.686 196.59 241.699 196.588 241.709V241.711C196.579 241.744 196.569 241.779 196.559 241.816C196.557 241.825 196.553 241.833 196.55 241.839C196.54 241.878 196.528 241.918 196.511 241.959C196.509 241.969 196.503 241.978 196.501 241.988C196.484 242.027 196.47 242.064 196.453 242.104C196.451 242.11 196.447 242.116 196.445 242.122C196.437 242.135 196.433 242.149 196.427 242.162C196.416 242.184 196.406 242.209 196.396 242.23C196.394 242.234 196.389 242.24 196.387 242.246C196.385 242.253 196.381 242.257 196.379 242.263C196.363 242.296 196.348 242.329 196.33 242.362C196.303 242.405 196.278 242.453 196.251 242.498H196.253L198.97 240.932L199.282 240.75L199.608 240.562L201.33 239.566L201.681 239.363L203.748 238.169V237.042L201.873 235.951Z" fill="#E0E0DF"/>
<path d="M201.686 239.361L201.642 240.204L203.752 238.983V238.166L201.686 239.361ZM233.824 216.271H233.822L233.066 216.709L232.73 216.902L225.201 221.252L224.278 221.787L222.327 222.914L220.465 223.991L218.743 224.987L218.416 225.175L218.105 225.355L217.231 225.859L215.681 226.756L213.959 227.752L213.637 227.938L213.321 228.12L212.138 228.804L210.901 229.521L209.179 230.515L208.852 230.703L208.537 230.885L207.042 231.749L206.117 232.284L204.397 233.281L204.07 233.469L203.755 233.65L201.946 234.694L201.337 235.046L201.194 235.128L200.825 235.343L199.613 236.042L199.286 236.23L198.975 236.412L196.85 237.639L196.555 237.809L194.831 238.805L194.506 238.993L194.19 239.173L172.843 251.511L172.851 254.419L172.853 254.87V255.384L172.855 256.399L172.865 259.917L172.868 260.371V260.886L172.87 261.775V261.901L172.88 265.42L172.882 265.875V266.39L172.884 267.404L172.894 270.922L172.896 271.377V271.887L172.899 272.902V272.904L172.909 276.424L172.911 276.878L172.913 277.387V277.389L172.915 278.404V278.406L172.925 281.925V282.376L172.927 282.891L172.93 283.903V283.905L172.938 286.749V286.751L172.94 288.057L172.942 288.095V288.934L173.857 288.403H173.859L233.921 253.694L233.824 216.271ZM215.014 233.783L215.036 242.048C215.036 242.31 214.968 242.597 214.851 242.872C214.785 243.023 214.708 243.17 214.613 243.31C214.436 243.581 214.206 243.819 213.961 243.976C213.942 243.992 213.921 244.003 213.901 244.015L213.634 244.168L213.319 244.35L211.212 245.565L210.901 245.747L209.179 246.741L208.852 246.929L208.537 247.111L192.853 256.176C192.572 256.339 192.309 256.368 192.113 256.285C191.965 256.228 191.847 256.106 191.779 255.93C191.735 255.818 191.709 255.682 191.709 255.525V255.502L191.707 254.992V254.537L191.696 251.015L191.694 250L191.692 249.49V249.035L191.686 247.26C191.686 246.541 192.196 245.654 192.822 245.292L198.97 241.74L199.282 241.56L199.608 241.37L201.333 240.374L201.634 240.198H201.636L203.746 238.976L204.062 238.795L204.388 238.607L205.431 238.003L205.846 237.763L206.112 237.61L206.732 237.251L208.532 236.213L208.848 236.031L209.175 235.843L210.895 234.847L211.83 234.308L213.314 233.45L213.63 233.268L213.868 233.132C213.899 233.113 213.928 233.099 213.957 233.084C214.035 233.045 214.107 233.018 214.182 233.002C214.659 232.886 215.01 233.188 215.014 233.783ZM203.752 238.166V237.04L201.874 235.953L201.335 235.643V239.565L201.337 240.38L201.638 240.204H201.64L203.75 238.983L204.066 238.801V237.986L203.752 238.166Z" fill="#EFEEEE"/>
<path d="M213.636 239.811L213.321 239.993L213.273 240.022L213.321 239.995L213.636 239.813L213.963 239.625V239.623L213.636 239.811ZM210.901 240.636L210.49 240.4L210.488 240.398L210.031 240.665L209.179 241.159L208.852 241.347L208.536 241.529L206.437 242.742L206.119 242.928L204.397 243.922V245.154L206.119 244.16L206.366 244.017L208.536 242.763L208.852 242.581L209.179 242.393L210.901 241.399V241.397L211.097 241.285H211.099L211.32 241.157L211.462 241.074L211.468 240.963L210.901 240.636ZM204.07 245.338V245.34L204.151 245.292L204.07 245.338ZM204.068 238.799L203.752 238.981L201.642 240.202H201.64L201.339 240.378L199.615 241.374L199.288 241.564V242.587L199.615 242.399L201.339 241.403V241.401L201.584 241.26L203.754 240.006L204.07 239.824L204.397 239.636V238.613L204.068 238.799ZM213.636 239.811L213.321 239.993L213.273 240.022L213.321 239.995L213.636 239.813L213.963 239.625V239.623L213.636 239.811ZM210.901 240.636L210.49 240.4L210.488 240.398L210.031 240.665L209.179 241.159L208.852 241.347L208.536 241.529L206.437 242.742L206.119 242.928L204.397 243.922V245.154L206.119 244.16L206.366 244.017L208.536 242.763L208.852 242.581L209.179 242.393L210.901 241.399V241.397L211.097 241.285H211.099L211.32 241.157L211.462 241.074L211.468 240.963L210.901 240.636ZM204.07 245.338V245.34L204.151 245.292L204.07 245.338ZM204.068 238.799L203.752 238.981L201.642 240.202H201.64L201.339 240.378L199.615 241.374L199.288 241.564V242.587L199.615 242.399L201.339 241.403V241.401L201.584 241.26L203.754 240.006L204.07 239.824L204.397 239.636V238.613L204.068 238.799ZM213.636 239.811L213.321 239.993L213.273 240.022L213.321 239.995L213.636 239.813L213.963 239.625V239.623L213.636 239.811ZM210.49 240.4L210.488 240.398L210.031 240.665L209.179 241.159L208.852 241.347L208.536 241.529L206.437 242.742L206.119 242.928L204.397 243.922V245.154L206.119 244.16L206.366 244.017L208.536 242.763L208.852 242.581L209.179 242.393L210.901 241.399V241.397L211.097 241.285H211.099L211.32 241.157L211.462 241.074L211.468 240.963L210.901 240.642L210.49 240.4ZM204.07 245.34L204.151 245.292L204.07 245.336V245.34ZM204.068 238.799L203.752 238.981L201.642 240.202H201.64L201.339 240.378L199.615 241.374L199.288 241.564V242.587L199.615 242.399L201.339 241.403V241.401L201.584 241.26L203.754 240.006L204.07 239.824L204.397 239.636V238.613L204.068 238.799ZM215.014 233.783C215.012 233.188 214.659 232.886 214.186 233.004C214.113 233.022 214.039 233.047 213.961 233.086C213.932 233.099 213.903 233.115 213.872 233.134L213.634 233.27L213.318 233.452L211.834 234.31L210.899 234.849L209.179 235.845L208.852 236.033L208.536 236.215L206.736 237.253L206.117 237.612L205.85 237.765L205.435 238.005L204.392 238.609L204.066 238.797L203.75 238.979L201.64 240.2H201.638L201.337 240.376L199.612 241.372L199.286 241.562L198.974 241.742L192.826 245.294C192.2 245.654 191.69 246.541 191.69 247.262L191.696 249.037V249.492L191.698 250.002L191.7 251.017L191.711 254.539V254.994L191.713 255.504V255.527C191.713 255.684 191.739 255.818 191.783 255.932C191.851 256.108 191.969 256.23 192.117 256.287C192.316 256.37 192.576 256.343 192.857 256.178L208.541 247.113L208.857 246.931L209.183 246.743L210.905 245.749L211.217 245.567L213.323 244.352L213.639 244.17L213.905 244.017C213.926 244.005 213.946 243.994 213.965 243.978C214.21 243.821 214.44 243.583 214.617 243.312C214.71 243.172 214.789 243.025 214.855 242.874C214.972 242.599 215.041 242.314 215.041 242.05L215.014 233.783ZM192.615 247.303C192.615 247.301 192.615 247.301 192.615 247.297C192.615 247.258 192.617 247.216 192.623 247.177C192.627 247.126 192.636 247.076 192.65 247.022C192.667 246.96 192.683 246.896 192.708 246.834C192.724 246.789 192.741 246.745 192.764 246.704C192.78 246.673 192.795 246.642 192.811 246.611C192.85 246.534 192.898 246.464 192.947 246.398C192.987 246.342 193.03 246.295 193.075 246.247C193.096 246.224 193.119 246.2 193.144 246.179C193.214 246.111 193.286 246.057 193.362 246.012L198.979 242.767L199.29 242.587L199.617 242.399L201.341 241.403V241.401L201.586 241.26L203.757 240.006L204.072 239.824L204.399 239.636L206.121 238.642V238.64L206.327 238.522L206.684 238.315L206.744 238.278H206.75L208.543 237.242V237.24L208.859 237.061V237.058L209.185 236.872V236.87L210.907 235.876L211.782 235.37L213.327 234.477L213.473 234.39C213.502 234.372 213.533 234.357 213.562 234.345C213.589 234.335 213.614 234.324 213.641 234.316C213.669 234.306 213.7 234.297 213.729 234.293C213.785 234.285 213.837 234.285 213.886 234.295C213.909 234.301 213.936 234.308 213.959 234.318C213.961 234.316 213.961 234.316 213.965 234.318C213.965 234.318 213.965 234.318 213.967 234.32C213.969 234.318 213.975 234.32 213.979 234.322C214.002 234.332 214.027 234.349 214.047 234.363C214.068 234.382 214.089 234.401 214.107 234.423C214.124 234.44 214.136 234.461 214.144 234.481C214.151 234.49 214.155 234.498 214.157 234.504C214.169 234.531 214.184 234.56 214.19 234.591C214.2 234.622 214.208 234.659 214.213 234.694C214.221 234.731 214.223 234.773 214.223 234.814L214.231 238.234L213.965 238.387L213.641 238.575L213.325 238.755V238.757L211.537 239.789L210.903 240.154L210.488 240.394L210.031 240.661L209.179 241.155L208.852 241.343L208.536 241.525L206.437 242.738L206.119 242.924L204.397 243.918L204.196 244.036L204.07 244.108L203.754 244.288V244.29L192.625 250.72V250.482L192.623 249.467L192.621 248.957L192.619 248.818V248.502L192.615 247.303ZM192.881 254.775C192.863 254.766 192.844 254.756 192.83 254.744C192.828 254.744 192.824 254.742 192.821 254.737C192.813 254.731 192.805 254.727 192.799 254.719C192.766 254.692 192.739 254.659 192.718 254.62C192.712 254.609 192.706 254.599 192.7 254.586C192.689 254.574 192.683 254.558 192.681 254.543C192.673 254.52 192.665 254.5 192.66 254.473C192.658 254.465 192.654 254.456 192.654 254.45C192.644 254.409 192.642 254.363 192.638 254.318C192.638 254.305 192.636 254.295 192.636 254.285V254.006L192.627 252.022V251.956L203.754 245.526V245.524L204.07 245.344L204.151 245.297L204.397 245.156V245.154L206.119 244.16L206.366 244.017L208.536 242.763L208.852 242.581L209.179 242.393L210.901 241.399V241.397L211.097 241.285H211.099L211.32 241.157L211.462 241.074L211.563 241.016L213.273 240.028L213.321 240.002L213.636 239.82L213.963 239.632L214.229 239.479V239.477H214.231L214.237 241.806C214.237 241.86 214.231 241.917 214.225 241.977C214.217 242.035 214.204 242.095 214.186 242.153C214.169 242.213 214.149 242.271 214.124 242.329C214.113 242.358 214.101 242.387 214.085 242.415C214.082 242.424 214.078 242.434 214.074 242.442C214.066 242.461 214.056 242.482 214.045 242.5C214.035 242.517 214.027 242.531 214.016 242.548C214.008 242.564 213.998 242.579 213.987 242.595C213.981 242.606 213.975 242.618 213.965 242.628C213.965 242.628 213.967 242.63 213.965 242.63L213.963 242.632C213.944 242.661 213.926 242.69 213.903 242.719C213.87 242.767 213.835 242.808 213.8 242.849H213.798C213.748 242.905 213.696 242.953 213.641 242.998C213.593 243.038 213.544 243.071 213.494 243.1L213.325 243.197L211.285 244.375L210.905 244.596L209.185 245.59L208.859 245.778L208.543 245.96L206.117 247.363L193.387 254.719C193.327 254.752 193.267 254.779 193.212 254.797C193.123 254.824 193.036 254.828 192.964 254.814C192.956 254.812 192.947 254.812 192.941 254.808C192.918 254.793 192.9 254.785 192.881 254.775ZM204.068 238.799L203.752 238.981L201.642 240.202H201.64L201.339 240.378L199.615 241.374L199.288 241.564V242.587L199.615 242.399L201.339 241.403V241.401L201.584 241.26L203.754 240.006L204.07 239.824L204.397 239.636V238.613L204.068 238.799ZM204.07 245.338V245.34L204.151 245.292L204.07 245.338ZM210.901 240.636L210.49 240.4L210.488 240.398L210.031 240.665L209.179 241.159L208.852 241.347L208.536 241.529L206.437 242.742L206.119 242.928L204.397 243.922V245.154L206.119 244.16L206.366 244.017L208.536 242.763L208.852 242.581L209.179 242.393L210.901 241.399V241.397L211.097 241.285H211.099L211.32 241.157L211.462 241.074L211.468 240.963L210.901 240.636ZM213.636 239.811L213.321 239.993L213.273 240.022L213.321 239.995L213.636 239.813L213.963 239.625V239.623L213.636 239.811ZM204.068 238.799L203.752 238.981L201.642 240.202H201.64L201.339 240.378L199.615 241.374L199.288 241.564V242.587L199.615 242.399L201.339 241.403V241.401L201.584 241.26L203.754 240.006L204.07 239.824L204.397 239.636V238.613L204.068 238.799ZM204.07 245.338V245.34L204.151 245.292L204.07 245.338ZM210.901 240.636L210.49 240.4L210.488 240.398L210.031 240.665L209.179 241.159L208.852 241.347L208.536 241.529L206.437 242.742L206.119 242.928L204.397 243.922V245.154L206.119 244.16L206.366 244.017L208.536 242.763L208.852 242.581L209.179 242.393L210.901 241.399V241.397L211.097 241.285H211.099L211.32 241.157L211.462 241.074L211.468 240.963L210.901 240.636ZM213.636 239.811L213.321 239.993L213.273 240.022L213.321 239.995L213.636 239.813L213.963 239.625V239.623L213.636 239.811ZM206.117 238.402L205.437 238.007L204.395 238.611L204.068 238.799V239.822L204.395 239.634L206.117 238.64V238.637L206.323 238.52L206.117 238.402ZM210.901 240.636L210.49 240.4L210.488 240.398L210.031 240.665L209.179 241.159L208.852 241.347L208.536 241.529L206.437 242.742L206.119 242.928L204.397 243.922L204.196 244.04L204.07 244.112V245.344L204.151 245.297L204.397 245.156V245.154L206.119 244.16L206.366 244.017L208.536 242.763L208.852 242.581L209.179 242.393L210.901 241.399V241.397L211.097 241.285H211.099L211.32 241.157L211.462 241.074L211.468 240.963L210.901 240.636ZM213.636 239.811L213.321 239.993L213.273 240.022L213.321 239.995L213.636 239.813L213.963 239.625V239.623L213.636 239.811ZM206.117 238.402L205.437 238.007L204.395 238.611L204.068 238.799L203.752 238.981L201.642 240.202H201.64L201.339 240.378L199.615 241.374L199.288 241.564V242.587L199.615 242.399L201.339 241.403V241.401L201.584 241.26L203.754 240.006L204.07 239.824L204.397 239.636L206.119 238.642V238.64L206.325 238.522L206.117 238.402Z" fill="#8E91BF"/>
<path d="M213.467 234.393L193.359 246.014C192.948 246.252 192.613 246.83 192.615 247.306L192.626 250.726L214.227 238.243L214.217 234.823C214.215 234.345 213.876 234.155 213.467 234.393Z" fill="#F8F8FB"/>
<path d="M214.235 241.8C214.235 242.023 214.161 242.267 214.041 242.49C213.905 242.742 213.706 242.963 213.492 243.09L193.383 254.709C192.972 254.946 192.635 254.756 192.633 254.283L192.627 251.95L211.319 241.149L214.229 239.467L214.235 241.8Z" fill="#6A6C8C"/>
<path d="M214.236 241.8C214.236 242.023 214.162 242.267 214.042 242.49C213.367 242.298 211.953 241.831 211.321 241.151L214.23 239.469L214.236 241.8Z" fill="#5D5E7B"/>
<path d="M233.064 215.896L233.822 216.272L232.729 216.904L233.064 215.896Z" fill="#E0E0DF"/>
<path d="M172.946 288.934L172.188 288.496L172.946 286.741V288.934Z" fill="#E0E0DF"/>
</svg>
