<svg width="475" height="337" viewBox="0 0 475 337" fill="none" xmlns="http://www.w3.org/2000/svg">
<g clip-path="url(#clip0)">
<g opacity="0.4">
<g opacity="0.4">
<path opacity="0.4" d="M281.425 174.013C257.009 159.926 217.548 159.926 193.29 174.013C193.174 174.08 193.065 174.145 192.955 174.212C177.339 183.417 172.018 196.284 176.965 208.005C179.593 214.245 185.133 220.164 193.57 225.033C217.989 239.123 257.46 239.123 281.721 225.033C305.975 210.947 305.843 188.103 281.425 174.013Z" fill="white"/>
<path opacity="0.4" d="M292.792 167.412C262.104 149.705 212.336 149.705 181.844 167.412C181.025 167.888 180.227 168.368 179.457 168.857L181.016 169.478C181.711 169.037 182.43 168.606 183.17 168.178C212.929 150.896 261.524 150.896 291.478 168.178C321.44 185.464 321.601 213.592 291.839 230.875C262.071 248.161 213.479 248.161 183.518 230.875C172.53 224.535 165.544 216.733 162.588 208.543L160.704 208.61C163.705 217.062 170.877 225.107 182.204 231.641C212.9 249.351 262.674 249.348 293.169 231.641C323.652 213.93 323.488 185.119 292.792 167.412Z" fill="white"/>
<path opacity="0.4" d="M303.875 160.975C267.041 139.725 207.286 139.725 170.694 160.975C169.193 161.847 167.75 162.745 166.369 163.663L170.52 165.307C171.709 164.528 172.945 163.766 174.23 163.019C208.887 142.891 265.476 142.891 300.361 163.019C335.253 183.15 335.436 215.906 300.78 236.034C266.113 256.164 209.525 256.164 174.633 236.034C161.38 228.387 153.139 218.919 149.912 209.009L144.897 209.193C148.231 219.778 156.968 229.909 171.116 238.074C207.959 259.331 267.711 259.331 304.313 238.074C340.911 216.82 340.715 182.233 303.875 160.975Z" fill="white"/>
<path opacity="0.4" d="M326.544 147.809C277.124 119.298 196.97 119.298 147.869 147.809C98.7621 176.327 99.023 222.723 148.443 251.237C169.241 263.238 195.479 270.187 222.555 272.086L222.294 265.89C198.027 264.004 174.578 257.674 155.908 246.902C110.633 220.782 110.395 178.274 155.383 152.147C200.362 126.027 273.797 126.027 319.072 152.147C348.405 169.073 358.84 192.866 350.325 214.632L360.363 216.73C370.18 192.779 358.882 166.469 326.544 147.809Z" fill="white"/>
<path opacity="0.4" d="M140.324 255.962C86.3891 224.843 86.0993 174.212 139.683 143.091C193.267 111.973 280.745 111.973 334.68 143.091C388.615 174.209 388.898 224.84 335.311 255.962C281.727 287.08 194.259 287.08 140.324 255.962ZM336.435 142.071C309.836 126.722 274.535 118.271 237.041 118.271C199.547 118.271 164.343 126.726 137.915 142.071C111.487 157.419 97.0009 177.823 97.1265 199.525C97.2489 221.229 111.964 241.634 138.563 256.982C165.161 272.33 200.465 280.778 237.959 280.778C275.447 280.778 310.654 272.327 337.082 256.982C363.51 241.634 377.993 221.229 377.874 199.528C377.755 177.823 363.037 157.419 336.435 142.071Z" fill="white"/>
<path opacity="0.4" d="M416.26 163.022L411.964 163.762C431.081 194.906 424.676 230.138 392.692 258.433L396.283 259.914C416.489 242.145 427.275 221.319 427.149 199.522C427.075 186.896 423.346 174.595 416.26 163.022ZM364.438 118.2C329.385 99.8106 284.436 89.75 236.884 89.75C186.227 89.75 138.663 101.169 102.962 121.901C67.2527 142.64 47.6844 170.209 47.8551 199.528C48.0161 228.85 67.9 256.419 103.835 277.151C139.777 297.887 187.467 309.306 238.124 309.303C268.455 309.306 297.672 305.212 323.904 297.472L321.717 295.226C252.32 315.556 165.097 308.936 106.911 275.365C34.4317 233.549 34.0485 165.507 106.061 123.688C175.883 83.1395 288.516 81.9069 361.362 119.99L364.438 118.2Z" fill="white"/>
<path opacity="0.4" d="M390.898 110.438C370.061 98.4138 345.775 89.1031 318.741 82.7662C292.632 76.6449 265.06 73.5424 236.79 73.5424C208.52 73.5424 180.984 76.6449 154.942 82.7662C127.98 89.1063 103.8 98.417 83.0976 110.441C62.3861 122.468 46.3862 136.49 35.52 152.118C25.0274 167.212 19.7553 183.163 19.8519 199.525C19.9453 215.89 25.3913 231.84 36.0546 246.931C36.747 247.913 37.4588 248.885 38.1899 249.85L42.3959 249.046C8.05813 203.847 22.6023 149.154 86.1926 112.224C169.077 64.0901 304.393 64.0868 387.822 112.224C471.255 160.361 471.696 238.686 388.811 286.819C337.234 316.773 265.357 328.091 198.311 320.763L197.245 323.28C210.671 324.76 224.359 325.51 238.207 325.504C266.474 325.507 294.013 322.401 320.058 316.28C347.024 309.94 371.191 300.629 391.903 288.602C412.605 276.579 428.617 262.556 439.48 246.928C449.97 231.831 455.239 215.884 455.145 199.518C455.058 183.156 449.606 167.206 438.943 152.112C427.912 136.493 411.745 122.465 390.898 110.438Z" fill="white"/>
<path opacity="0.4" d="M404.885 102.314C382.144 89.1932 355.652 79.0329 326.151 72.1199C309.697 68.2611 292.702 65.5029 275.334 63.8616L275.646 64.6887C322.628 69.1912 367.745 81.9037 404.006 102.826C496.423 156.148 496.913 242.908 405.104 296.223C313.288 349.545 163.399 349.545 70.9818 296.223C-21.4263 242.908 -21.9126 156.148 69.9029 102.826C80.9173 96.4313 92.7754 90.8024 105.265 85.9427L104.972 85.1542C92.1313 90.1394 80.1186 95.8713 69.0204 102.314C46.4184 115.442 28.9468 130.742 17.1015 147.799C5.65234 164.268 -0.0963961 181.673 0.000221255 199.528C0.10328 217.38 6.05491 234.785 17.6844 251.257C29.7262 268.311 47.3653 283.614 70.1058 296.732C92.8527 309.856 119.345 320.013 148.849 326.933C177.345 333.611 207.428 336.997 238.275 337C269.118 336.997 299.166 333.611 327.588 326.933C357.008 320.017 383.391 309.856 405.99 296.732C428.582 283.611 446.05 268.307 457.899 251.257C469.345 234.785 475.1 217.377 475 199.528C474.897 181.673 468.952 164.268 457.316 147.799C445.274 130.739 427.635 115.439 404.885 102.314Z" fill="white"/>
</g>
</g>
<path opacity="0.1" d="M374.544 190.501L336.947 168.809L337.449 168.516C338.67 167.808 339.295 166.881 339.34 165.948L339.349 165.938V164.448H339.346C339.32 163.489 338.68 162.533 337.42 161.806L327.092 155.846C328.931 154.439 329.71 152.714 329.43 151.037C329.762 149.052 328.606 146.995 325.968 145.47C321.298 142.776 313.752 142.776 309.111 145.47L297.714 138.895C295.15 137.417 290.97 137.417 288.422 138.895L286.767 139.857L283.582 141.707L286.767 139.857L248.014 117.502C245.792 116.218 242.162 116.218 239.953 117.502L66.4795 218.243C64.267 219.527 64.2799 221.625 66.5053 222.913L193.032 295.911C195.258 297.192 198.884 297.196 201.096 295.911L374.573 195.167C376.779 193.887 376.766 191.785 374.544 190.501ZM274.394 147.137C274.394 147.14 274.39 147.143 274.39 147.146C274.39 147.143 274.394 147.14 274.394 147.137Z" fill="black"/>
<path d="M67.7229 215.07V217.419L71.7454 220.016L74.338 215.565L72.3831 213.966L67.7229 215.07Z" fill="#005468"/>
<path d="M371.685 188.1V190.475L360.396 197.604L362.499 189.941L371.685 188.1Z" fill="#005468"/>
<path d="M370.051 188.18L332.226 166.357L325.52 170.251L360.676 190.533L197.415 285.346L79.2395 217.168L242.5 122.355L277.656 142.641L284.361 138.746L246.539 116.923C244.368 115.671 240.826 115.671 238.668 116.923L69.3298 215.263C67.172 216.515 67.1849 218.565 69.3556 219.82L192.868 291.081C195.039 292.333 198.581 292.333 200.739 291.081L370.077 192.741C372.232 191.486 372.222 189.432 370.051 188.18Z" fill="#005468"/>
<path d="M370.077 190.375L200.736 288.715C198.578 289.97 195.035 289.967 192.865 288.715L69.3556 217.454C67.1849 216.199 67.1688 214.152 69.3298 212.897L238.671 114.557C240.829 113.302 244.372 113.302 246.539 114.557L284.365 136.378L277.659 140.272L272.403 143.323C272.242 143.416 272.246 143.564 272.403 143.658L319.678 170.936C319.839 171.03 320.1 171.03 320.261 170.936L325.52 167.885L332.226 163.991L370.051 185.815C372.219 187.073 372.232 189.123 370.077 190.375Z" fill="#006683"/>
<path d="M360.396 188.142L244.065 121.023L83.3489 214.355L199.679 281.474L360.396 188.142Z" fill="white"/>
<path d="M333.81 159.109L322.683 152.688C318.155 155.318 310.786 155.318 306.229 152.688C301.672 150.059 301.646 145.795 306.174 143.165L295.047 136.745C292.545 135.3 288.464 135.3 285.978 136.745L284.361 137.684L277.656 141.579L272.4 144.63C272.242 144.723 272.242 144.874 272.403 144.968L319.678 172.243C319.839 172.336 320.1 172.336 320.261 172.243L325.517 169.192L332.223 165.298L333.839 164.358C336.326 162.916 336.313 160.554 333.81 159.109Z" fill="#DEA636"/>
<path d="M322.628 143.165C318.071 140.536 310.702 140.536 306.174 143.165C301.646 145.795 301.672 150.059 306.229 152.688C310.786 155.318 318.155 155.318 322.683 152.688C327.211 150.059 327.189 145.795 322.628 143.165Z" fill="#DEA636"/>
<path d="M322.628 141.865C318.071 139.236 310.702 139.236 306.174 141.865C301.646 144.494 301.672 148.759 306.229 151.388C310.786 154.018 318.155 154.018 322.683 151.388C327.211 148.759 327.189 144.494 322.628 141.865Z" fill="#FDBD40"/>
<path d="M272.284 144.784V143.516L273.959 143.413L273.615 144.923L273.122 145.083L272.284 144.784Z" fill="#DEA636"/>
<path d="M335.694 161.845V160.39L334.396 160.528L333.597 162.466L333.385 163.94L335.694 161.845Z" fill="#DEA636"/>
<path d="M333.81 157.809L322.683 151.388C318.155 154.017 310.786 154.017 306.229 151.388C301.672 148.759 301.646 144.494 306.174 141.865L295.047 135.444C292.545 133.999 288.464 133.999 285.978 135.444L284.361 136.384L277.656 140.278L272.4 143.329C272.242 143.423 272.242 143.574 272.403 143.667L319.678 170.943C319.839 171.036 320.1 171.036 320.261 170.943L325.517 167.892L332.223 163.998L333.839 163.058C336.326 161.616 336.313 159.251 333.81 157.809Z" fill="#FDBD40"/>
<path d="M254.79 153.046C253.873 152.515 252.797 152.273 251.57 152.315C250.343 152.36 249.232 152.669 248.237 153.245L246.8 154.079C245.805 154.655 245.277 155.298 245.206 156.01C245.138 156.721 245.563 157.339 246.481 157.87C247.386 158.391 248.369 158.662 249.435 158.684C250.494 158.703 251.399 158.491 252.143 158.041L252.162 158.015L251.106 157.406C250.53 157.741 249.911 157.909 249.248 157.905C248.584 157.902 247.95 157.725 247.338 157.374C246.723 157.02 246.481 156.595 246.607 156.1C246.732 155.604 247.164 155.144 247.898 154.716L249.344 153.876C250.072 153.454 250.865 153.203 251.721 153.129C252.578 153.055 253.312 153.194 253.927 153.548C254.539 153.898 254.845 154.269 254.852 154.652C254.858 155.038 254.578 155.392 254.011 155.72L255.067 156.328L255.112 156.315C255.93 155.858 256.311 155.331 256.253 154.735C256.198 154.14 255.711 153.577 254.79 153.046Z" fill="#979797"/>
<path d="M254.677 161.565C254.036 161.195 253.763 160.763 253.856 160.268C253.946 159.772 254.368 159.309 255.112 158.874L256.561 158.034C257.299 157.606 258.097 157.361 258.951 157.307C259.804 157.252 260.552 157.41 261.192 157.78C261.869 158.169 262.171 158.62 262.101 159.125C262.03 159.634 261.624 160.1 260.886 160.528L259.437 161.368C258.687 161.803 257.875 162.044 257.006 162.086C256.133 162.131 255.357 161.957 254.677 161.565ZM262.091 157.258C261.144 156.711 260.043 156.457 258.796 156.493C257.55 156.531 256.432 156.834 255.45 157.407L254.014 158.24C253.028 158.813 252.507 159.46 252.449 160.181C252.394 160.902 252.838 161.536 253.785 162.083C254.767 162.649 255.895 162.923 257.157 162.9C258.426 162.878 259.553 162.578 260.539 162.006L261.975 161.172C262.964 160.599 263.476 159.946 263.511 159.209C263.547 158.475 263.073 157.825 262.091 157.258Z" fill="#979797"/>
<path d="M273.083 163.734L271.982 163.1L265.763 166.714L265.714 166.701L268.037 160.821L266.935 160.187L258.861 164.876L259.963 165.51L266.194 161.893L266.243 161.906L263.908 167.789L265.009 168.423L273.083 163.734Z" fill="#979797"/>
<path d="M280.435 167.976L274.116 164.329L273.257 164.828L275.862 166.334L268.648 170.525L269.746 171.159L276.963 166.968L279.575 168.475L280.435 167.976Z" fill="#979797"/>
<path d="M279.013 171.458L281.863 169.804L283.705 170.866C284.265 171.191 284.558 171.5 284.575 171.799C284.591 172.098 284.372 172.378 283.918 172.642C283.438 172.922 282.945 173.051 282.436 173.028C281.93 173.006 281.364 172.816 280.742 172.459L279.013 171.458ZM284.565 170.367L281.621 168.671L273.554 173.357L274.652 173.991L278.149 171.96L280.191 173.138C280.623 173.389 280.835 173.662 280.826 173.965C280.816 174.267 280.594 174.544 280.156 174.799L279.418 175.227C279.158 175.378 278.929 175.536 278.726 175.7C278.523 175.864 278.43 176.028 278.449 176.182L279.583 176.836L279.715 176.758C279.702 176.607 279.769 176.456 279.914 176.308C280.056 176.16 280.256 176.012 280.507 175.867L281.267 175.426C281.744 175.149 282.046 174.86 282.175 174.56C282.304 174.261 282.214 173.939 281.914 173.598C282.513 173.733 283.074 173.775 283.599 173.72C284.124 173.669 284.594 173.521 285.006 173.283C285.753 172.848 286.088 172.385 286.011 171.886C285.937 171.384 285.454 170.879 284.565 170.367Z" fill="#979797"/>
<path d="M285.463 176.759L290.504 175.41L290.536 175.429L288.198 178.339L285.463 176.759ZM292.397 174.876L291.454 174.332L280.236 177.209L281.357 177.856L284.207 177.093L287.611 179.056L286.291 180.701L287.412 181.348L292.397 174.876Z" fill="#979797"/>
<path d="M299.489 178.834C298.572 178.303 297.496 178.062 296.269 178.104C295.042 178.149 293.931 178.458 292.935 179.034L291.499 179.868C290.504 180.444 289.976 181.087 289.905 181.799C289.837 182.51 290.262 183.128 291.18 183.659C292.085 184.18 293.068 184.45 294.134 184.473C295.193 184.492 296.098 184.28 296.842 183.829L296.861 183.804L295.805 183.195C295.229 183.53 294.61 183.697 293.947 183.694C293.283 183.691 292.649 183.514 292.037 183.163C291.422 182.809 291.18 182.384 291.306 181.889C291.431 181.393 291.863 180.933 292.597 180.505L294.043 179.665C294.771 179.243 295.564 178.992 296.42 178.918C297.277 178.844 298.011 178.982 298.626 179.336C299.238 179.687 299.544 180.057 299.551 180.44C299.557 180.827 299.277 181.181 298.71 181.509L299.766 182.117L299.811 182.104C300.629 181.647 301.01 181.119 300.952 180.524C300.897 179.929 300.41 179.365 299.489 178.834Z" fill="#979797"/>
<path d="M309.186 184.563L302.867 180.917L302.007 181.419L304.616 182.922L297.398 187.112L298.5 187.746L305.714 183.556L308.326 185.062L309.186 184.563Z" fill="#979797"/>
<path d="M292.359 204.179L214.153 159.058C212.794 158.272 210.575 158.272 209.223 159.058C207.873 159.843 207.88 161.127 209.239 161.912L287.444 207.034C288.803 207.819 291.022 207.819 292.375 207.034C293.728 206.248 293.718 204.964 292.359 204.179Z" fill="#E1E1E1"/>
<path d="M283.006 209.611L204.8 164.49C203.441 163.705 201.222 163.705 199.869 164.49C198.52 165.275 198.526 166.559 199.886 167.341L278.091 212.463C279.45 213.248 281.669 213.248 283.018 212.463C284.374 211.681 284.365 210.397 283.006 209.611Z" fill="#E1E1E1"/>
<path d="M273.654 215.041L195.448 169.92C194.089 169.134 191.87 169.134 190.518 169.92C189.165 170.705 189.175 171.989 190.534 172.774L268.739 217.895C270.098 218.681 272.317 218.681 273.67 217.895C275.019 217.11 275.013 215.826 273.654 215.041Z" fill="#E1E1E1"/>
<path d="M244.024 208.775L186.095 175.352C184.736 174.567 182.517 174.567 181.165 175.352C179.815 176.137 179.822 177.422 181.181 178.207L239.109 211.629C240.468 212.415 242.687 212.415 244.04 211.629C245.393 210.844 245.383 209.56 244.024 208.775Z" fill="#E1E1E1"/>
<path d="M250.33 228.587L172.125 183.465C170.766 182.68 168.547 182.68 167.194 183.465C165.845 184.251 165.851 185.535 167.21 186.32L245.416 231.441C246.775 232.227 248.994 232.227 250.346 231.441C251.696 230.656 251.689 229.372 250.33 228.587Z" fill="#E1E1E1"/>
<path d="M240.977 234.019L162.772 188.898C161.413 188.113 159.194 188.113 157.841 188.898C156.492 189.683 156.498 190.967 157.857 191.753L236.063 236.871C237.422 237.656 239.641 237.656 240.993 236.871C242.343 236.089 242.336 234.805 240.977 234.019Z" fill="#E1E1E1"/>
<path d="M211.348 227.753L153.42 194.331C152.061 193.545 149.842 193.545 148.489 194.331C147.14 195.116 147.146 196.4 148.505 197.185L206.434 230.608C207.793 231.393 210.012 231.393 211.364 230.608C212.717 229.819 212.707 228.538 211.348 227.753Z" fill="#E1E1E1"/>
<path d="M158.804 216.351L136.756 203.632C135.574 202.949 133.645 202.949 132.473 203.632C131.301 204.314 131.307 205.431 132.486 206.11L154.534 218.829C155.716 219.511 157.645 219.511 158.82 218.829C159.993 218.15 159.986 217.033 158.804 216.351Z" fill="#E1E1E1"/>
<path d="M151.819 220.409L129.771 207.69C128.589 207.008 126.66 207.008 125.487 207.69C124.312 208.372 124.321 209.489 125.5 210.168L147.548 222.887C148.73 223.569 150.659 223.569 151.835 222.887C153.007 222.205 153.001 221.091 151.819 220.409Z" fill="#E1E1E1"/>
<path d="M212.968 252.09L210.836 251.315L211.338 251.604C211.799 251.872 212.372 252.032 212.968 252.09ZM196.884 238.322L193.564 236.407C192.382 235.725 190.453 235.725 189.28 236.407C188.108 237.09 188.111 238.206 189.293 238.885L191.432 240.118C193.103 239.336 194.945 238.737 196.884 238.322ZM201.074 240.739L197.982 238.956C196.008 239.336 194.124 239.915 192.427 240.694L195.119 242.249C196.92 241.473 198.958 240.971 201.074 240.739ZM215.609 249.126L202.304 241.45C200.118 241.592 197.982 242.052 196.124 242.828L206.362 248.734L215.01 251.881C215.229 251.807 215.438 251.714 215.625 251.608C216.797 250.922 216.791 249.809 215.609 249.126Z" fill="#E1E1E1"/>
<path d="M209.467 254.742L191.303 248.132L204.356 255.663C205.538 256.345 207.464 256.345 208.639 255.663C209.084 255.402 209.361 255.08 209.467 254.742ZM188.688 241.679L186.578 240.462C185.396 239.78 183.467 239.78 182.295 240.462C181.119 241.145 181.126 242.261 182.308 242.941L185.499 244.781C186.253 243.678 187.316 242.628 188.688 241.679ZM191.599 243.359L189.683 242.252C189.554 242.342 189.432 242.432 189.309 242.522L191.599 243.359ZM208.623 253.181L196.076 245.943L188.498 243.185C187.699 243.89 187.065 244.64 186.588 245.412L186.82 245.547L209.254 253.712C209.106 253.519 208.897 253.339 208.623 253.181Z" fill="#E1E1E1"/>
<path d="M296.748 191.785L239.122 158.539L238.066 159.151L295.692 192.4L296.748 191.785Z" fill="#979797"/>
<path d="M197.982 238.956C204.346 237.733 211.66 238.586 216.739 241.515C222.478 244.827 223.644 249.802 220.217 253.777L220.922 254.034L220.98 254.066L220.484 254.353L220.117 254.694L219.544 254.485C218.806 255.196 217.918 255.865 216.864 256.48L217.331 256.651L216.587 257.336L215.808 257.053C208.642 260.629 197.754 260.448 190.923 256.506C186.118 253.732 184.52 249.792 186.14 246.252L185.348 245.963L186.092 245.28L186.562 245.451C186.572 245.438 186.578 245.425 186.588 245.409C187.064 244.637 187.699 243.887 188.498 243.182L187.931 242.976L188.672 242.291L189.309 242.522C189.432 242.432 189.554 242.339 189.683 242.252C190.043 241.998 190.43 241.753 190.839 241.515C191.348 241.219 191.876 240.945 192.427 240.694C194.124 239.915 196.008 239.336 197.982 238.956ZM217.721 240.942C212.082 237.688 203.879 236.816 196.884 238.319C194.948 238.734 193.103 239.336 191.432 240.115C190.884 240.369 190.356 240.646 189.85 240.939C189.441 241.177 189.055 241.422 188.691 241.673C187.319 242.622 186.256 243.671 185.502 244.778C182.707 248.885 184.192 253.754 189.94 257.072C197.65 261.52 210.156 261.52 217.815 257.072C225.47 252.631 225.431 245.393 217.721 240.942Z" fill="#979797"/>
<path d="M212.427 255.82L211.142 255.354C205.992 257.343 199.03 256.973 194.559 254.395C191.603 252.689 190.234 250.314 190.804 247.948L189.513 247.479C188.656 250.211 190.157 252.992 193.574 254.964C198.669 257.903 206.685 258.25 212.427 255.82Z" fill="#979797"/>
<path d="M214.086 243.056C210.546 241.016 205.638 240.244 201.074 240.739C198.962 240.971 196.92 241.473 195.123 242.249C194.559 242.49 194.021 242.76 193.512 243.056C193.165 243.259 192.833 243.472 192.521 243.694L193.715 244.128C193.967 243.954 194.227 243.787 194.501 243.626C195.013 243.33 195.554 243.063 196.124 242.825C197.983 242.049 200.118 241.592 202.305 241.447C206.147 241.196 210.15 241.924 213.1 243.626C217.042 245.902 218.089 249.284 215.815 252.174L217.01 252.609C219.625 249.393 218.488 245.596 214.086 243.056Z" fill="#979797"/>
<path d="M217.331 256.651L216.864 256.48L212.829 255.013L212.343 254.836L209.251 253.709L186.82 245.544L186.562 245.451L186.092 245.28L185.348 245.963L186.14 246.252L189.515 247.482L190.804 247.948L191.303 248.132L209.467 254.742L211.142 255.354L212.427 255.82L215.808 257.053L216.588 257.336L217.331 256.651Z" fill="#979797"/>
<path d="M220.977 254.067L220.923 254.034L220.217 253.777L217.01 252.609L215.815 252.174L215.006 251.881L206.359 248.734L193.712 244.128L192.517 243.694L191.599 243.359L189.309 242.526L188.668 242.294L187.928 242.976L188.498 243.182L196.076 245.943L210.839 251.315L212.968 252.091L219.544 254.485L220.117 254.694L220.485 254.353L220.977 254.067Z" fill="#979797"/>
<g opacity="0.1">
<g opacity="0.1">
<g opacity="0.1">
<path opacity="0.1" d="M398.999 153.029L312.024 102.849C308.516 100.824 302.79 100.824 299.306 102.849L298.256 103.457C294.771 105.481 294.79 108.793 298.297 110.817L385.272 160.998C388.78 163.022 394.506 163.022 397.99 160.998L399.04 160.39C402.525 158.365 402.506 155.054 398.999 153.029Z" fill="black"/>
</g>
</g>
</g>
<path d="M377.929 142.994L396.254 134.07V114.49L380.123 121.097L375.968 138.086L377.929 142.994Z" fill="#00546C"/>
<path d="M309.643 9.59376L322.429 3.19568L338.123 7.70459L329.662 15.641L316.319 18.6051L309.643 9.59376Z" fill="#5F83C2"/>
<path d="M397.254 133.531C418.049 121.456 417.995 82.5835 397.134 46.7074C376.272 10.8313 342.504 -8.46337 321.709 3.61163C300.914 15.6866 300.968 54.5587 321.829 90.4348C342.691 126.311 376.459 145.606 397.254 133.531Z" fill="#00546C"/>
<path d="M343.74 123.198C321.164 110.174 302.922 78.5985 302.996 52.6747C303.07 26.7509 321.431 16.2945 344.007 29.3224C366.583 42.347 384.825 73.9191 384.751 99.8429C384.673 125.767 366.313 136.223 343.74 123.198ZM344.046 15.0168C314.59 -1.97934 290.633 11.6665 290.536 45.4881C290.439 79.313 314.243 120.511 343.698 137.504C373.153 154.5 397.111 140.854 397.208 107.033C397.305 73.2078 373.501 32.0097 344.046 15.0168Z" fill="#006683"/>
<path d="M340.732 69.8479L329.312 40.3807C328.945 39.4377 329.17 38.6202 329.808 38.5655C330.017 38.5462 330.246 38.6138 330.475 38.7457C330.938 39.0129 331.389 39.5503 331.634 40.1844L343.048 69.6387C343.392 69.7449 343.75 69.8994 344.12 70.115C346.371 71.4152 348.242 74.3439 348.652 77.028L368.648 94.1207C369.692 95.0154 370.339 96.6085 370.084 97.6641C369.865 98.5652 369.057 98.7938 368.175 98.2853C368.023 98.1984 367.872 98.0889 367.717 97.9602L347.692 80.845C346.842 81.5595 345.54 81.5788 344.088 80.742C341.534 79.268 339.47 75.6956 339.476 72.7605C339.483 71.3541 339.956 70.3532 340.732 69.8479ZM344.004 29.3224C321.428 16.2977 303.067 26.7542 302.993 52.6748C302.919 78.5986 321.161 110.171 343.737 123.199C366.313 136.223 384.674 125.767 384.748 99.8429C384.822 73.9223 366.58 42.3471 344.004 29.3224Z" fill="white"/>
<path d="M340.732 69.8478C339.959 70.3531 339.482 71.354 339.479 72.754C339.469 75.6891 341.537 79.2615 344.091 80.7355C345.543 81.5723 346.841 81.553 347.695 80.8385L346.268 79.6187C345.292 78.7819 344.664 77.3337 344.796 76.2877C344.706 76.3489 344.597 76.3875 344.474 76.4004C344.265 76.4197 344.036 76.3521 343.808 76.2201C343.344 75.953 342.893 75.4155 342.648 74.7815L340.732 69.8478ZM344.12 70.1117C343.75 69.8993 343.392 69.7416 343.047 69.6354L344.964 74.5852C345.089 74.907 345.144 75.2128 345.141 75.4799C345.508 75.1066 346.104 75.0905 346.738 75.4574C346.89 75.5443 347.041 75.6537 347.196 75.7824L348.651 77.0247C348.242 74.3406 346.371 71.4119 344.12 70.1117Z" fill="#006683"/>
<path d="M330.471 38.7425C330.246 38.6105 330.014 38.5461 329.804 38.5622C329.167 38.617 328.945 39.4344 329.308 40.3774L340.729 69.8446L342.642 74.7816C342.886 75.4156 343.337 75.9531 343.801 76.2202C344.027 76.3521 344.258 76.4165 344.468 76.4004C344.59 76.3907 344.696 76.3521 344.79 76.2878C344.799 76.2137 344.812 76.1429 344.828 76.0754C344.89 75.8211 344.996 75.6216 345.141 75.4767C345.147 75.2096 345.089 74.9039 344.964 74.582L343.048 69.6322L331.634 40.1779C331.386 39.5471 330.935 39.0096 330.471 38.7425Z" fill="#006683"/>
<path d="M346.738 75.4575C346.104 75.0907 345.508 75.1067 345.141 75.4801C344.999 75.6249 344.89 75.8244 344.829 76.0787C344.812 76.1463 344.8 76.2171 344.79 76.2911C344.658 77.3403 345.286 78.7885 346.262 79.6221L347.688 80.8419L367.714 97.957C367.865 98.089 368.02 98.1952 368.171 98.2821C369.054 98.7906 369.862 98.5621 370.081 97.661C370.335 96.6053 369.691 95.0123 368.645 94.1176L348.648 77.0249L347.193 75.7826C347.041 75.6539 346.89 75.5444 346.738 75.4575Z" fill="#006683"/>
<path opacity="0.1" d="M43.4007 230.978C48.365 230.978 52.3894 229.543 52.3894 227.772C52.3894 226.002 48.365 224.567 43.4007 224.567C38.4365 224.567 34.4121 226.002 34.4121 227.772C34.4121 229.543 38.4365 230.978 43.4007 230.978Z" fill="black"/>
<path d="M43.6714 174.718C44.8115 174.959 45.9323 174.985 46.0064 176.588C46.0804 178.191 45.8614 181.592 44.2801 180.769C42.6988 179.945 41.3365 178.941 41.2657 177.122C41.1916 175.304 42.5185 174.477 43.6714 174.718Z" fill="#FAC2B0"/>
<path d="M43.771 182.982L44.7371 179.719L41.7903 178.831L41.0657 182.982H43.771Z" fill="#FAC2B0"/>
<path d="M40.5569 181.834C40.0964 181.47 38.5248 183.034 38.0417 184.003C37.5554 184.972 35.71 187.833 35.9193 190.024C36.1286 192.216 40.2123 193.439 40.2123 193.439L41.3653 191.341L40.5569 181.834Z" fill="#C667A7"/>
<path d="M47.5395 227.718C46.6377 227.254 45.62 226.427 45.343 225.809L44.9727 227.654H44.2931L43.8326 224.976C43.8326 224.976 43.0017 224.084 43.8326 222.488V222.485C43.8326 222.485 44.2931 218.977 43.7392 216.949C43.1852 214.919 42.3865 212.489 43.2786 210.583L43.0951 207.722L46.2319 209.293C46.2029 209.386 46.087 211.227 46.058 211.411C46.0258 211.594 45.8938 221.471 46.0805 222.334C46.1772 222.781 46.6796 223.875 47.2271 224.863C47.7327 225.777 48.277 226.601 48.5733 226.733C49.1916 227.01 48.4412 228.178 47.5395 227.718Z" fill="#FAC2B0"/>
<path d="M43.4681 226.212C42.1542 225.896 40.8208 223.772 40.8208 223.772L40.531 226.212H40.0608L39.5358 223.013C38.9304 221.7 39.6131 220.757 39.6131 220.757C39.7419 219.498 39.6131 214.149 39.4038 212.524C39.1944 210.899 40.1638 209.402 40.1638 209.402V207.017L43.0237 206.728C43.0237 206.728 42.9174 209.508 42.7628 210.583C42.6083 211.658 41.5905 221.317 41.5905 221.317C41.8224 222.266 42.6888 223.389 43.4649 224.255C44.1058 224.966 44.6887 225.507 44.8079 225.636C45.0688 225.922 44.7821 226.524 43.4681 226.212Z" fill="#FAC2B0"/>
<path d="M43.4682 226.212C42.1542 225.896 40.8208 223.772 40.8208 223.772C40.8208 223.772 40.5761 223.264 39.5358 223.013C38.9304 221.7 39.6131 220.757 39.6131 220.757C39.6131 220.757 40.2154 220.638 40.5632 221.101C40.9078 221.568 42.0124 224.007 42.8852 224.175C43.0656 224.21 43.2653 224.236 43.4682 224.252C44.109 224.963 44.692 225.504 44.8111 225.632C45.0688 225.922 44.7821 226.524 43.4682 226.212Z" fill="#2C53A4"/>
<path d="M40.8177 223.772L40.5279 226.212H40.0577L39.5327 223.012C40.573 223.263 40.8177 223.772 40.8177 223.772Z" fill="#234180"/>
<path d="M47.5391 227.718C46.6373 227.254 45.6196 226.427 45.3426 225.809L44.9723 227.653H44.2927L43.8322 224.976C43.8322 224.976 43.0013 224.084 43.8322 222.488C44.2348 222.571 44.8402 222.755 45.0818 223.222C45.3974 223.83 45.9513 225.03 46.7114 225.03C46.8917 225.03 47.0656 224.963 47.2234 224.86C47.7291 225.774 48.2734 226.598 48.5696 226.73C49.1912 227.01 48.4408 228.178 47.5391 227.718Z" fill="#2C53A4"/>
<path d="M45.3461 225.809L44.9758 227.653H44.2962L43.8357 224.976C43.8357 224.979 44.7858 225.079 45.3461 225.809Z" fill="#234180"/>
<path d="M38.5792 192.963C38.5792 192.963 37.5615 195.148 38.183 196.97C38.8046 198.791 40.2764 204.607 39.9189 207.716C39.9189 207.716 42.0381 209.936 46.2892 209.759C46.2892 209.759 49.2747 200.446 46.0187 195.399L38.5792 192.963Z" fill="#173660"/>
<path d="M42.5636 181.692C43.6231 182.095 46.7471 184.038 47.2173 184.689C47.6875 185.335 46.8373 187.997 46.5249 189.407C46.2125 190.816 45.8711 194.817 46.0192 195.399C46.1674 195.982 42.8534 196.452 40.818 194.974C38.7826 193.497 38.5797 192.963 38.5797 192.963C38.5797 192.963 38.3575 189.384 38.7375 185.741C39.1175 182.098 39.7456 180.621 42.5636 181.692Z" fill="#B0519E"/>
<path d="M47.874 187.254C47.713 188.061 46.5826 192.052 46.8595 193.665C46.9497 194.196 47.1977 195.013 47.4908 195.901C46.4215 196.426 45.6647 196.58 45.188 196.609C44.8467 195.782 44.589 194.859 44.5504 193.874C44.4344 190.829 45.0141 187.344 45.5198 186.169C46.0286 184.994 46.6438 184.534 47.3072 184.878C47.903 185.191 48.035 186.446 47.874 187.254Z" fill="#C667A7"/>
<path d="M47.8643 203.748C47.0882 203.77 46.9271 203.194 47.0882 202.132C47.2492 201.073 47.4811 200.909 47.1816 200.149C46.9755 199.634 45.8998 198.337 45.1848 196.612C45.6647 196.583 46.4183 196.429 47.4875 195.904C48.0866 197.726 48.882 199.831 48.911 200.314C48.9593 201.025 48.6373 203.725 47.8643 203.748Z" fill="#FAC2B0"/>
<path d="M46.2802 175.564C46.351 176.121 45.9936 177.322 45.4396 178.01C44.8825 178.702 44.1933 181.238 44.6892 182.242C44.6892 182.242 43.6393 180.981 43.4429 179.407C43.4429 179.407 43.6844 182.738 42.3028 182.738C40.9211 182.738 39.6909 182.181 39.9582 180.682C40.2287 179.182 41.1144 178.715 41.1144 178.715C41.1144 178.715 39.2529 177.454 40.467 174.918C41.6844 172.385 46.0258 173.556 46.2802 175.564Z" fill="#52260F"/>
<path opacity="0.1" d="M432.34 201.771C437.311 201.771 441.341 200.333 441.341 198.559C441.341 196.785 437.311 195.347 432.34 195.347C427.369 195.347 423.338 196.785 423.338 198.559C423.338 200.333 427.369 201.771 432.34 201.771Z" fill="black"/>
<path d="M427.516 197.368C428.956 197.526 429.075 196.57 430.196 196.77C431.313 196.972 431.954 196.85 432.273 196.371C432.424 196.139 432.305 195.395 432.125 194.559C431.928 193.645 431.658 192.624 431.593 192.058C431.471 190.98 431.793 188.663 431.751 187.546C431.709 186.429 430.991 184.472 430.991 184.472L431.271 178.963C431.271 178.963 431.99 183.954 432.189 185.087C432.386 186.22 434.151 194.736 434.431 195.975C434.453 196.081 434.466 196.187 434.473 196.29C434.502 197.388 433.394 198.321 432.553 199.489C431.635 200.767 432.753 201.208 432.753 201.208C434.791 201.565 435.271 200.168 435.574 199.65C435.874 199.132 436.949 198.733 437.548 198.173C438.147 197.613 437.787 196.815 437.548 195.614C437.539 195.556 437.526 195.495 437.516 195.424C437.287 194.002 437.075 189.834 437.191 188.463C437.31 187.025 436.067 184.469 436.067 184.469C436.067 184.469 436.311 184.109 436.53 179.355C436.749 174.602 435.574 170.299 435.574 170.299C429.481 172.307 427.146 169.488 427.146 169.488C427.146 169.488 426.956 169.41 426.318 172.333C425.68 175.255 428.238 184.826 428.238 184.826C428.556 186.703 429.397 194.572 429.397 194.572C429.391 194.633 429.368 194.697 429.336 194.758C428.866 195.643 426.015 196.429 425.68 196.728C425.317 197.046 426.077 197.207 427.516 197.368Z" fill="#17134B"/>
<path d="M427.516 197.368C428.956 197.526 429.075 196.57 430.196 196.77C431.313 196.973 431.954 196.85 432.273 196.371C432.424 196.139 432.305 195.396 432.125 194.559C431.532 194.765 430.556 194.971 429.336 194.762C428.866 195.647 426.015 196.432 425.68 196.731C425.317 197.047 426.077 197.208 427.516 197.368Z" fill="#802A19"/>
<path d="M432.75 201.201C434.788 201.559 435.268 200.162 435.571 199.644C435.871 199.126 436.946 198.726 437.545 198.166C438.144 197.606 437.784 196.808 437.545 195.608C437.536 195.55 437.523 195.489 437.513 195.418C437.201 195.946 436.644 196.525 435.71 196.56C435.207 196.58 434.798 196.461 434.47 196.284C434.499 197.381 433.391 198.314 432.55 199.483C431.632 200.764 432.75 201.201 432.75 201.201Z" fill="#802A19"/>
<path d="M423.149 164.294C424.058 164.822 424.827 165.05 425.362 165.15C426.322 163.257 428.106 159.64 428.399 158.346C428.802 156.563 428.589 155.366 426.773 155.125C426.773 155.125 425.816 155.9 425.301 157.226C424.895 158.275 423.649 162.553 423.149 164.294Z" fill="#F79A4B"/>
<path d="M414.763 172.333C414.872 172.578 416.279 173.843 417.651 173.09C419.023 172.333 423.828 168.426 424.753 166.334C424.753 166.334 424.997 165.864 425.361 165.147C424.827 165.047 424.057 164.818 423.149 164.291C423.017 164.751 422.933 165.031 422.933 165.031C422.933 165.031 421.629 165.887 420.975 166.778C420.324 167.67 419.535 169.417 418.676 169.623C417.819 169.829 416.17 169.211 415.967 169.623C415.761 170.032 417.133 170.479 417.133 170.479C417.133 170.479 414.65 172.092 414.763 172.333Z" fill="#FAC2B0"/>
<path d="M431.967 153.914C430.66 153.486 427.017 154.754 426.772 155.125C426.528 155.495 425.838 157.377 426.08 159.653C426.325 161.928 426.908 163.676 426.84 165.79C426.772 167.905 426.556 169.974 426.556 169.974C426.556 169.974 427.729 172.069 431.391 171.854C434.44 171.673 435.568 170.299 435.568 170.299C435.568 170.299 435.445 164.487 436.041 161.481C436.637 158.475 437.184 157.664 436.238 156.811C435.291 155.961 434.028 154.587 431.967 153.914Z" fill="#F6923C"/>
<path d="M433.745 160.76C434.047 162.382 435.928 165.372 436.137 166.25C437.255 165.858 438.427 165.745 439.329 165.732C439.145 162.53 437.116 157.281 436.588 157.229C435.554 157.126 433.429 159.07 433.745 160.76Z" fill="#F79A4B"/>
<path d="M434.06 173.025C434.06 173.025 434.196 174.106 435.616 174.399C435.616 174.399 439.452 169.098 439.339 165.922C439.336 165.861 439.332 165.796 439.329 165.732C438.427 165.745 437.258 165.858 436.138 166.25C436.147 166.286 436.154 166.321 436.157 166.35L434.06 173.025Z" fill="#FAC2B0"/>
<path d="M433.483 147.532C433.12 146.782 431.619 146.795 430.801 147.053C429.986 147.31 429.116 147.378 428.521 147.246C427.925 147.117 427.352 147.899 427.741 148.726C428.131 149.553 428.572 150.004 429.31 149.821C430.047 149.64 430.566 153.097 431.564 153.097C432.562 153.097 433.999 152.579 433.999 150.741C434.002 148.907 433.667 147.909 433.483 147.532Z" fill="#3A3A3A"/>
<path d="M430.785 148.495C429.307 148.495 428.611 148.923 428.46 150.04C428.308 151.156 428.37 154.323 429.365 155.108C429.365 155.108 432.112 155.469 432.595 152.875C433.078 150.281 432.898 148.617 430.634 148.453L430.785 148.495Z" fill="#FAC2B0"/>
<path d="M432.337 151.726C432.337 151.726 431.954 151.764 431.89 150.995C431.825 150.226 431.5 149.824 430.489 149.965C429.477 150.107 428.778 150.03 428.273 149.524C427.767 149.019 428.144 147.983 429.687 147.918C431.229 147.854 432.759 148.099 433.12 149.473C433.484 150.844 433.474 151.436 432.978 151.723C432.485 152.012 432.337 151.726 432.337 151.726Z" fill="#3A3A3A"/>
<path d="M432.676 152.424L433.065 154.371C433.065 154.371 432.795 156.064 431.059 156.064C431.059 156.064 430.109 155.929 430.109 155.266L429.825 153.425L432.676 152.424Z" fill="#FAC2B0"/>
<path d="M432.337 151.726C432.337 151.726 433.071 150.619 433.509 151.134C433.947 151.649 433.039 152.524 432.401 152.447L432.337 151.726Z" fill="#FAC2B0"/>
<path opacity="0.1" d="M293.666 316.831C298.638 316.831 302.668 315.392 302.668 313.619C302.668 311.845 298.638 310.407 293.666 310.407C288.695 310.407 284.665 311.845 284.665 313.619C284.665 315.392 288.695 316.831 293.666 316.831Z" fill="black"/>
<path d="M302.291 279.797C302.761 280.569 301.924 284.898 301.849 285.271C302.471 285.555 303.199 285.693 303.766 285.757C303.853 285.184 304.632 279.958 304.651 279.089C304.674 278.168 301.463 273.17 301.102 272.704C300.742 272.234 300.155 272.234 299.743 272.704C299.276 273.235 298.722 274.426 298.954 275.04C299.186 275.655 301.801 278.989 302.291 279.797Z" fill="#4F87C6"/>
<path d="M300.951 287.569C301.247 287.717 301.759 286.826 301.759 286.826C301.759 286.826 301.759 288.757 302.194 288.992C302.632 289.224 303.566 289.121 304.055 288.844C304.545 288.567 303.756 285.806 303.756 285.806C303.756 285.806 303.759 285.79 303.762 285.754C303.195 285.69 302.468 285.552 301.846 285.268C301.843 285.284 301.843 285.294 301.843 285.294C301.311 285.893 300.654 287.421 300.951 287.569Z" fill="#FAC2B0"/>
<path d="M295.66 263.486C294.652 263.856 292.99 263.573 293.927 268.047C293.927 268.047 294.333 269.955 294.777 270.026C295.219 270.097 296.352 269.778 297.006 268.842C297.66 267.905 295.66 263.486 295.66 263.486Z" fill="#FAC2B0"/>
<path d="M296.256 271.722C296.256 271.722 295.972 269.913 295.248 269.54L298.211 268.443L298.584 271.088L296.256 271.722Z" fill="#FAC2B0"/>
<path d="M297.686 270.879C296.587 271.059 294.372 271.857 293.412 272.713C292.452 273.573 291.853 275.307 292.233 277.122C292.613 278.938 292.871 280.814 292.472 282.03C292.072 283.247 291.673 284.824 291.673 284.824C291.673 284.824 296.784 286.658 299.679 284.145C299.679 284.145 299.141 281.351 299.679 279.417C300.217 277.483 301.557 274.866 300.938 272.671C300.32 270.48 297.686 270.879 297.686 270.879Z" fill="#3C77BB"/>
<path d="M284.188 282.224C284.62 283.369 285.125 283.788 285.125 283.788C285.125 283.788 289.718 281.734 290.778 280.814C291.837 279.897 293.892 276.305 294.391 275.565C294.89 274.825 294.594 273.605 294.253 273.312C293.56 272.71 293.386 272.53 292.452 273.859C291.518 275.188 290.201 278.281 289.103 279.037C288.005 279.797 284.272 282.211 284.272 282.211C284.272 282.211 284.24 282.217 284.188 282.224Z" fill="#4F87C6"/>
<path d="M282.291 285.303C282.471 285.783 283.83 286.52 283.93 286.201C284.03 285.883 283.611 285.384 283.611 285.384C283.611 285.384 284.89 284.624 285.128 283.788C285.128 283.788 284.623 283.369 284.191 282.223C283.856 282.285 282.536 282.542 282.291 283.028C282.011 283.588 282.111 284.827 282.291 285.303Z" fill="#FAC2B0"/>
<path d="M289.05 308.431C289.958 308.917 290.764 309.055 291.34 309.071C291.411 308.006 291.446 306.867 291.675 306.31C292.113 305.232 293.295 304.112 293.859 302.753C294.422 301.395 293.649 298.447 293.649 298.447C293.649 298.447 297.231 293.488 299.102 290.118C300.976 286.749 299.678 284.151 299.678 284.151L294.416 284.618C294.416 284.618 291.279 296.484 291.092 297.543C290.905 298.602 289.688 307.011 289.079 308.373C289.07 308.389 289.063 308.411 289.05 308.431Z" fill="#67481C"/>
<path d="M284.726 309.959C285.103 310.803 287.209 310.523 287.866 311.102C288.523 311.684 290.208 312.019 290.865 311.334C291.052 311.141 291.161 310.738 291.235 310.236C289.361 310.413 288.575 309.573 288.292 309.119C287.467 309.438 286.34 309.135 285.808 309.071C285.052 308.978 284.353 309.119 284.726 309.959Z" fill="#4C3718"/>
<path d="M288.288 309.119C288.571 309.573 289.357 310.413 291.231 310.236C291.283 309.882 291.315 309.483 291.341 309.071C290.764 309.055 289.959 308.917 289.051 308.431C288.877 308.785 288.603 308.997 288.288 309.119Z" fill="#FAC2B0"/>
<path d="M297.998 316.158C297.959 316.605 300.017 317.172 300.877 316.563C301.737 315.955 304.703 312.399 304.217 311.536C303.727 310.674 303.038 310.555 303.038 310.555C302.523 311.935 301.289 312.656 300.52 312.985C300.278 314.069 299.859 315.118 299.502 315.347C298.813 315.794 298.04 315.71 297.998 316.158Z" fill="#4C3718"/>
<path d="M294.423 299.023C297.917 305.763 299.907 309.58 300.519 310.474C300.558 310.532 300.59 310.597 300.616 310.677C301.469 309.918 302.307 309.412 302.307 309.412C302.307 309.412 301.25 303.449 299.585 301.054C297.92 298.66 297.138 298.212 297.138 298.212C297.138 298.212 298.651 289.236 298.12 286.803C297.592 284.367 297.138 284.409 297.138 284.409L291.675 284.827C291.675 284.827 290.928 292.281 294.423 299.023Z" fill="#805A24"/>
<path d="M300.519 312.985C301.289 312.656 302.523 311.936 303.038 310.555L302.307 309.412C302.307 309.412 301.469 309.918 300.616 310.677C300.793 311.182 300.716 312.096 300.519 312.985Z" fill="#FAC2B0"/>
<path d="M293.395 265.359C293.824 266.698 294.88 266.495 294.851 267.406C294.822 268.317 295.682 269.524 297.237 269.727C297.237 269.727 298.416 276.192 297.241 279.086C297.357 278.986 302.081 274.693 299.115 268.7L299.06 267.995C299.06 267.995 300.184 265.424 299.115 263.657C298.043 261.89 296.113 262.64 296.113 262.64C294.181 263.39 292.967 264.021 293.395 265.359Z" fill="#87574E"/>
<path d="M296.816 269.215L297.234 269.727C297.856 268.78 299.112 268.7 299.112 268.7L299.057 267.995C297.231 268.282 296.816 269.215 296.816 269.215Z" fill="#4F332E"/>
<path opacity="0.1" d="M113.072 148.91C118.043 148.91 122.073 147.472 122.073 145.698C122.073 143.924 118.043 142.486 113.072 142.486C108.1 142.486 104.07 143.924 104.07 145.698C104.07 147.472 108.1 148.91 113.072 148.91Z" fill="black"/>
<path d="M119.139 130.427C119.023 131.348 117.87 139.606 117.931 140.816C116.756 141.685 115.11 141.621 115.11 141.621C115.11 141.621 114.936 138.222 114.849 137.102C114.762 135.979 114.389 133.678 114.444 132.78C114.501 131.882 115.5 130.398 115.5 130.398V121.709C115.5 121.709 114.157 128.876 113.004 131.554C111.851 134.228 109.725 145.512 109.725 145.512C110.266 147.031 114.25 148.759 112.018 149.67C109.787 150.584 108.473 148.228 107.857 147.945C107.242 147.661 105.89 147.163 106.692 144.762C107.493 142.358 107.336 137.749 107.529 135.242C107.722 132.735 109.159 130.305 109.159 130.305C109.159 130.305 109.081 129.014 109.159 126.43C109.236 123.849 110.431 115.684 110.431 115.684H120.263C120.263 115.684 119.255 129.503 119.139 130.427Z" fill="#212120"/>
<path d="M112.022 149.666C109.79 150.58 108.476 148.225 107.861 147.941C107.246 147.658 105.893 147.159 106.695 144.758C106.695 144.758 107.69 146.017 109.732 145.508C110.267 147.024 114.254 148.756 112.022 149.666Z" fill="#333333"/>
<path d="M121.819 143.777C120.923 144.581 119.255 143.806 118.131 143.635C117.007 143.462 116.202 143.664 115.32 143.462C114.434 143.262 115.11 141.621 115.11 141.621C115.11 141.621 116.759 141.685 117.932 140.816C117.989 142.023 122.711 142.972 121.819 143.777Z" fill="#333333"/>
<path d="M118.064 116.199L115.503 116.263C115.503 116.263 115.104 102.743 112.383 100.397C113.101 100.091 113.706 99.859 113.951 99.7657C114.431 99.5823 115.365 99.5404 116.331 99.5758C119.104 104.867 118.064 116.199 118.064 116.199Z" fill="white"/>
<path d="M109.729 117.151C107.919 115.842 103.899 113.444 103.899 112.533C103.899 111.381 107.519 104.442 107.967 103.496C108.415 102.556 109.403 101.542 110.676 102.202C111.703 102.733 112.173 104.172 111.523 105.404C111.239 105.939 107.664 111.262 107.967 111.944C108.192 112.443 110.173 114.178 111.423 115.201C110.927 115.623 110.199 116.318 109.729 117.151Z" fill="#333333"/>
<path d="M129.323 112.279C129.323 112.279 125.342 110.432 124.441 109.637C123.542 108.842 118.173 103.834 117.378 102.833C116.582 101.832 117.713 100.419 117.713 100.419C118.254 99.9043 119.036 99.5599 119.442 100.007C119.845 100.455 124.289 105.913 125.394 106.605C126.305 107.178 129.194 109.534 130.708 110.38C130.003 111.046 129.323 112.279 129.323 112.279Z" fill="#333333"/>
<path d="M135.921 112.613C135.947 112.919 134.301 114.821 132.169 113.923C131.042 113.45 130.311 113.016 129.873 112.713C130.098 112.04 131.007 111.02 131.338 110.666C131.38 110.679 131.419 110.685 131.454 110.689C132.404 110.766 134.227 109.662 134.846 110.228C135.461 110.792 133.483 111.538 133.483 111.538C133.483 111.538 135.896 112.304 135.921 112.613Z" fill="#FAC2B0"/>
<path d="M131.339 110.666C131.011 111.02 130.099 112.041 129.874 112.713C129.532 112.482 129.368 112.324 129.329 112.288L129.323 112.279C129.323 112.279 130.003 111.046 130.708 110.38C130.962 110.525 131.178 110.625 131.339 110.666Z" fill="white"/>
<path d="M114.575 121.554C113.606 122.027 110.16 122.655 109.258 122.04C108.353 121.425 110.121 115.381 110.163 114.499C110.208 113.617 110.163 109.038 109.754 107.683C109.345 106.328 108.269 103.361 108.743 102.479C109.058 101.89 110.946 101.005 112.382 100.4C115.104 102.746 115.503 116.266 115.503 116.266C115.503 116.266 115.545 121.081 114.575 121.554Z" fill="#333333"/>
<path d="M120.196 122.005C119.764 122.22 118.022 121.338 117.958 120.82C117.893 120.305 118.064 116.196 118.064 116.196C118.064 116.196 119.104 104.867 116.334 99.5728C117.735 99.621 119.201 99.8302 119.442 100.004C119.851 100.3 120.798 101.697 120.753 103.654C120.711 105.61 120.737 115.484 120.756 116.604C120.776 117.724 120.624 121.789 120.196 122.005Z" fill="#333333"/>
<path d="M115.606 101.114L116.215 101.993C116.215 101.993 116.292 100.506 115.912 99.4761L115.606 101.114Z" fill="#EFEFEF"/>
<path d="M115.132 102.299C115.132 102.299 116.578 108.307 116.289 112.279L117.216 114.162L117.85 112.111C117.85 112.111 116.733 104.127 115.954 102.186L115.132 102.299Z" fill="#ED2A5B"/>
<path d="M116.266 93.2582C117.39 93.3805 118.073 93.7667 118.25 94.6067C118.424 95.4467 118.144 96.6407 118.022 97.0784C117.899 97.5161 116.933 99.9717 116.495 100.007C116.057 100.042 113.655 98.974 113.619 97.4292C113.584 95.8876 113.619 93.6412 114.076 93.5028C114.531 93.3612 116.266 93.2582 116.266 93.2582Z" fill="#FAC2B0"/>
<path d="M113.742 96.8049C113.742 96.8049 114.859 95.5948 114.859 94.7323C114.859 94.7323 117.626 95.1313 118.222 94.4941C118.222 94.4941 118.154 92.621 114.792 92.1962C111.429 91.7714 111.932 97.2458 112.879 98.3207L113.742 96.8049Z" fill="#6B461B"/>
<path d="M112.946 96.3832L112.789 100.007C112.789 100.007 112.863 101.806 115.555 101.481L116.109 98.2337L112.946 96.3832Z" fill="#FAC2B0"/>
<path d="M114.051 96.7664C114.051 96.7664 113.475 95.2699 112.821 95.8363C112.164 96.4027 113.462 97.5678 113.874 97.5999L114.051 96.7664Z" fill="#FAC2B0"/>
<path d="M112.792 99.4761L112.383 100.397C112.383 100.397 113.22 101.896 114.605 102.373L115.136 101.169C115.133 101.166 113.471 100.86 112.792 99.4761Z" fill="#EFEFEF"/>
<path d="M115.133 101.166L115.606 101.114L116.089 101.813L115.957 102.189L115.133 102.299L114.74 102.061L115.133 101.166Z" fill="#ED2A5B"/>
<path d="M112.636 120.325C111.815 120.183 112.321 119.337 112.173 119.169C112.025 119.005 110.801 118.606 110.591 117.924C110.572 117.859 110.501 117.776 110.385 117.67C110.385 117.67 110.952 116.598 112.025 115.684C112.189 115.813 112.311 115.903 112.382 115.948C112.901 116.276 113.886 117.312 114.054 118.136C114.215 118.957 113.458 120.466 112.636 120.325Z" fill="#FAC2B0"/>
<path d="M112.022 115.684C110.953 116.598 110.383 117.669 110.383 117.669H110.379C110.228 117.528 110.003 117.354 109.726 117.151C110.196 116.318 110.924 115.622 111.423 115.204C111.655 115.391 111.858 115.555 112.022 115.684Z" fill="white"/>
<path opacity="0.1" d="M332.342 230.205C336.683 230.205 340.203 228.95 340.203 227.402C340.203 225.854 336.683 224.599 332.342 224.599C328 224.599 324.48 225.854 324.48 227.402C324.48 228.95 328 230.205 332.342 230.205Z" fill="black"/>
<path d="M336.309 224.129C336.2 224.538 336.068 224.869 335.913 224.924C335.482 225.069 335.066 225.291 334.042 224.589C333.018 223.888 332.954 222.385 332.747 221.825C332.644 221.548 332.483 221.39 332.348 221.3C332.277 220.019 332.158 218.439 331.997 217.821C331.707 216.717 330.796 211.297 330.796 211.297L327.572 208.198L331.543 206.808C331.543 206.808 333.111 208.575 333.453 209.353C333.791 210.132 334.129 219.086 334.406 220.225C334.545 220.814 335.562 222.529 336.309 224.129Z" fill="#EEB9A7"/>
<path d="M336.802 227.296C335.446 227.972 333.414 225.986 332.428 223.147C332.428 223.147 332.4 222.317 332.342 221.297C332.48 221.387 332.638 221.548 332.741 221.821C332.95 222.381 333.015 223.884 334.036 224.586C335.06 225.288 335.475 225.065 335.907 224.921C336.061 224.869 336.197 224.534 336.303 224.126C336.992 225.6 337.449 226.971 336.802 227.296Z" fill="#224D94"/>
<path d="M317.972 200.97C317.972 200.97 317.344 203.409 317.827 205.015C318.313 206.618 318.552 208.385 326.848 212.144C326.848 212.144 326.201 208.446 331.772 206.972C331.772 206.972 326.932 201.491 326.014 200.538L317.972 200.97Z" fill="#2656A5"/>
<path d="M333.94 226.691C333.853 227.138 333.312 227.306 333.312 227.306C330.787 228.139 329.837 223.302 329.837 223.302C329.837 223.302 329.972 221.622 329.837 220.856C329.698 220.09 328.507 216.991 328.252 216.012C327.998 215.037 328.075 212.691 328.075 212.691L326.671 212.06C326.362 209.534 328.349 208.195 328.349 208.195C328.349 208.195 330.755 210.052 331.244 210.95C331.734 211.848 331.714 219.079 331.776 220.154C331.837 221.226 332.201 224.312 333.94 226.691Z" fill="#FAC2B0"/>
<path d="M334.567 229.32C331.105 229.829 330.538 226.546 330.538 226.546V227.972C330.187 228.107 330.03 227.856 330.03 227.856C330.107 227.309 329.559 225.355 329.579 224.535C329.595 223.714 329.836 223.305 329.836 223.305C329.836 223.305 330.786 228.142 333.311 227.309C333.311 227.309 333.856 227.141 333.939 226.694C333.946 226.704 333.955 226.713 333.962 226.723C335.723 229.105 334.567 229.32 334.567 229.32Z" fill="#224D94"/>
<path d="M324.442 206.325L328.477 209.112C328.526 209.145 328.587 209.148 328.635 209.116L334.706 205.395C334.793 205.34 334.799 205.215 334.712 205.154L330.596 202.251C330.548 202.215 330.484 202.215 330.435 202.248L324.445 206.084C324.361 206.142 324.358 206.267 324.442 206.325Z" fill="#7D7D7D"/>
<path d="M322.301 182.773C322.301 182.773 321.875 181.74 320.59 182.072C319.305 182.403 319.022 184.611 319.022 185.1C319.019 186.31 319.489 187.067 319.489 187.652C319.489 188.238 319.225 189.815 319.225 189.815C319.225 189.815 320.552 190.224 321.608 189.738C322.668 189.249 322.301 182.773 322.301 182.773Z" fill="#513718"/>
<path d="M327.698 197.381C327.698 197.381 329.934 200.284 330.355 201.868C330.355 201.868 331.792 202.412 331.908 202.791C332.024 203.171 331.991 203.715 331.991 203.715C331.811 203.747 331.248 203.519 331.083 203.419C330.919 203.319 329.715 203.171 329.715 203.223C329.715 203.271 329.798 204.246 329.599 204.262C329.402 204.278 328.971 203.387 329.006 203.158C329.038 202.926 329.054 202.267 328.958 202.103C328.858 201.938 326.439 199.084 326.388 198.688C326.336 198.292 326.136 197.632 326.136 197.632L327.698 197.381Z" fill="#FAC2B0"/>
<path d="M325.508 188.966C325.508 188.966 326.797 189.374 327.154 191.318C327.512 193.262 328.136 197.143 328.136 197.143C328.136 197.143 327.692 198.296 326.091 198.073C326.091 198.073 324.958 192.834 324.716 191.399C324.471 189.96 324.752 188.702 325.508 188.966Z" fill="#ED6DA8"/>
<path d="M320.103 188.682C320.103 188.682 317.308 190.192 317.14 191.569C316.97 192.947 318.216 198.534 317.971 200.97C317.971 200.97 322.902 204.179 326.016 200.535C326.016 200.535 325.601 197.365 326.016 196.59C326.432 195.817 327.569 195.174 326.989 193.342C326.412 191.511 325.749 189.303 325.504 188.962C325.263 188.624 322.651 187.894 320.103 188.682Z" fill="#EE559D"/>
<path d="M320.983 187.788C320.983 187.788 320.754 188.293 320.107 188.682C320.107 188.682 320.754 191.218 322.886 191.131C325.018 191.045 322.615 185.686 322.615 185.686L320.983 187.788Z" fill="#FAC2B0"/>
<path d="M321.466 184.682L320.87 183.806C320.87 183.806 321.173 182.571 322.297 182.773L323.022 183.475C323.025 183.475 322.052 183.787 321.466 184.682Z" fill="#CE4989"/>
<path d="M326.758 186.487C326.855 187.083 326.951 187.771 326.607 188.505C326.262 189.239 325.444 191.131 324.658 191.035C323.869 190.938 322.301 190.23 322.301 189.21C322.301 188.19 322.832 186.075 323.013 186.062C323.193 186.049 325.695 185.731 325.956 185.937C326.22 186.143 326.758 186.487 326.758 186.487Z" fill="#FAC2B0"/>
<path d="M322.613 188.45C322.613 188.45 323.035 188.785 323.94 188.582C324.845 188.38 325.173 187.559 325.766 187.308C326.359 187.054 326.597 187.173 326.838 187.089C327.077 187.005 327.035 185.731 326.739 185.171C326.442 184.614 324.861 182.915 323.231 183.195C321.599 183.475 321 185.036 321.025 185.908C321.051 186.777 320.983 187.791 320.983 187.791C320.983 187.791 321.505 188.64 322.613 188.45Z" fill="#6B461B"/>
<path d="M322.612 188.45C322.612 188.45 322.57 187.398 321.878 187.569C321.185 187.736 322.003 189.02 322.435 189.065L322.612 188.45Z" fill="#FAC2B0"/>
<path d="M318.622 199.522L318.515 200.799C318.515 200.799 319.82 201.511 324.37 204.871C324.37 204.871 325.569 204.912 326.287 204.787C327.005 204.665 328.667 205.205 328.718 205.382C328.77 205.556 327.404 205.311 327.404 205.311C327.404 205.311 328.158 205.978 328.087 206.238C328.016 206.502 327.591 207.114 327.147 206.937C326.702 206.763 326.441 206.29 326.267 206.341C326.094 206.393 325.028 207.13 323.617 206.29C323.617 206.29 316.483 202.566 316.361 201.691C316.239 200.815 316.239 198.859 316.239 198.859C316.239 198.859 317.485 199.679 318.622 199.522Z" fill="#FAC2B0"/>
<path d="M318.484 191.209C319.54 191.746 319.733 193.172 319.614 194.501C319.492 195.83 318.742 199.689 318.742 199.689C318.742 199.689 316.684 200.159 316.01 198.978C316.01 198.978 316.671 193.494 316.819 192.258C316.964 191.019 317.824 190.871 318.484 191.209Z" fill="#ED6DA8"/>
<path d="M328.6 209.138L331.334 203.2L337.827 199.625L334.709 205.395L328.6 209.138Z" fill="#919190"/>
<path opacity="0.1" d="M73.4003 295.648C78.1333 295.648 81.9702 294.279 81.9702 292.59C81.9702 290.902 78.1333 289.533 73.4003 289.533C68.6672 289.533 64.8303 290.902 64.8303 292.59C64.8303 294.279 68.6672 295.648 73.4003 295.648Z" fill="black"/>
<path d="M68.6434 290.26C68.6434 290.26 68.2248 292.13 68.389 292.477C68.5533 292.825 69.4937 293.443 70.55 293.35C71.6064 293.256 73.0138 292.304 73.7577 292.268C74.5017 292.233 76.1989 291.013 75.2005 290.398C74.2022 289.784 72.1184 290.443 70.9462 289.922L68.6434 290.26Z" fill="#663017"/>
<path d="M67.9831 264.069C67.9831 264.069 67.3905 265.492 67.31 268.057C67.2295 270.622 68.7335 277.297 68.7335 277.297C68.7335 277.297 67.7834 279.269 68.0218 280.415C68.2601 281.561 69.0105 286.971 68.8913 288.113C68.7722 289.259 68.537 290.363 68.537 290.363C68.537 290.363 70.8108 291.229 72.07 290.125L74.4661 275.871L73.7157 264.5L67.9831 264.069Z" fill="#702B18"/>
<path d="M72.5404 290.785C72.5404 290.785 71.9542 292.439 72.0863 292.973C72.2183 293.507 72.8431 294.122 73.7191 294.164C74.5951 294.206 75.1619 293.63 75.616 293.639C76.0701 293.649 79.4066 294.466 80.0346 291.814C80.0346 291.814 80.0862 291.229 79.3487 291.11C78.6112 290.987 75.8898 291.11 75.4647 290.685L72.5404 290.785Z" fill="#663017"/>
<path d="M78.0511 265.253C78.0511 265.253 78.9625 267.107 77.6614 279.466C77.6614 279.466 77.5648 284.895 76.035 291.042C76.035 291.042 73.8869 292.181 72.4569 290.814C72.4569 290.814 72.9465 287.27 72.8466 286.552C72.75 285.838 71.6099 281.316 73.3684 279.562C73.3684 279.562 72.035 273.74 71.742 272.929C71.4489 272.115 69.7194 269.251 70.2251 266.277L78.0511 265.253Z" fill="#832E1B"/>
<path d="M78.756 251.727C78.756 251.727 80.1216 251.392 80.7689 250.198L79.1425 248.994L77.8865 250.359L78.756 251.727Z" fill="#FAC2B0"/>
<path d="M75.2004 251.579L77.6416 250.253C77.6416 250.253 78.6722 250.571 78.7592 251.73L76.8043 253.748C76.8043 253.744 76.26 252.093 75.2004 251.579Z" fill="#F69265"/>
<path d="M78.8686 249.616L86.0699 254.105C86.2148 254.195 86.4016 254.134 86.466 253.977L89.0167 247.784C89.0682 247.659 89.0199 247.511 88.9008 247.443L81.3356 243.121C81.1875 243.037 81.0007 243.105 80.9427 243.266L78.7559 249.291C78.7141 249.413 78.7591 249.548 78.8686 249.616Z" fill="#383838"/>
<path d="M81.2423 243.597L79.1489 249.294C79.1264 249.358 79.1489 249.432 79.2101 249.467L85.9508 253.677C86.0281 253.725 86.1279 253.693 86.1634 253.609L88.5627 247.768C88.5917 247.7 88.5627 247.623 88.5015 247.588L81.4549 243.523C81.3744 243.475 81.2745 243.51 81.2423 243.597Z" fill="#CAEAF8"/>
<path d="M77.6416 250.253L78.0216 248.708C78.0216 248.708 78.5273 248.084 78.888 248.039C79.2487 247.994 80.3243 247.961 80.3018 248.148C80.2793 248.335 79.7929 248.608 78.9717 248.782C78.9717 248.782 79.3356 249.834 79.1939 250.327C79.0522 250.819 78.7591 251.727 78.7591 251.727C78.7591 251.727 78.26 250.591 77.6416 250.253Z" fill="#FAC2B0"/>
<path d="M73.864 241.328C74.7561 241.55 75.6063 242.197 75.6482 243.111C75.69 244.022 75.5451 247.752 74.9847 247.858C74.4244 247.961 72.4952 246.78 71.8125 245.557C71.1297 244.334 71.6063 240.768 73.864 241.328Z" fill="#FAC2B0"/>
<path d="M69.7642 246.05L69.9767 249.281C69.9767 249.281 70.988 250.185 73.7834 249.96C73.7834 249.96 73.7931 248.962 73.9477 248.457C74.1023 247.952 74.7013 246.906 74.7013 246.906C74.7013 246.906 71.2166 245.599 69.7642 246.05Z" fill="#FAC2B0"/>
<path d="M71.2616 248.968C71.2616 248.968 69.0297 247.588 67.9218 247.726C66.814 247.865 65.5515 250.706 65.8671 252.821C66.1827 254.932 67.6062 257.854 67.5676 258.9C67.5289 259.946 67.1714 263.995 67.5289 264.349C67.8864 264.703 69.1102 266.441 72.6464 266.875C76.1826 267.31 78.0216 266.183 78.276 265.434C78.5337 264.684 78.1375 262.888 77.8992 262.354C77.6609 261.819 77.0103 258.978 77.3839 256.609C77.7607 254.24 77.8283 251.971 74.9202 250.253L71.2616 248.968Z" fill="#F48451"/>
<path d="M69.0592 242.638C69.0592 242.638 68.9143 241.405 70.2347 240.868C71.5551 240.331 74.2701 239.883 75.5616 241.267C75.5616 241.267 76.0833 241.869 74.283 242.638C74.283 242.638 74.167 243.089 74.6179 243.726C75.0688 244.363 74.1992 244.794 74.0382 245.248C73.8772 245.705 73.3554 247.974 72.6147 247.974C71.874 247.974 69.7548 247.668 69.6099 247.408C69.465 247.15 67.2718 243.755 69.0592 242.638Z" fill="#784D46"/>
<path d="M74.4985 244.901C74.4985 244.901 74.3954 244.045 73.7159 244.292C73.0331 244.54 73.571 245.699 74.2086 245.902L74.4985 244.901Z" fill="#FAC2B0"/>
<path d="M69.252 248.631L69.7415 247.916C69.7415 247.916 70.2213 249.159 75.0619 249.262C75.0619 249.262 75.2615 249.39 75.181 249.593C75.1005 249.793 74.9202 250.253 74.9202 250.253C74.9202 250.253 74.4757 250.127 74.2149 250.15C73.9572 250.169 70.3727 250.504 69.252 248.631Z" fill="#F4A986"/>
<path d="M84.1281 254.128C84.1281 254.128 83.9349 252.815 84.1281 252.245C84.3214 251.675 84.7046 251.527 84.856 251.109C85.0073 250.69 85.2231 248.817 85.6257 248.837C86.0282 248.853 85.777 250.793 85.9606 251.025C86.1442 251.26 87.3165 252.313 87.2649 252.679C87.2134 253.046 87.0459 253.954 86.7625 254.128C86.4791 254.301 85.6547 255.405 85.6547 255.405C85.6547 255.405 84.856 254.572 84.1281 254.128Z" fill="#FAC2B0"/>
<path d="M75.3421 253.21C76.3373 252.119 77.2584 252.412 77.677 253.011C78.0957 253.609 81.0297 258.476 81.0297 258.476C81.0297 258.476 82.7655 255.183 84.1246 254.128C84.1246 254.128 85.6029 254.565 85.7414 255.264C85.8799 255.962 82.7269 262.244 81.9282 262.225C81.1295 262.206 80.5917 262.563 79.2132 261.327C77.8348 260.091 75.7737 256.76 75.1972 255.621C74.6239 254.488 75.1521 253.419 75.3421 253.21Z" fill="#F69265"/>
<path opacity="0.1" d="M244.3 104.242C249.35 104.242 253.443 102.783 253.443 100.982C253.443 99.1816 249.35 97.7219 244.3 97.7219C239.251 97.7219 235.157 99.1816 235.157 100.982C235.157 102.783 239.251 104.242 244.3 104.242Z" fill="black"/>
<path d="M240.883 99.0318C240.89 100.802 241.128 103.454 239.099 103.241C236.935 103.013 238.11 98.2337 238.3 97.4742C238.4 97.0751 238.606 96.6213 238.838 96.174C238.584 98.0148 238.793 100.403 239.53 100.776C240.117 101.069 240.619 99.8525 240.883 99.0318Z" fill="#009253"/>
<path d="M248.248 85.5567C247.505 88.7525 246.896 92.0835 247.282 94.4941C246.329 94.758 245.556 94.7161 245.009 94.597C245.379 92.5824 244.951 89.1452 244.983 87.7967C245.021 86.2036 245.856 84.4946 245.856 84.4946C245.592 81.611 245.286 74.7817 245.286 74.7817C245.286 74.7817 244.793 83.851 244.754 84.7231C244.722 85.4376 242.158 93.2164 241.221 96.94C240.146 96.6858 239.63 95.7396 239.447 95.0605C239.46 95.0412 239.469 95.0219 239.479 95.0058C239.898 94.2463 240.239 89.6183 240.336 88.3663C240.432 87.1144 241.756 85.5213 242.097 84.4979C242.439 83.4744 239.704 77.5559 239.289 74.669C238.87 71.7854 240.007 69.7803 240.007 69.7803L247.769 68.8406C249.26 70.7458 249.427 80.5103 248.248 85.5567Z" fill="#203619"/>
<path d="M251.251 99.5212C250.3 99.9396 246.239 99.1801 245.173 98.6877C244.191 98.2339 243.924 97.3231 244.545 95.9038C244.887 96.319 245.421 96.8275 246.246 97.3778C247.708 98.3465 248.652 97.8831 249.08 97.5259C249.093 97.5323 249.109 97.5419 249.122 97.5484C252.007 99.1061 251.251 99.5212 251.251 99.5212Z" fill="#009253"/>
<path d="M249.08 97.5256C248.651 97.8829 247.708 98.3495 246.245 97.3776C245.421 96.8272 244.886 96.3187 244.545 95.9036C244.545 95.9004 244.545 95.9004 244.545 95.9004C244.596 95.7813 244.654 95.659 244.719 95.5335C244.848 95.2824 244.944 94.9606 245.012 94.5937C245.559 94.7128 246.332 94.7578 247.286 94.4907C247.501 95.8714 248.049 96.9495 249.08 97.5256Z" fill="#FAC2B0"/>
<path d="M239.425 94.3427L239.37 94.4624C239.379 94.3912 239.399 94.3459 239.425 94.3427Z" fill="#FAC2B0"/>
<path d="M241.224 96.94C241.018 97.7542 240.893 98.3754 240.886 98.6843C240.883 98.7937 240.883 98.9096 240.883 99.0287C240.619 99.8526 240.12 101.069 239.53 100.77C238.796 100.396 238.587 98.0117 238.838 96.1676C239.034 95.7846 239.257 95.4048 239.447 95.0573C239.63 95.7395 240.149 96.6889 241.224 96.94Z" fill="#FAC2B0"/>
<path d="M241.527 48.3524C240.874 48.1174 239.412 47.5446 238.838 48.8738C238.265 50.2062 238.503 53.4406 239.453 59.6263L243.209 59.0277L241.527 48.3524Z" fill="#AA2E24"/>
<path d="M241.933 56.1796C242.806 55.8127 245.73 55.6324 246.567 55.6324C247.402 55.6324 248.368 59.1887 248.377 60.4503C248.387 61.9501 248.055 63.202 247.324 64.3767C246.593 65.5514 247.769 68.8406 247.769 68.8406C247.769 68.8406 245.753 72.8088 240.01 69.7803C240.01 69.7803 241.192 66.076 239.453 63.4402C237.714 60.8043 237.949 59.134 238.735 58.4292C239.514 57.7212 241.933 56.1796 241.933 56.1796Z" fill="#007A6D"/>
<path d="M253.598 54.4157C252.484 55.6097 250.542 57.5697 248.239 58.9407C248.239 58.9407 246.551 59.3527 245.936 57.5182C245.598 56.5076 245.489 55.8253 247.733 55.3458C249.604 54.95 251.237 53.5628 251.962 52.8323C252.323 53.315 252.88 53.9394 253.598 54.4157Z" fill="#007A6D"/>
<path d="M238.684 66.8549C238.574 67.1285 238.481 67.4278 238.41 67.7464C237.415 67.7593 236.542 67.3023 235.94 66.8646C236.41 64.8338 237.305 61.564 237.686 60.3539C238.104 59.0215 239.141 58.3842 239.988 58.9668C240.884 59.5815 239.911 63.8426 238.684 66.8549Z" fill="#007A6D"/>
<path d="M238.429 76.7899C238.175 77.5655 237.257 79.4418 236.062 78.4376C234.864 77.4367 236.507 76.3489 236.571 75.451C236.635 74.5563 235.402 69.3683 235.814 67.447C235.853 67.27 235.895 67.0737 235.943 66.8677C236.542 67.3022 237.418 67.7624 238.413 67.7495C237.669 70.9421 238.661 76.0818 238.429 76.7899Z" fill="#FAC2B0"/>
<path d="M258.574 45.6072C257.788 46.872 257.366 47.5704 257.366 47.5704C257.366 47.5704 255.038 52.9515 254.529 53.4182C254.381 53.5566 254.059 53.9202 253.598 54.4159C252.88 53.9363 252.323 53.3152 251.962 52.8324C252.11 52.6844 252.217 52.5621 252.284 52.4848C252.677 52.0053 255.936 47.1778 255.991 46.7304C256.046 46.2831 255.093 42.8298 255.766 43.1677C256.439 43.5056 256.58 44.4872 256.58 44.4872C256.58 44.4872 257.06 42.2151 257.704 42.4372C258.352 42.6624 259.36 44.3456 258.574 45.6072Z" fill="#FAC2B0"/>
<path d="M245.077 49.9519C245.077 49.9519 245.708 48.4747 244.658 48.0788C243.608 47.6829 241.885 47.5317 240.912 48.3717C239.936 49.2117 238.236 51.8217 240.809 54.7344L245.077 49.9519Z" fill="#B93426"/>
<path d="M244.816 49.2472C245.199 49.8201 246.562 52.9998 244.652 55.906C244.652 55.906 240.336 57.1193 241.238 50.3961L244.816 49.2472Z" fill="#FAC2B0"/>
<path d="M245.244 49.0024C245.293 49.7587 244.346 53.0189 241.422 52.7357C238.497 52.4525 240.806 49.0958 242.101 48.8125C243.399 48.5325 245.244 49.0024 245.244 49.0024Z" fill="#B93426"/>
<path d="M241.145 53.4215L241.096 56.7428C241.096 56.7428 241.934 57.7438 243.325 57.4702C243.325 57.4702 244.075 54.6413 244.136 54.6574C244.201 54.6734 241.145 53.4215 241.145 53.4215Z" fill="#FAC2B0"/>
<path d="M241.934 52.8871C241.934 52.8871 241.29 51.3133 240.562 51.9667C239.883 52.5749 241.042 53.5404 241.493 53.5211L241.934 52.8871Z" fill="#FAC2B0"/>
</g>
<defs>
<clipPath id="clip0">
<rect width="475" height="337" fill="white"/>
</clipPath>
</defs>
</svg>
